<?xml version="1.0" encoding="UTF-8" standalone="no"?><!DOCTYPE svg PUBLIC "-//W3C//DTD SVG 1.1//EN" "http://www.w3.org/Graphics/SVG/1.1/DTD/svg11.dtd"><svg width="100%" height="100%" viewBox="0 0 6000 10667" version="1.1" xmlns="http://www.w3.org/2000/svg" xmlns:xlink="http://www.w3.org/1999/xlink" xml:space="preserve" xmlns:serif="http://www.serif.com/" style="fill-rule:evenodd;clip-rule:evenodd;stroke-linecap:round;stroke-linejoin:round;stroke-miterlimit:1.5;"><g id="Back-Right-Mountain" serif:id="Back Right Mountain"><path d="M3761.31,3545.74l-264.387,-300.52c-763.39,100.501 -3333.92,1075.32 -652.986,-560.56c0,-0 528.026,-59.728 700.01,-135.069c211.478,-92.638 690.789,-748.199 990.578,-1141.74c55.738,-69.505 109.852,-134.036 161.38,-190.589c88.881,-97.593 348.523,-126.889 383.959,-126.889c30.725,0 279.486,290.133 461.085,507.581c273.732,331.371 595.992,730.699 754.87,888.201l-291.951,723.007l13.241,278.191l-395.689,26.523l-604.038,22.924l-726.78,27.992l-529.292,-19.05Z" style="fill:#028e02;fill-rule:nonzero;"/><path d="M4997.31,1099.47l169.789,597.445c88.325,340.68 86.863,688.74 -16.571,1045.18c-12.236,34.391 -257.811,204.274 -404.68,265.722c-129.205,23.002 -258.008,38.262 -385.417,26.558c-69.536,-16.209 -135.556,-37.564 -198.111,-63.995c-51.011,-17.114 -99.37,-32.759 -144.736,-46.753c-114.257,-36.367 -267.542,-83.032 -328.413,-86.826c-112.532,-6.418 -193.162,-6.044 -280.268,4.01c-74.191,7.481 -140.776,15.397 -199.05,23.788c0,-0 -613.514,115.504 -699.099,174.197c-172.208,118.096 -944.023,510.284 -955.432,546.701c626.846,691.178 7327.16,250.366 4445.4,-1431.92c-149.93,-219.904 -351.069,-424.203 -391.012,-473.007c-47.664,-58.235 -98.506,-114.644 -145.836,-173.86c-218.218,-273.011 -318.521,-368.324 -358.894,-400.511c-21.022,-16.759 -19.335,-13.194 -22.471,-15.183c-2.403,-1.524 -30.014,-0.752 -54.403,3.786c-14.782,2.75 -33.211,2.184 -30.798,4.673l0,-0.003l0.001,-0.002Z" style="fill:#093301;stroke:#000;stroke-opacity:0;stroke-width:4.17px;"/><path d="M4997.55,1099.16c0,0 -99.644,16.783 -152.569,35.483c-52.925,18.699 -85.774,35.849 -85.774,35.849c-0,0 -16.591,7.609 -35.24,22.119c-18.651,14.51 -16.545,13.561 -16.545,13.561c-0,-0 -31.497,32.923 -47.398,51.658c-15.902,18.735 -38.68,45.032 -38.68,45.032c0,0 -61.865,72.885 -70.74,85.231c-8.875,12.345 -33.129,39.819 -69.297,90.086c-36.167,50.266 -1.479,1.855 -1.479,1.855l156.935,270.084l-227.569,661.966l-438.981,109.172l-443.701,312.174c-0.954,-3.294 185.201,2.299 189.206,6.662c2.164,2.357 41.257,7.227 67.155,14.606c25.899,7.379 13.181,3.416 34.796,8.987c21.615,5.571 28.088,7.839 28.088,7.839l63.35,18.441l61.661,18.926l69.717,21.857l69.714,22.21l40.371,13.483l11.817,4.051c-0,0 30.266,12.495 31.402,12.547c1.137,0.051 19.261,8.231 45.005,16.608c25.743,8.377 23.913,7.749 23.913,7.749c-0,0 21.713,6.807 22.414,7.039c0.699,0.233 22.521,6.673 23.579,6.698c1.057,0.025 26.966,7.908 51.968,13.249c25.003,5.34 39.181,2.787 39.181,2.787c0,0 82.925,2.827 133.265,-1.535c50.34,-4.361 123.266,-12.385 153.306,-17.569c30.041,-5.184 60.77,-10.078 60.77,-10.078c0,0 28.595,-3.313 196.198,-104.697c96.64,-58.459 190.933,-137.194 204.427,-152.631c25.964,-63.378 35.117,-112.336 41.772,-160.253c23.956,-111.756 36.564,-224.965 41.201,-339.199c3.105,-157.414 -7.945,-313.839 -42.465,-468.627c-28.743,-126.002 -65.516,-253.091 -103.617,-380.362l-87.155,-303.057" style="fill:#09622a;stroke:#000;stroke-opacity:0;stroke-width:4.17px;"/></g></svg>