<?xml version="1.0" encoding="UTF-8" standalone="no"?><!DOCTYPE svg PUBLIC "-//W3C//DTD SVG 1.1//EN" "http://www.w3.org/Graphics/SVG/1.1/DTD/svg11.dtd"><svg width="100%" height="100%" viewBox="0 0 6000 10667" version="1.1" xmlns="http://www.w3.org/2000/svg" xmlns:xlink="http://www.w3.org/1999/xlink" xml:space="preserve" xmlns:serif="http://www.serif.com/" style="fill-rule:evenodd;clip-rule:evenodd;stroke-linecap:round;stroke-linejoin:round;stroke-miterlimit:1.5;"><g id="Back-Left-Mountain" serif:id="Back Left Mountain"><path d="M1483.83,3684.47c389.629,-17.178 674.942,-48.198 823.492,-97.366c102.094,-167.491 175.129,-354.515 212.987,-554.006c0,0 -351.371,9.773 -491.413,-52.111c-172.202,-76.091 -562.506,-614.554 -806.628,-937.802c-45.387,-57.089 -89.436,-110.092 -131.383,-156.543c-72.39,-80.16 -283.796,-104.223 -312.67,-104.223c-25.021,-0 -227.587,238.308 -375.439,416.915c-222.896,272.176 -485.324,600.177 -614.692,729.541l-216.752,442.95l109.432,347.757l383.346,4.693l426.217,-9.657l551.688,-14.766l441.815,-15.382Z" style="fill:#093301;fill-rule:nonzero;"/><path d="M777.691,1782.45l355.586,728.396l50.484,438.277l323.951,128.337c63.19,-135.847 122.836,-260.251 174.483,-377.413c5.462,-12.389 10.349,-28.144 15.395,-40.422l-465.419,-603.307c-35.809,-46.55 -71.485,-89.189 -107.096,-130.917c-12.012,-13.947 -24.17,-27.742 -36.555,-41.298c-6.612,-6.758 -13.522,-12.769 -20.623,-18.302c-31.588,-22.17 -73.328,-40.263 -124.296,-54.651c-25.345,-7.186 -51.911,-13.267 -76.582,-17.516c-36.645,-6.312 -70.479,-10.615 -88.006,-11.207c-0.577,-0.019 -1.124,-0.008 -1.324,0.024l0.002,-0.001Z" style="fill:#028e02;stroke:#000;stroke-opacity:0;stroke-width:4.17px;"/><path d="M777.694,1782.45l-1.541,0.362l-1.645,0.668l-0.813,0.4l-1.71,0.959c-7.771,4.513 -20.731,16.434 -35.488,30.899c-27.843,24.265 -161.503,178.562 -274.75,312.727l-30.985,37.324l-12.43,14.831l-10.204,12.288l-10.574,12.866l-6.11,7.409l372.111,385.566l6.169,488.709l136.336,142.131l163.376,-99.394l16.09,-117.24l98.239,-63.828l-50.483,-438.272l-355.59,-728.406l0.002,0.001Z" style="fill:#09622a;stroke:#000;stroke-opacity:0;stroke-width:4.17px;"/></g></svg>