<?xml version="1.0" encoding="UTF-8" standalone="no"?><!DOCTYPE svg PUBLIC "-//W3C//DTD SVG 1.1//EN" "http://www.w3.org/Graphics/SVG/1.1/DTD/svg11.dtd"><svg width="100%" height="100%" viewBox="0 0 6000 10667" version="1.1" xmlns="http://www.w3.org/2000/svg" xmlns:xlink="http://www.w3.org/1999/xlink" xml:space="preserve" xmlns:serif="http://www.serif.com/" style="fill-rule:evenodd;clip-rule:evenodd;stroke-linecap:round;stroke-linejoin:round;stroke-miterlimit:1.5;"><g id="Layer1"><path d="M-3.414,4219.09c195.055,468.25 280.893,579.16 650.761,728.159c449.009,126.089 844.11,-107.279 1195.33,140.432c294.612,186.035 517.609,333.556 911.656,174.261c234.764,-23.414 624.276,12.515 879.391,148.365c252.678,146.919 763.448,169.252 921.829,91.543c223.587,-149.049 272.588,-230.156 526.236,-321.97c320.79,-92.038 727.564,195.841 918.063,-345.329l-0,5839.31l-6003.27,-12.263l-0.003,-6442.51l-0.002,0l0.005,-0.003Z" style="fill:url(#_Linear1);stroke:#000;stroke-opacity:0;stroke-width:17.85px;"/></g><defs><linearGradient id="_Linear1" x1="0" y1="0" x2="1" y2="0" gradientUnits="userSpaceOnUse" gradientTransform="matrix(3.48834e-14,2447.48,-569.689,1.49865e-13,3213.64,4082.19)"><stop offset="0" style="stop-color:#fff;stop-opacity:0"/><stop offset="0.44" style="stop-color:#fff;stop-opacity:0.32"/><stop offset="1" style="stop-color:#fff;stop-opacity:1"/></linearGradient></defs></svg>