<svg width="156" height="153" viewBox="0 0 156 153" fill="none" xmlns="http://www.w3.org/2000/svg">
<path d="M94.7958 2.46385C86.1098 -0.367674 65.6762 0.407316 60.5678 7.09215C47.2851 7.34759 31.7019 19.4357 29.6594 35.3858C27.6384 51.167 32.1448 58.4969 33.7487 70.3642C35.5633 83.8118 43.0711 88.1111 49.0739 89.9122C57.7083 101.403 66.8845 100.909 82.3 100.909C112.4 100.909 126.736 80.6296 128.005 46.188C128.77 25.3542 116.631 9.57731 94.7958 2.46385Z" fill="#FFAC33"/>
<path d="M116.7 87.9207H39.3001C34.7384 87.9207 30.3635 89.7452 27.1379 92.993C23.9122 96.2408 22.1001 100.646 22.1001 105.239V152.864H133.9V105.239C133.9 100.646 132.088 96.2408 128.862 92.993C125.637 89.7452 121.262 87.9207 116.7 87.9207Z" fill="#FA743E"/>
<path d="M111.987 47.8029C109.076 43.7418 105.344 40.473 97.1696 39.317C100.236 40.7327 103.172 45.6165 103.555 48.3181C103.938 51.0198 104.321 53.2062 101.895 50.5045C92.173 39.685 81.5864 43.9453 71.0944 37.3384C63.7715 32.7187 61.5398 27.6099 61.5398 27.6099C61.5398 27.6099 60.6454 34.4246 49.5342 41.3692C46.3135 43.3824 42.4693 47.8678 40.3365 54.4877C38.8057 59.2459 39.2787 63.4889 39.2787 70.7409C39.2787 91.9081 56.6034 109.707 77.9787 109.707C99.354 109.707 116.679 91.7522 116.679 70.7409C116.679 57.5747 115.311 52.4312 111.987 47.8029Z" fill="#FFDC5D"/>
<path d="M43.6001 113.898H47.9001V152.864H43.6001V113.898Z" fill="#DD551F"/>
<path d="M20.8186 111.711L19.6017 111.456H17.4044C17.4044 111.205 17.5033 110.971 17.5549 110.724C16.8026 110.264 16.2097 109.581 15.8572 108.769C15.5047 107.957 15.4098 107.055 15.5855 106.187C16.0671 103.84 18.3504 102.334 20.6853 102.814L29.6766 104.689H36.8834C40.5943 104.689 43.6 107.72 43.6 111.46V118.227H27.4879C27.4879 118.227 21.1196 115.331 20.8186 111.711Z" fill="#FCAB40"/>
<path d="M0.600098 108.075C0.600098 106.204 2.1051 104.689 3.9584 104.689L24.1254 108.075H40.2375C42.0951 108.075 43.5958 109.594 43.5958 111.456V118.227H22.1001L3.9584 111.46C3.9584 111.46 0.600098 109.945 0.600098 108.075Z" fill="#FFDC5D"/>
<path d="M17.8 152.864H43.6V118.228H22.1L17.8 152.864Z" fill="#FA743E"/>
<path d="M108.1 113.898H112.4V152.864H108.1V113.898Z" fill="#DD551F"/>
<path d="M135.181 111.712L136.398 111.456H138.596C138.596 111.205 138.497 110.971 138.445 110.724C139.197 110.264 139.79 109.582 140.143 108.77C140.495 107.957 140.59 107.055 140.414 106.187C140.183 105.06 139.516 104.071 138.56 103.438C137.605 102.806 136.439 102.582 135.319 102.814L126.328 104.689H119.121C115.41 104.689 112.404 107.72 112.404 111.46V118.228H128.516C128.512 118.228 134.88 115.331 135.181 111.712Z" fill="#FCAB40"/>
<path d="M155.4 108.075C155.4 107.177 155.046 106.317 154.417 105.682C153.787 105.047 152.933 104.69 152.042 104.689L131.871 108.075H115.758C114.868 108.075 114.014 108.431 113.384 109.065C112.754 109.699 112.4 110.559 112.4 111.456V118.227H133.9L152.042 111.46C152.042 111.46 155.4 109.945 155.4 108.075Z" fill="#FFDC5D"/>
<path d="M138.2 152.864H112.4V118.228H133.9L138.2 152.864Z" fill="#FA743E"/>
<path d="M82.3 81.4262H73.7C73.1298 81.4262 72.583 81.1982 72.1798 80.7922C71.7766 80.3862 71.55 79.8356 71.55 79.2615C71.55 78.6873 71.7766 78.1367 72.1798 77.7307C72.583 77.3248 73.1298 77.0967 73.7 77.0967H82.3C82.8703 77.0967 83.4171 77.3248 83.8203 77.7307C84.2235 78.1367 84.45 78.6873 84.45 79.2615C84.45 79.8356 84.2235 80.3862 83.8203 80.7922C83.4171 81.1982 82.8703 81.4262 82.3 81.4262ZM88.75 96.5797H86.6C86.0298 96.5797 85.483 96.3516 85.0798 95.9456C84.6766 95.5396 84.45 94.989 84.45 94.4149C84.45 93.8408 84.6766 93.2901 85.0798 92.8842C85.483 92.4782 86.0298 92.2501 86.6 92.2501H88.75C89.3203 92.2501 89.8671 92.4782 90.2703 92.8842C90.6735 93.2901 90.9 93.8408 90.9 94.4149C90.9 94.989 90.6735 95.5396 90.2703 95.9456C89.8671 96.3516 89.3203 96.5797 88.75 96.5797Z" fill="#C1694F"/>
<path d="M60.8 66.2728C59.6596 66.2728 58.5658 65.8167 57.7594 65.0047C56.953 64.1928 56.5 63.0916 56.5 61.9433V57.6137C56.5 56.4655 56.953 55.3642 57.7594 54.5523C58.5658 53.7403 59.6596 53.2842 60.8 53.2842C61.9404 53.2842 63.0342 53.7403 63.8406 54.5523C64.647 55.3642 65.1 56.4655 65.1 57.6137V61.9433C65.1 63.0916 64.647 64.1928 63.8406 65.0047C63.0342 65.8167 61.9404 66.2728 60.8 66.2728ZM95.2 66.2728C94.0596 66.2728 92.9658 65.8167 92.1594 65.0047C91.353 64.1928 90.9 63.0916 90.9 61.9433V57.6137C90.9 56.4655 91.353 55.3642 92.1594 54.5523C92.9658 53.7403 94.0596 53.2842 95.2 53.2842C96.3404 53.2842 97.4342 53.7403 98.2406 54.5523C99.047 55.3642 99.5 56.4655 99.5 57.6137V61.9433C99.5 63.0916 99.047 64.1928 98.2406 65.0047C97.4342 65.8167 96.3404 66.2728 95.2 66.2728Z" fill="#662113"/>
</svg>
