<svg width="1042" height="1066" viewBox="0 0 1042 1066" fill="none" xmlns="http://www.w3.org/2000/svg">
<rect x="881" y="516.72" width="118" height="118" rx="5" transform="rotate(-29.2849 881 516.72)" fill="#06B92D" fill-opacity="0.4"/>
<path d="M897.044 532.6C896.456 531.554 896.263 530.488 896.462 529.404C896.667 528.299 897.217 527.366 898.112 526.607L898.403 527.077C897.363 527.348 896.42 527.318 895.573 526.986C894.74 526.646 894.077 526.036 893.584 525.157C893.13 524.348 892.954 523.511 893.056 522.646C893.158 521.782 893.509 520.952 894.109 520.157C894.723 519.354 895.553 518.659 896.599 518.072C897.646 517.485 898.658 517.147 899.635 517.057C900.618 516.946 901.502 517.083 902.287 517.469C903.078 517.832 903.708 518.432 904.178 519.27C904.671 520.149 904.839 521.036 904.681 521.932C904.515 522.814 904.037 523.614 903.248 524.332L902.98 523.904C903.719 523.618 904.456 523.526 905.191 523.627C905.919 523.714 906.583 523.966 907.183 524.381C907.797 524.789 908.303 525.349 908.703 526.06C909.219 526.981 909.429 527.928 909.332 528.899C909.241 529.849 908.862 530.759 908.194 531.629C907.54 532.491 906.62 533.255 905.434 533.92C904.262 534.578 903.13 534.965 902.04 535.081C900.963 535.19 899.989 535.039 899.117 534.629C898.251 534.198 897.56 533.521 897.044 532.6ZM899.554 530.944C899.828 531.433 900.193 531.788 900.647 532.01C901.116 532.224 901.642 532.295 902.226 532.225C902.824 532.146 903.458 531.919 904.128 531.543C904.77 531.183 905.273 530.772 905.638 530.311C906.017 529.842 906.234 529.362 906.29 528.872C906.351 528.361 906.241 527.854 905.96 527.351C905.545 526.612 904.923 526.19 904.094 526.086C903.279 525.975 902.384 526.193 901.407 526.741C900.43 527.289 899.77 527.943 899.426 528.705C899.097 529.458 899.139 530.205 899.554 530.944ZM896.141 524.025C896.494 524.653 897.037 525.018 897.773 525.119C898.501 525.206 899.297 525.007 900.162 524.522C901.013 524.044 901.584 523.476 901.876 522.818C902.18 522.151 902.157 521.504 901.805 520.876C901.445 520.234 900.905 519.877 900.185 519.804C899.471 519.709 898.689 519.9 897.837 520.377C896.972 520.863 896.387 521.438 896.082 522.105C895.769 522.757 895.789 523.397 896.141 524.025ZM915.605 510.576L912.932 518.762L910.481 518.514L913.08 510.589L913.348 512.145L906.022 516.254L904.695 513.889L914.407 508.441L915.605 510.576ZM913.318 519.206L911.456 520.251L910.481 518.514C910.629 518.156 910.899 517.82 911.293 517.508C911.678 517.182 912.06 516.913 912.436 516.701C913.162 516.294 913.915 516.019 914.697 515.874C915.478 515.729 916.241 515.732 916.986 515.883C917.737 516.012 918.435 516.308 919.08 516.772C919.718 517.222 920.26 517.844 920.706 518.64C921.293 519.686 921.557 520.73 921.499 521.772C921.442 522.813 921.104 523.782 920.488 524.678C919.886 525.566 919.068 526.3 918.035 526.879C917.031 527.443 916.014 527.756 914.985 527.82C913.963 527.861 912.999 527.631 912.094 527.13C911.203 526.621 910.449 525.815 909.83 524.712L912.468 523.233C912.961 524.112 913.589 524.659 914.351 524.873C915.12 525.066 915.915 524.931 916.739 524.47C917.576 524 918.105 523.373 918.326 522.589C918.552 521.783 918.431 520.961 917.961 520.124C917.531 519.357 916.916 518.866 916.118 518.654C915.312 518.427 914.379 518.611 913.318 519.206Z" fill="#FFFEFE" fill-opacity="0.4"/>
<path d="M937.119 528.397L960.004 569.202L952.858 573.209L929.974 532.404L937.119 528.397ZM959.31 546.77L948.09 553.062L944.709 547.034L955.539 540.96C957.511 539.854 958.747 538.525 959.246 536.973C959.725 535.384 959.453 533.678 958.43 531.854C957.449 530.105 956.158 529.068 954.557 528.743C952.956 528.418 951.132 528.829 949.086 529.977L938.256 536.051L934.719 529.743L946.162 523.325C950.218 521.05 953.953 520.252 957.367 520.93C960.78 521.609 963.447 523.66 965.367 527.084C966.744 529.54 967.307 531.939 967.055 534.281C966.783 536.587 965.683 538.769 963.756 540.828L963.318 540.046C966.182 539.223 968.725 539.264 970.946 540.171C973.166 541.078 975.007 542.834 976.468 545.439C977.762 547.746 978.358 550.029 978.255 552.288C978.131 554.51 977.315 556.631 975.806 558.651C974.314 560.613 972.172 562.377 969.381 563.942L957.603 570.548L954.066 564.24L965.509 557.822C967.556 556.675 968.847 555.314 969.384 553.741C969.92 552.169 969.677 550.47 968.655 548.647C967.695 546.935 966.396 545.927 964.757 545.623C963.136 545.261 961.32 545.643 959.31 546.77ZM988.213 553.381L972.748 525.805L979.559 521.986L995.024 549.562L988.213 553.381ZM972.998 518.401C971.845 519.048 970.639 519.21 969.382 518.888C968.142 518.507 967.198 517.74 966.551 516.587C965.904 515.433 965.752 514.246 966.095 513.027C966.476 511.786 967.243 510.842 968.396 510.195C969.55 509.548 970.737 509.396 971.957 509.739C973.214 510.062 974.166 510.8 974.813 511.953C975.46 513.107 975.603 514.323 975.244 515.601C974.9 516.82 974.152 517.754 972.998 518.401Z" fill="white" fill-opacity="0.4"/>
<rect x="546.836" y="86" width="118" height="118" rx="5" transform="rotate(6.24508 546.836 86)" fill="#DA6805" fill-opacity="0.4"/>
<path d="M555.358 98.8858L551.54 98.4683L551.84 95.7247L558.568 96.4604L556.661 113.9L553.751 113.582L555.358 98.8858ZM572.941 98.0322L571.034 115.472L568.147 115.157L570.054 97.7165L572.941 98.0322ZM559.951 108.2L569.1 97.6121L572.321 97.9644L563.031 108.73L559.951 108.2ZM573.52 112.388L559.659 110.872L559.951 108.2L573.812 109.716L573.52 112.388Z" fill="#FFFEFE" fill-opacity="0.4"/>
<path d="M573.485 139.91C573.782 137.196 574.744 134.876 576.371 132.951C577.998 131.026 580.104 129.625 582.69 128.749C585.322 127.836 588.271 127.557 591.537 127.915C594.675 128.258 597.33 129.107 599.499 130.46C601.711 131.818 603.342 133.585 604.392 135.76C605.484 137.939 605.919 140.434 605.697 143.242L597.554 142.351C597.687 140.348 597.136 138.721 595.899 137.47C594.667 136.176 592.906 135.404 590.616 135.154C588.113 134.88 586.036 135.232 584.384 136.21C582.779 137.15 581.87 138.596 581.656 140.547C581.475 142.201 581.776 143.565 582.56 144.638C583.391 145.673 584.757 146.53 586.657 147.21L593.792 149.665C597.686 150.95 600.495 152.738 602.219 155.03C603.947 157.279 604.621 160.143 604.24 163.621C603.929 166.462 602.955 168.888 601.319 170.898C599.683 172.908 597.506 174.365 594.789 175.27C592.119 176.136 589.066 176.382 585.63 176.006C582.365 175.648 579.562 174.784 577.223 173.412C574.888 171.997 573.132 170.196 571.955 168.007C570.821 165.822 570.362 163.347 570.579 160.581L578.722 161.472C578.551 163.428 579.145 165.059 580.504 166.367C581.911 167.637 583.907 168.413 586.495 168.696C589.209 168.993 591.411 168.676 593.101 167.745C594.838 166.777 595.809 165.359 596.013 163.493C596.189 161.881 595.905 160.562 595.158 159.536C594.417 158.468 593.113 157.639 591.246 157.048L584.047 154.586C580.195 153.306 577.372 151.452 575.578 149.024C573.788 146.553 573.09 143.515 573.485 139.91ZM608.993 177.725L612.432 146.297L620.194 147.146L616.755 178.575L608.993 177.725ZM616.939 140.416C615.624 140.272 614.549 139.704 613.713 138.711C612.924 137.681 612.602 136.508 612.746 135.193C612.89 133.878 613.456 132.824 614.444 132.031C615.475 131.243 616.647 130.92 617.962 131.064C619.277 131.208 620.331 131.774 621.124 132.762C621.96 133.755 622.306 134.909 622.162 136.224C622.018 137.538 621.428 138.611 620.393 139.442C619.405 140.235 618.253 140.56 616.939 140.416Z" fill="white" fill-opacity="0.4"/>
<rect x="15.043" y="923" width="118" height="118" rx="5" transform="rotate(7.32413 15.043 923)" fill="#06B92D" fill-opacity="0.4"/>
<path d="M39.9698 1010.7L31.5907 1009.62L54.313 965.376L62.6286 966.445L73.4226 1015L64.8531 1013.9L62.4867 1002.69L45.1573 1000.46L39.9698 1010.7ZM55.6448 979.614L48.3871 993.91L61.0192 995.533L57.6126 979.867C57.5249 979.211 57.416 978.551 57.286 977.889C57.156 977.227 57.0998 976.661 57.1173 976.19C56.9783 976.602 56.7594 977.133 56.4608 977.783C56.21 978.396 55.9379 979.007 55.6448 979.614ZM85.9064 1016.61L78.2256 1015.62L84.2958 968.391L91.9766 969.378L85.9064 1016.61Z" fill="white" fill-opacity="0.4"/>
<path d="M23.3202 936.044L19.5115 935.555L19.8632 932.817L26.576 933.68L24.3407 951.081L21.4366 950.708L23.3202 936.044ZM40.5572 937.944L33.5297 942.921L31.7106 941.26L38.5231 936.449L37.8098 937.857L29.4783 936.787L29.8238 934.097L40.8691 935.516L40.5572 937.944ZM33.5754 943.508L31.4568 943.236L31.7106 941.26C32.0427 941.06 32.4598 940.953 32.962 940.937C33.4661 940.905 33.9325 940.916 34.361 940.971C35.1862 941.077 35.9554 941.305 36.6687 941.655C37.3819 942.004 37.9926 942.462 38.5007 943.027C39.0267 943.579 39.4105 944.233 39.652 944.99C39.8956 945.731 39.9593 946.554 39.8431 947.458C39.6902 948.649 39.28 949.644 38.6124 950.446C37.9448 951.247 37.0965 951.824 36.0673 952.176C35.0539 952.53 33.9601 952.631 32.7857 952.48C31.6431 952.333 30.6401 951.979 29.7768 951.416C28.9313 950.84 28.2949 950.08 27.8674 949.138C27.4559 948.198 27.3306 947.101 27.4916 945.848L30.491 946.233C30.3626 947.233 30.5404 948.046 31.0245 948.673C31.5265 949.286 32.2456 949.652 33.1819 949.773C34.1341 949.895 34.9325 949.707 35.5772 949.209C36.2398 948.697 36.6323 947.965 36.7546 947.013C36.8667 946.14 36.6659 945.381 36.1521 944.734C35.6404 944.071 34.7815 943.663 33.5754 943.508Z" fill="#FFFEFE" fill-opacity="0.4"/>
<rect x="80.1326" y="405" width="118" height="118" rx="5" transform="rotate(21.4402 80.1326 405)" fill="#0080FF" fill-opacity="0.3"/>
<path d="M85.4744 418.415L97.2028 423.02L96.1678 425.656L84.4394 421.051L85.4744 418.415ZM94.4952 423.349L96.1678 425.656L84.871 437.026L81.8999 435.859L94.4952 423.349Z" fill="#FFFEFE" fill-opacity="0.4"/>
<path d="M94.2892 500.935L86.7832 497.988L103.884 454.441L111.45 457.412L120.635 500.555L118.431 499.69L131.883 465.436L139.389 468.384L122.288 511.93L114.782 508.983L105.513 465.876L107.717 466.741L94.2892 500.935Z" fill="white" fill-opacity="0.4"/>
<rect x="50" y="129.517" width="118" height="118" rx="5" transform="rotate(-8.04646 50 129.517)" fill="#FF0004" fill-opacity="0.3"/>
<path d="M60.3544 138.535L56.5522 139.073L56.1657 136.34L62.867 135.392L65.3238 152.763L62.4247 153.173L60.3544 138.535ZM80.4207 150.604L68.376 152.332L68.0533 150.05L73.0539 144.447C73.5706 143.873 73.9979 143.352 74.3357 142.884C74.6893 142.414 74.9592 141.98 75.1453 141.582C75.3314 141.184 75.4541 140.795 75.5135 140.415C75.5728 140.035 75.5723 139.631 75.5118 139.203C75.3729 138.221 75.0118 137.496 74.4287 137.029C73.8456 136.562 73.0946 136.394 72.1757 136.524C71.2252 136.658 70.5175 137.081 70.0526 137.794C69.5878 138.506 69.4258 139.417 69.5668 140.529L66.5489 140.955C66.3854 139.686 66.4911 138.548 66.8659 137.541C67.2384 136.519 67.8482 135.69 68.6954 135.053C69.5403 134.4 70.5727 133.987 71.7926 133.815C73.0283 133.64 74.1222 133.72 75.0743 134.053C76.0401 134.369 76.8279 134.912 77.4378 135.683C78.0476 136.453 78.4355 137.424 78.6013 138.596C78.6864 139.198 78.6811 139.789 78.5852 140.368C78.503 140.929 78.3325 141.495 78.0737 142.064C77.8127 142.618 77.4737 143.192 77.0565 143.784C76.6393 144.376 76.1384 145.004 75.5536 145.669L71.8346 149.879L70.6104 149.107L80.0207 147.776L80.4207 150.604Z" fill="#FFFEFE" fill-opacity="0.4"/>
<path d="M88.9695 210.04L81.1116 211.151L74.563 164.828L82.4208 163.717L102.59 198.484L112.331 159.488L120.316 158.36L126.865 204.683L119.007 205.794L116.991 191.536C116.663 189.212 116.388 187.269 116.167 185.706C115.94 184.1 115.77 182.745 115.657 181.641C115.544 180.536 115.449 179.559 115.372 178.708C115.294 177.857 115.259 177 115.267 176.137L107.664 207.397L100.186 208.454L84.2879 180.581C84.6962 181.946 85.0738 183.702 85.4206 185.851C85.8097 187.993 86.2103 190.522 86.6223 193.437L88.9695 210.04ZM131.891 187.296C131.461 184.254 131.691 181.464 132.582 178.925C133.509 176.338 134.993 174.189 137.035 172.478C139.077 170.768 141.577 169.703 144.534 169.285C147.196 168.909 149.561 169.178 151.629 170.092C153.691 170.964 155.249 172.381 156.302 174.344L155.577 175.157L155.315 168.731L162.476 167.718L166.677 197.439C167.167 200.903 166.915 203.998 165.921 206.724C164.976 209.486 163.374 211.716 161.115 213.415C158.904 215.149 156.087 216.258 152.665 216.742C148.187 217.375 144.341 216.691 141.128 214.689C137.915 212.687 135.759 209.631 134.661 205.52L142.392 204.427C142.932 206.419 144.001 207.884 145.599 208.821C147.239 209.753 149.263 210.049 151.671 209.708C154.332 209.332 156.334 208.252 157.676 206.468C159.067 204.72 159.577 202.536 159.206 199.917L158.105 192.122L159.108 192.821C158.628 194.914 157.458 196.695 155.598 198.165C153.737 199.634 151.476 200.557 148.814 200.934C145.857 201.352 143.185 201.04 140.797 199.999C138.409 198.957 136.435 197.34 134.875 195.148C133.316 192.955 132.321 190.338 131.891 187.296ZM139.659 186.004C139.909 187.779 140.471 189.315 141.344 190.614C142.254 191.864 143.399 192.801 144.78 193.424C146.16 194.048 147.696 194.24 149.386 194.001C151.16 193.751 152.627 193.155 153.787 192.216C154.983 191.228 155.824 190.01 156.309 188.563C156.83 187.067 156.962 185.411 156.705 183.594C156.448 181.778 155.889 180.262 155.028 179.048C154.161 177.792 153.019 176.876 151.602 176.301C150.227 175.72 148.631 175.557 146.815 175.814C145.083 176.059 143.64 176.672 142.486 177.654C141.326 178.594 140.503 179.787 140.019 181.235C139.534 182.682 139.414 184.272 139.659 186.004Z" fill="white" fill-opacity="0.4"/>
<rect x="203.043" y="526" width="118" height="118" rx="5" transform="rotate(7.32413 203.043 526)" fill="#5900FF" fill-opacity="0.3"/>
<path d="M217.985 554.781L205.914 553.255L206.207 550.97L212.514 546.892C213.164 546.475 213.714 546.086 214.164 545.725C214.63 545.365 215.005 545.018 215.29 544.684C215.575 544.349 215.796 544.007 215.954 543.656C216.112 543.305 216.219 542.916 216.274 542.487C216.4 541.503 216.244 540.709 215.806 540.104C215.367 539.499 214.688 539.138 213.767 539.02C212.815 538.897 212.021 539.118 211.384 539.681C210.747 540.245 210.349 541.081 210.19 542.19L207.167 541.801C207.346 540.534 207.75 539.464 208.378 538.593C209.008 537.706 209.816 537.068 210.801 536.679C211.789 536.273 212.894 536.149 214.116 536.306C215.354 536.465 216.387 536.832 217.217 537.406C218.064 537.966 218.68 538.699 219.064 539.603C219.448 540.507 219.565 541.547 219.414 542.721C219.336 543.324 219.175 543.892 218.929 544.425C218.701 544.944 218.386 545.444 217.986 545.925C217.587 546.39 217.108 546.853 216.549 547.314C215.99 547.774 215.34 548.247 214.6 548.733L209.898 551.807L208.923 550.738L218.349 551.949L217.985 554.781ZM230.753 551.243L226.335 555.878L222.859 555.432L228.604 549.515L229.341 549.804C228.953 550.06 228.485 550.25 227.937 550.373C227.407 550.483 226.896 550.506 226.404 550.443C225.213 550.29 224.199 549.901 223.359 549.277C222.522 548.637 221.908 547.833 221.516 546.863C221.126 545.877 221.007 544.797 221.158 543.623C221.317 542.385 221.735 541.326 222.413 540.445C223.107 539.566 223.971 538.927 225.006 538.528C226.06 538.114 227.205 537.987 228.443 538.146C229.697 538.307 230.779 538.737 231.689 539.434C232.618 540.118 233.306 540.973 233.755 541.999C234.204 543.024 234.352 544.132 234.2 545.322C234.11 546.02 233.938 546.668 233.684 547.264C233.43 547.861 233.069 548.476 232.6 549.109C232.134 549.727 231.518 550.438 230.753 551.243ZM231.084 544.898C231.176 544.184 231.114 543.538 230.897 542.962C230.681 542.386 230.33 541.913 229.845 541.545C229.36 541.176 228.777 540.948 228.094 540.86C227.428 540.774 226.813 540.849 226.251 541.083C225.704 541.319 225.254 541.689 224.899 542.192C224.544 542.695 224.32 543.303 224.229 544.017C224.139 544.715 224.202 545.353 224.419 545.929C224.637 546.489 224.981 546.953 225.45 547.32C225.935 547.688 226.51 547.916 227.177 548.001C227.875 548.091 228.498 548.018 229.044 547.781C229.607 547.547 230.064 547.187 230.417 546.7C230.772 546.197 230.995 545.596 231.084 544.898Z" fill="#FFFEFE" fill-opacity="0.4"/>
<path d="M232.551 615.479C228.023 614.897 224.212 613.417 221.119 611.041C218.074 608.628 215.849 605.524 214.444 601.73C213.086 597.899 212.721 593.55 213.346 588.684C213.966 583.859 215.438 579.768 217.763 576.411C220.129 573.058 223.154 570.608 226.838 569.06C230.521 567.511 234.606 567.025 239.092 567.602C242.773 568.075 245.987 569.176 248.733 570.906C251.479 572.635 253.646 574.85 255.235 577.549C256.83 580.206 257.666 583.239 257.744 586.647L249.174 585.546C248.719 582.734 247.485 580.446 245.475 578.682C243.513 576.881 240.966 575.779 237.834 575.377C235.041 575.018 232.502 575.358 230.218 576.398C227.976 577.444 226.128 579.099 224.676 581.364C223.223 583.63 222.282 586.434 221.852 589.777C221.439 592.993 221.646 595.902 222.473 598.503C223.305 601.062 224.671 603.152 226.571 604.773C228.518 606.357 230.888 607.328 233.681 607.687C236.855 608.095 239.662 607.681 242.1 606.446C244.581 605.217 246.369 603.36 247.462 600.876L255.905 601.962C254.899 605.102 253.244 607.771 250.939 609.97C248.677 612.174 245.957 613.76 242.778 614.728C239.642 615.702 236.233 615.952 232.551 615.479ZM285.353 589.615L293.098 590.61L289.067 621.968L281.894 621.046L281.861 616.783C280.74 618.145 279.188 619.172 277.207 619.863C275.225 620.555 273.176 620.765 271.06 620.493C267.463 620.03 264.796 618.526 263.058 615.98C261.321 613.434 260.697 610.256 261.186 606.447L263.707 586.833L271.452 587.828L269.281 604.713C268.901 607.676 269.197 609.886 270.171 611.345C271.145 612.804 272.711 613.672 274.87 613.949C277.324 614.265 279.236 613.779 280.606 612.492C281.981 611.164 282.859 609.018 283.24 606.056L285.353 589.615Z" fill="white" fill-opacity="0.4"/>
<rect x="908" y="177.517" width="118" height="118" rx="5" transform="rotate(-8.04646 908 177.517)" fill="#06A79A" fill-opacity="0.3"/>
<path d="M925.95 200.809L913.905 202.537L913.583 200.256L918.583 194.652C919.1 194.078 919.527 193.557 919.865 193.089C920.219 192.619 920.489 192.185 920.675 191.787C920.861 191.389 920.984 191 921.043 190.62C921.102 190.24 921.102 189.836 921.041 189.408C920.902 188.426 920.541 187.701 919.958 187.235C919.375 186.768 918.624 186.599 917.705 186.729C916.755 186.863 916.047 187.287 915.582 187.999C915.117 188.711 914.955 189.623 915.096 190.734L912.078 191.161C911.915 189.891 912.021 188.753 912.395 187.747C912.768 186.724 913.378 185.895 914.225 185.258C915.07 184.605 916.102 184.193 917.322 184.02C918.558 183.845 919.652 183.925 920.604 184.259C921.57 184.575 922.357 185.118 922.967 185.888C923.577 186.658 923.965 187.629 924.131 188.802C924.216 189.404 924.211 189.994 924.115 190.573C924.032 191.134 923.862 191.7 923.603 192.27C923.342 192.824 923.003 193.397 922.586 193.989C922.169 194.581 921.668 195.21 921.083 195.874L917.364 200.084L916.14 199.312L925.55 197.981L925.95 200.809ZM933.671 200.032C932.467 200.203 931.372 200.115 930.386 199.77C929.413 199.406 928.612 198.825 927.982 198.025C927.365 197.208 926.974 196.213 926.808 195.04L929.802 194.617C929.941 195.599 930.327 196.328 930.96 196.804C931.593 197.28 932.393 197.45 933.359 197.313C934.04 197.217 934.607 196.999 935.06 196.661C935.527 196.304 935.858 195.845 936.053 195.284C936.265 194.721 936.321 194.091 936.222 193.394C936.128 192.728 935.911 192.161 935.57 191.692C935.242 191.205 934.813 190.854 934.281 190.638C933.75 190.423 933.136 190.364 932.439 190.463C931.773 190.557 931.177 190.795 930.649 191.176C930.135 191.54 929.752 191.974 929.5 192.478L926.734 192.287L927.585 182.884L936.639 181.603L937.036 184.407L929.384 185.489L930.271 184.394L929.652 190.129L928.691 190.702C928.968 189.919 929.46 189.284 930.167 188.796C930.887 188.29 931.73 187.969 932.697 187.833C933.853 187.669 934.894 187.772 935.819 188.142C936.76 188.51 937.529 189.096 938.128 189.9C938.74 190.686 939.127 191.65 939.288 192.79C939.465 194.042 939.344 195.182 938.923 196.211C938.519 197.238 937.864 198.09 936.958 198.768C936.066 199.427 934.97 199.849 933.671 200.032Z" fill="#FFFEFE" fill-opacity="0.4"/>
<path d="M995.001 205.398L970.274 248.58L968.563 236.476L985.432 206.75L995.001 205.398ZM966.674 209.402L973.223 255.725L965.112 256.872L958.563 210.549L966.674 209.402ZM977.707 234.408L981.918 226.703L1001.74 251.694L992.361 253.02L977.707 234.408Z" fill="white" fill-opacity="0.4"/>
<rect x="892" y="706.315" width="118" height="118" rx="5" transform="rotate(-12.3885 892 706.315)" fill="#0080FF" fill-opacity="0.3"/>
<path d="M904.192 715.803L900.441 716.627L899.849 713.931L906.459 712.479L910.224 729.614L907.365 730.242L904.192 715.803ZM908.762 711.973L921.068 709.269L921.676 712.035L909.37 714.739L908.762 711.973ZM919.002 711.05L921.676 712.035L918.622 727.769L915.504 728.454L919.002 711.05Z" fill="#FFFEFE" fill-opacity="0.4"/>
<path d="M960.016 778.257C955.557 779.236 951.471 779.129 947.758 777.935C944.077 776.691 940.936 774.52 938.333 771.422C935.763 768.273 933.952 764.303 932.899 759.51C931.856 754.759 931.862 750.412 932.917 746.467C934.014 742.512 936.036 739.185 938.981 736.485C941.926 733.785 945.608 731.95 950.025 730.98C953.651 730.183 957.048 730.136 960.216 730.838C963.384 731.54 966.172 732.894 968.578 734.899C970.975 736.862 972.785 739.435 974.008 742.617L965.569 744.471C964.192 741.978 962.259 740.24 959.772 739.257C957.317 738.224 954.548 738.046 951.464 738.723C948.713 739.327 946.438 740.504 944.638 742.254C942.88 743.994 941.699 746.176 941.096 748.798C940.492 751.421 940.552 754.378 941.275 757.67C941.971 760.837 943.147 763.506 944.803 765.676C946.45 767.804 948.441 769.311 950.776 770.196C953.143 771.03 955.702 771.145 958.453 770.541C961.578 769.854 964.08 768.518 965.96 766.533C967.88 764.538 968.937 762.188 969.128 759.481L977.442 757.655C977.554 760.95 976.897 764.021 975.469 766.869C974.083 769.707 972.057 772.118 969.391 774.101C966.767 776.075 963.642 777.461 960.016 778.257ZM994.226 769.956L986.663 771.618L976.447 725.11L984.011 723.449L994.226 769.956Z" fill="white" fill-opacity="0.4"/>
<rect x="614.452" y="833" width="118" height="118" rx="5" transform="rotate(19.5321 614.452 833)" fill="#FF0091" fill-opacity="0.3"/>
<path d="M620.791 865.346C619.645 864.94 618.715 864.355 618.001 863.593C617.307 862.82 616.866 861.934 616.677 860.933C616.509 859.923 616.623 858.86 617.019 857.744L619.869 858.755C619.538 859.69 619.542 860.515 619.883 861.23C620.223 861.945 620.854 862.465 621.773 862.792C622.422 863.022 623.025 863.091 623.584 863.001C624.162 862.9 624.668 862.647 625.101 862.24C625.549 861.839 625.891 861.306 626.126 860.643C626.351 860.01 626.42 859.406 626.335 858.833C626.27 858.249 626.052 857.739 625.681 857.302C625.31 856.865 624.793 856.529 624.129 856.293C623.496 856.069 622.857 856.003 622.212 856.097C621.588 856.181 621.048 856.389 620.591 856.719L618.228 855.27L623.336 847.328L631.954 850.385L631.007 853.054L623.724 850.471L625.018 849.911L621.814 854.708L620.697 854.77C621.305 854.205 622.035 853.87 622.887 853.765C623.76 853.65 624.656 853.755 625.576 854.081C626.676 854.472 627.551 855.045 628.2 855.802C628.863 856.563 629.274 857.439 629.432 858.429C629.611 859.409 629.508 860.442 629.123 861.527C628.7 862.719 628.065 863.673 627.216 864.391C626.382 865.114 625.407 865.566 624.29 865.747C623.194 865.918 622.028 865.785 620.791 865.346ZM645.404 855.155L639.539 871.69L636.803 870.719L642.667 854.184L645.404 855.155ZM630.424 862.066L641.762 853.864L644.816 854.947L633.301 863.289L630.424 862.066ZM642.668 869.26L629.526 864.599L630.424 862.066L643.566 866.727L642.668 869.26Z" fill="#FFFEFE" fill-opacity="0.4"/>
<path d="M632.442 903.946L625.616 876.671L634.784 879.923L637.328 889.789C637.756 891.39 638.11 893.009 638.389 894.647C638.722 896.26 639.047 897.96 639.364 899.747L655.353 887.22L664.34 890.408L642.114 907.31L648.759 934.521L639.651 931.29L637.294 922.237C636.816 920.393 636.425 918.624 636.12 916.931C635.815 915.239 635.478 913.444 635.11 911.548L618.721 923.865L609.673 920.655L632.442 903.946ZM664.494 940.986C661.558 939.944 659.18 938.354 657.359 936.214C655.592 934.048 654.479 931.57 654.019 928.782C653.574 925.953 653.894 923.01 654.978 919.954C656.076 916.858 657.669 914.344 659.758 912.414C661.846 910.484 664.251 909.255 666.974 908.727C669.711 908.158 672.527 908.388 675.422 909.415C678.438 910.485 680.803 912.048 682.518 914.105C684.247 916.122 685.295 918.463 685.663 921.129C686.07 923.808 685.718 926.717 684.605 929.853L683.813 932.085L658.217 923.073L660.007 918.411L678.163 924.851C678.89 922.801 678.811 920.917 677.927 919.199C677.082 917.496 675.554 916.252 673.342 915.468C671.613 914.854 670.017 914.696 668.554 914.991C667.131 915.302 665.861 916.073 664.745 917.307C663.628 918.541 662.699 920.203 661.957 922.294C660.816 925.511 660.636 928.186 661.419 930.32C662.241 932.468 664.02 934.027 666.754 934.997C668.765 935.71 670.549 935.913 672.107 935.605C673.705 935.312 674.954 934.533 675.856 933.268L682.671 935.686C680.873 938.715 678.358 940.698 675.129 941.635C671.939 942.586 668.394 942.37 664.494 940.986Z" fill="white" fill-opacity="0.4"/>
<rect x="80" y="786.517" width="118" height="118" rx="5" transform="rotate(-8.04646 80 786.517)" fill="#FF0004" fill-opacity="0.3"/>
<path d="M100.952 808.943L88.9077 810.671L88.585 808.389L93.5856 802.786C94.1023 802.212 94.5296 801.691 94.8674 801.223C95.221 800.753 95.4909 800.319 95.677 799.921C95.8631 799.523 95.9858 799.134 96.0452 798.754C96.1046 798.374 96.104 797.97 96.0435 797.542C95.9046 796.56 95.5436 795.835 94.9604 795.368C94.3773 794.901 93.6263 794.733 92.7074 794.863C91.7569 794.997 91.0492 795.421 90.5843 796.133C90.1195 796.845 89.9575 797.756 90.0985 798.868L87.0806 799.294C86.9172 798.025 87.0229 796.887 87.3976 795.88C87.7701 794.858 88.38 794.029 89.2271 793.392C90.072 792.739 91.1044 792.326 92.3243 792.154C93.56 791.979 94.6539 792.059 95.6061 792.393C96.5718 792.708 97.3596 793.251 97.9695 794.022C98.5794 794.792 98.9672 795.763 99.133 796.935C99.2181 797.537 99.2128 798.128 99.1169 798.707C99.0347 799.268 98.8642 799.834 98.6054 800.403C98.3445 800.957 98.0054 801.531 97.5882 802.123C97.171 802.715 96.6701 803.343 96.0854 804.008L92.3663 808.218L91.1421 807.446L100.552 806.115L100.952 808.943ZM101.607 800.052C101.351 798.246 101.429 796.627 101.841 795.195C102.268 793.761 102.975 792.587 103.96 791.672C104.959 790.738 106.196 790.168 107.669 789.959C109.158 789.749 110.504 789.954 111.707 790.576C112.924 791.18 113.928 792.112 114.721 793.373C115.529 794.633 116.061 796.165 116.316 797.971C116.569 799.762 116.498 801.371 116.102 802.801C115.707 804.23 115.015 805.395 114.027 806.294C113.039 807.193 111.769 807.752 110.217 807.972C108.696 808.187 107.328 808.001 106.114 807.413C104.915 806.823 103.928 805.896 103.151 804.633C102.375 803.369 101.86 801.842 101.607 800.052ZM104.601 799.628C104.789 800.959 105.125 802.075 105.608 802.976C106.088 803.862 106.688 804.504 107.407 804.903C108.124 805.287 108.934 805.415 109.837 805.287C110.771 805.155 111.522 804.806 112.089 804.241C112.669 803.658 113.067 802.875 113.283 801.891C113.497 800.891 113.51 799.726 113.322 798.395C113.127 797.017 112.789 795.885 112.308 794.999C111.826 794.098 111.225 793.448 110.506 793.049C109.802 792.647 108.983 792.512 108.049 792.645C107.146 792.772 106.404 793.128 105.824 793.711C105.244 794.294 104.847 795.085 104.633 796.085C104.417 797.069 104.406 798.25 104.601 799.628Z" fill="#FFFEFE" fill-opacity="0.4"/>
<path d="M134.8 867.324C130.28 867.963 126.214 867.546 122.602 866.075C119.026 864.555 116.057 862.152 113.697 858.866C111.373 855.532 109.867 851.436 109.18 846.578C108.499 841.761 108.835 837.427 110.186 833.573C111.579 829.713 113.847 826.549 116.988 824.079C120.129 821.61 123.939 820.059 128.417 819.426C132.092 818.906 135.483 819.116 138.589 820.056C141.695 820.996 144.372 822.556 146.62 824.738C148.861 826.877 150.471 829.58 151.45 832.846L142.895 834.055C141.71 831.465 139.915 829.586 137.509 828.417C135.14 827.201 132.392 826.814 129.265 827.256C126.477 827.65 124.119 828.651 122.192 830.26C120.307 831.862 118.965 833.948 118.164 836.517C117.364 839.086 117.2 842.04 117.672 845.377C118.126 848.588 119.096 851.338 120.583 853.627C122.064 855.874 123.935 857.527 126.197 858.586C128.494 859.597 131.037 859.905 133.825 859.511C136.994 859.063 139.59 857.921 141.614 856.083C143.68 854.24 144.912 851.976 145.308 849.291L153.736 848.1C153.598 851.394 152.71 854.407 151.071 857.138C149.474 859.863 147.271 862.113 144.463 863.889C141.697 865.659 138.476 866.804 134.8 867.324ZM170.868 862.289C167.573 862.755 164.828 862.238 162.634 860.739C160.476 859.191 159.191 856.959 158.779 854.044C158.373 851.172 159.043 848.75 160.79 846.779C162.573 844.761 165.302 843.341 168.978 842.519L178.25 840.433L178.151 839.736C177.948 838.3 177.512 837.198 176.844 836.43C176.211 835.615 175.382 835.086 174.357 834.843C173.325 834.558 172.155 834.508 170.845 834.693C168.564 835.015 166.876 835.728 165.783 836.831C164.683 837.891 164.249 839.245 164.482 840.893L157.892 841.824C157.569 839.543 157.862 837.498 158.77 835.689C159.714 833.832 161.176 832.289 163.157 831.061C165.18 829.827 167.586 829.013 170.374 828.619C173.205 828.219 175.706 828.382 177.877 829.11C180.042 829.795 181.814 831.052 183.193 832.883C184.567 834.671 185.459 837.022 185.871 839.937L188.559 858.948L181.778 859.907L180.554 855.361C180.105 857.062 178.98 858.557 177.18 859.846C175.423 861.128 173.319 861.943 170.868 862.289ZM172.516 856.11C174.924 855.77 176.729 854.825 177.932 853.276C179.177 851.721 179.63 849.739 179.289 847.331L179.057 845.684L172.601 847.113C170.223 847.665 168.584 848.414 167.683 849.36C166.777 850.264 166.413 851.349 166.592 852.617C166.789 854.011 167.403 855.001 168.434 855.588C169.465 856.175 170.826 856.349 172.516 856.11Z" fill="white" fill-opacity="0.4"/>
<rect x="495.136" y="355" width="118" height="118" rx="5" transform="rotate(1.03717 495.136 355)" fill="#DA6805" fill-opacity="0.4"/>
<path d="M506.944 382.172C505.728 382.151 504.661 381.891 503.741 381.395C502.838 380.882 502.139 380.181 501.643 379.292C501.163 378.388 500.934 377.343 500.955 376.159L503.979 376.214C503.961 377.206 504.227 377.987 504.777 378.557C505.326 379.127 506.089 379.421 507.065 379.438C507.753 379.451 508.347 379.325 508.848 379.062C509.365 378.784 509.765 378.383 510.046 377.86C510.344 377.337 510.499 376.724 510.511 376.02C510.523 375.348 510.398 374.754 510.135 374.237C509.889 373.704 509.52 373.289 509.03 372.993C508.539 372.696 507.942 372.541 507.238 372.528C506.566 372.516 505.939 372.657 505.358 372.95C504.793 373.228 504.346 373.596 504.018 374.054L501.317 373.43L503.642 364.278L512.784 364.443L512.733 367.274L505.007 367.135L506.056 366.194L504.539 371.759L503.5 372.173C503.897 371.444 504.483 370.894 505.258 370.524C506.049 370.138 506.932 369.954 507.908 369.972C509.076 369.993 510.087 370.259 510.942 370.771C511.813 371.282 512.48 371.983 512.944 372.871C513.425 373.744 513.655 374.756 513.634 375.908C513.611 377.172 513.311 378.279 512.734 379.228C512.173 380.178 511.391 380.916 510.39 381.442C509.404 381.953 508.256 382.196 506.944 382.172Z" fill="#FFFEFE" fill-opacity="0.4"/>
<path d="M545.652 393.09L544.805 439.866L536.615 439.718L537.461 392.941L545.652 393.09ZM555.532 420.153L542.67 419.92L542.795 413.009L555.209 413.234C557.47 413.275 559.208 412.752 560.422 411.664C561.638 410.534 562.264 408.924 562.302 406.833C562.338 404.828 561.748 403.281 560.53 402.193C559.312 401.104 557.53 400.538 555.184 400.495L542.77 400.271L542.9 393.04L556.018 393.277C560.668 393.362 564.295 394.558 566.899 396.867C569.503 399.176 570.77 402.293 570.699 406.217C570.648 409.033 569.922 411.388 568.522 413.283C567.123 415.135 565.072 416.464 562.369 417.268L562.385 416.372C565.274 417.108 567.448 418.427 568.907 420.331C570.366 422.235 571.068 424.68 571.014 427.666C570.966 430.311 570.328 432.583 569.099 434.481C567.87 436.336 566.095 437.755 563.773 438.737C561.494 439.677 558.755 440.119 555.555 440.061L542.054 439.816L542.185 432.585L555.302 432.823C557.649 432.865 559.45 432.343 560.708 431.257C561.965 430.17 562.612 428.581 562.65 426.491C562.686 424.529 562.073 423.003 560.813 421.913C559.596 420.781 557.835 420.195 555.532 420.153Z" fill="white" fill-opacity="0.4"/>
<rect x="297.043" y="191" width="118" height="118" rx="5" transform="rotate(7.32413 297.043 191)" fill="#06B92D" fill-opacity="0.4"/>
<path d="M324.123 231.838L318.159 278.24L310.034 277.196L315.998 230.793L324.123 231.838ZM330.435 263.557L318.248 261.991L319.178 254.754L329.651 256.1C332.445 256.459 334.65 256.033 336.269 254.821C337.935 253.573 338.931 251.679 339.257 249.14C339.584 246.601 339.093 244.559 337.786 243.015C336.521 241.475 334.535 240.532 331.826 240.184L320.464 238.723L321.394 231.487L334.343 233.151C337.475 233.554 340.102 234.537 342.224 236.1C344.346 237.663 345.895 239.669 346.871 242.117C347.852 244.523 348.147 247.25 347.755 250.297C347.374 253.259 346.4 255.822 344.831 257.987C343.268 260.109 341.259 261.679 338.805 262.697C336.357 263.673 333.567 263.96 330.435 263.557ZM348.128 266.089C348.547 262.831 349.633 260.067 351.388 257.797C353.147 255.485 355.386 253.794 358.105 252.724C360.824 251.654 363.791 251.326 367.007 251.739C370.266 252.158 373.054 253.226 375.371 254.943C377.731 256.666 379.469 258.868 380.587 261.55C381.711 264.19 382.063 267.139 381.644 270.397C381.225 273.656 380.136 276.441 378.376 278.753C376.622 281.022 374.385 282.692 371.667 283.762C368.991 284.838 366.023 285.166 362.765 284.747C359.548 284.334 356.761 283.266 354.401 281.543C352.041 279.82 350.3 277.639 349.176 275C348.059 272.318 347.709 269.348 348.128 266.089ZM355.872 267.085C355.627 268.989 355.793 270.709 356.37 272.246C356.989 273.788 357.903 275.046 359.112 276.018C360.362 276.997 361.877 277.6 363.654 277.828C365.431 278.057 367.049 277.856 368.506 277.226C369.964 276.596 371.166 275.611 372.113 274.27C373.059 272.929 373.655 271.306 373.9 269.402C374.15 267.455 373.984 265.735 373.402 264.24C372.825 262.703 371.911 261.446 370.66 260.468C369.409 259.49 367.895 258.886 366.118 258.658C364.341 258.43 362.723 258.63 361.266 259.26C359.85 259.896 358.648 260.881 357.659 262.217C356.718 263.515 356.122 265.138 355.872 267.085Z" fill="white" fill-opacity="0.4"/>
<path d="M300.451 213.315C300.604 212.125 301.084 211.154 301.89 210.403C302.714 209.638 303.712 209.217 304.883 209.142L304.837 209.692C303.84 209.29 303.1 208.703 302.619 207.931C302.153 207.162 301.984 206.277 302.113 205.277C302.231 204.357 302.589 203.58 303.187 202.947C303.784 202.314 304.561 201.857 305.516 201.577C306.488 201.298 307.568 201.236 308.759 201.388C309.949 201.541 310.963 201.873 311.801 202.384C312.656 202.881 313.284 203.518 313.684 204.296C314.102 205.059 314.25 205.917 314.128 206.869C314 207.869 313.605 208.681 312.944 209.306C312.285 209.915 311.424 210.272 310.362 210.378L310.403 209.875C311.166 210.086 311.813 210.451 312.343 210.971C312.875 211.475 313.258 212.073 313.492 212.764C313.741 213.458 313.814 214.209 313.71 215.018C313.576 216.066 313.18 216.951 312.522 217.673C311.883 218.381 311.036 218.885 309.981 219.185C308.942 219.487 307.748 219.552 306.399 219.378C305.066 219.207 303.927 218.843 302.983 218.286C302.054 217.731 301.361 217.029 300.906 216.18C300.468 215.318 300.317 214.363 300.451 213.315ZM303.454 213.483C303.383 214.039 303.464 214.541 303.696 214.99C303.945 215.442 304.325 215.813 304.836 216.105C305.363 216.398 306.007 216.594 306.769 216.692C307.499 216.785 308.148 216.756 308.716 216.603C309.3 216.452 309.76 216.197 310.097 215.837C310.451 215.463 310.665 214.99 310.738 214.419C310.847 213.578 310.599 212.868 309.996 212.291C309.408 211.715 308.559 211.356 307.448 211.214C306.337 211.071 305.417 211.203 304.687 211.609C303.973 212.017 303.562 212.642 303.454 213.483ZM304.841 205.894C304.749 206.608 304.968 207.225 305.498 207.745C306.03 208.249 306.788 208.564 307.772 208.69C308.74 208.815 309.537 208.699 310.164 208.344C310.806 207.991 311.173 207.457 311.265 206.743C311.358 206.013 311.138 205.404 310.604 204.916C310.088 204.414 309.346 204.101 308.378 203.977C307.394 203.851 306.581 203.964 305.938 204.317C305.298 204.654 304.932 205.18 304.841 205.894ZM328.612 204.253L326.377 221.654L323.496 221.284L325.732 203.883L328.612 204.253ZM315.433 214.175L324.78 203.761L327.993 204.174L318.503 214.763L315.433 214.175ZM328.92 218.618L315.09 216.841L315.433 214.175L329.263 215.952L328.92 218.618Z" fill="#FFFEFE" fill-opacity="0.4"/>
<rect x="830.043" y="933" width="118" height="118" rx="5" transform="rotate(7.32413 830.043 933)" fill="#5900FF" fill-opacity="0.3"/>
<path d="M844.985 961.782L832.914 960.255L833.207 957.97L839.514 953.892C840.164 953.476 840.714 953.087 841.164 952.725C841.63 952.365 842.005 952.018 842.29 951.684C842.575 951.35 842.796 951.007 842.954 950.656C843.112 950.306 843.219 949.916 843.274 949.487C843.4 948.504 843.244 947.709 842.806 947.104C842.367 946.5 841.688 946.138 840.767 946.02C839.815 945.897 839.021 946.118 838.384 946.681C837.747 947.245 837.349 948.081 837.19 949.19L834.167 948.802C834.346 947.534 834.75 946.465 835.378 945.594C836.008 944.707 836.816 944.068 837.801 943.679C838.789 943.273 839.894 943.149 841.116 943.306C842.354 943.465 843.387 943.832 844.217 944.406C845.064 944.967 845.68 945.699 846.064 946.603C846.448 947.508 846.565 948.547 846.414 949.721C846.336 950.324 846.175 950.892 845.929 951.425C845.701 951.945 845.386 952.445 844.986 952.926C844.587 953.391 844.108 953.853 843.549 954.314C842.99 954.774 842.34 955.247 841.6 955.733L836.898 958.807L835.923 957.738L845.349 958.949L844.985 961.782ZM852.636 963.079C851.43 962.924 850.397 962.549 849.538 961.955C848.696 961.347 848.078 960.574 847.682 959.636C847.304 958.684 847.191 957.621 847.342 956.446L850.341 956.832C850.215 957.816 850.394 958.621 850.878 959.248C851.362 959.875 852.088 960.25 853.056 960.374C853.738 960.462 854.343 960.403 854.869 960.196C855.414 959.976 855.855 959.621 856.192 959.132C856.545 958.645 856.766 958.052 856.856 957.354C856.941 956.687 856.882 956.083 856.677 955.54C856.491 954.984 856.17 954.532 855.714 954.183C855.259 953.834 854.682 953.615 853.984 953.525C853.318 953.439 852.679 953.511 852.069 953.739C851.477 953.953 850.993 954.27 850.616 954.689L848 953.772L851.313 944.931L860.383 946.096L860.022 948.905L852.357 947.92L853.503 947.099L851.386 952.465L850.307 952.762C850.782 952.081 851.425 951.599 852.235 951.316C853.064 951.019 853.962 950.933 854.93 951.057C856.089 951.206 857.065 951.582 857.859 952.184C858.668 952.788 859.255 953.557 859.619 954.491C860.001 955.411 860.118 956.442 859.972 957.585C859.811 958.839 859.391 959.906 858.713 960.787C858.051 961.67 857.194 962.318 856.141 962.731C855.105 963.13 853.937 963.246 852.636 963.079Z" fill="#FFFEFE" fill-opacity="0.4"/>
<path d="M843.905 1019.21L836.034 1018.2L841.998 971.794L849.87 972.805L860.102 1011.67L879.831 976.656L887.829 977.684L881.865 1024.09L873.994 1023.07L875.83 1008.79C876.129 1006.46 876.379 1004.52 876.58 1002.95C876.787 1001.34 876.982 999.993 877.166 998.898C877.35 997.803 877.517 996.835 877.668 995.994C877.819 995.153 878.013 994.318 878.248 993.488L862.631 1021.61L855.141 1020.65L847.2 989.562C847.232 990.985 847.13 992.779 846.895 994.943C846.702 997.112 846.418 999.656 846.043 1002.58L843.905 1019.21ZM898.737 1026.26L890.993 1025.26L895.023 993.902L902.196 994.824L902.309 998.968C903.483 997.527 905.016 996.477 906.908 995.816C908.842 995.162 910.867 994.97 912.983 995.242C916.918 995.748 919.731 997.292 921.421 999.876C923.153 1002.46 923.761 1005.77 923.244 1009.79L920.764 1029.09L913.019 1028.09L915.263 1010.63C915.6 1008.01 915.258 1005.99 914.236 1004.57C913.22 1003.1 911.696 1002.24 909.665 1001.98C907.253 1001.67 905.272 1002.19 903.722 1003.54C902.172 1004.89 901.233 1006.83 900.907 1009.37L898.737 1026.26Z" fill="white" fill-opacity="0.4"/>
<rect x="644.582" y="573" width="118" height="118" rx="5" transform="rotate(26.4622 644.582 573)" fill="#5900FF" fill-opacity="0.3"/>
<path d="M649.262 605.09L638.358 599.69L639.385 597.627L646.68 595.843C647.431 595.662 648.078 595.475 648.622 595.281C649.179 595.094 649.648 594.889 650.027 594.666C650.405 594.444 650.727 594.193 650.991 593.913C651.255 593.634 651.484 593.301 651.676 592.914C652.118 592.026 652.231 591.224 652.015 590.509C651.799 589.794 651.276 589.23 650.445 588.816C649.586 588.388 648.763 588.336 647.976 588.66C647.19 588.983 646.54 589.643 646.026 590.638L643.298 589.28C643.882 588.141 644.614 587.263 645.493 586.646C646.379 586.015 647.352 585.677 648.41 585.632C649.477 585.573 650.561 585.818 651.664 586.367C652.781 586.923 653.638 587.608 654.233 588.423C654.85 589.23 655.191 590.124 655.258 591.104C655.324 592.084 655.093 593.104 654.566 594.164C654.295 594.709 653.956 595.192 653.549 595.615C653.163 596.031 652.702 596.4 652.166 596.723C651.637 597.032 651.033 597.312 650.354 597.564C649.675 597.815 648.906 598.049 648.048 598.266L642.598 599.628L642.026 598.298L650.535 602.533L649.262 605.09ZM653.138 601.496C653.673 600.422 654.444 599.662 655.452 599.216C656.482 598.764 657.562 598.694 658.693 599.006L658.469 599.511C657.659 598.804 657.153 598.008 656.951 597.121C656.763 596.241 656.894 595.35 657.343 594.447C657.757 593.617 658.35 593 659.122 592.598C659.894 592.196 660.777 592.019 661.772 592.067C662.781 592.122 663.822 592.417 664.897 592.952C665.971 593.487 666.82 594.133 667.444 594.89C668.089 595.64 668.474 596.448 668.597 597.314C668.742 598.172 668.6 599.031 668.172 599.89C667.723 600.793 667.084 601.431 666.255 601.804C665.433 602.164 664.503 602.219 663.465 601.971L663.668 601.509C664.32 601.958 664.811 602.515 665.141 603.18C665.479 603.831 665.645 604.521 665.639 605.251C665.647 605.988 665.47 606.722 665.106 607.452C664.636 608.398 663.972 609.104 663.114 609.57C662.277 610.03 661.312 610.228 660.217 610.166C659.136 610.111 657.987 609.78 656.77 609.174C655.567 608.576 654.61 607.858 653.9 607.022C653.204 606.194 652.781 605.304 652.628 604.352C652.498 603.394 652.668 602.442 653.138 601.496ZM655.92 602.639C655.671 603.141 655.582 603.642 655.655 604.143C655.742 604.65 655.979 605.126 656.366 605.569C656.767 606.019 657.312 606.415 658 606.757C658.658 607.085 659.281 607.27 659.868 607.312C660.469 607.361 660.988 607.27 661.424 607.04C661.881 606.803 662.239 606.427 662.495 605.911C662.873 605.152 662.872 604.401 662.491 603.658C662.125 602.921 661.44 602.304 660.437 601.805C659.435 601.306 658.522 601.128 657.7 601.273C656.891 601.425 656.298 601.88 655.92 602.639ZM659.718 595.924C659.397 596.569 659.402 597.223 659.732 597.888C660.07 598.539 660.683 599.085 661.571 599.527C662.445 599.962 663.236 600.114 663.944 599.984C664.666 599.861 665.188 599.477 665.509 598.833C665.837 598.174 665.828 597.526 665.484 596.89C665.16 596.247 664.562 595.708 663.688 595.273C662.8 594.831 661.995 594.671 661.272 594.794C660.557 594.903 660.039 595.28 659.718 595.924Z" fill="#FFFEFE" fill-opacity="0.4"/>
<path d="M643.045 665.852L635.826 662.258L656.673 620.376L663.95 623.998L669.323 667.78L667.203 666.724L683.602 633.78L690.821 637.373L669.974 679.256L662.754 675.662L657.295 631.91L659.415 632.965L643.045 665.852ZM678.213 683.357L692.302 655.054L699.291 658.533L685.203 686.836L678.213 683.357ZM698.563 651.093C697.378 650.503 696.566 649.598 696.125 648.378C695.741 647.138 695.844 645.926 696.433 644.742C697.023 643.558 697.918 642.765 699.119 642.362C700.359 641.978 701.571 642.081 702.755 642.67C703.939 643.26 704.732 644.155 705.135 645.356C705.576 646.577 705.502 647.779 704.913 648.963C704.323 650.147 703.399 650.95 702.141 651.372C700.939 651.775 699.747 651.682 698.563 651.093Z" fill="white" fill-opacity="0.4"/>
<rect x="386" y="943.315" width="118" height="118" rx="5" transform="rotate(-22.0586 386 943.315)" fill="#0080FF" fill-opacity="0.3"/>
<path d="M404.305 950.241L400.746 951.684L399.709 949.126L405.982 946.584L412.572 962.843L409.858 963.943L404.305 950.241Z" fill="#FFFEFE" fill-opacity="0.4"/>
<path d="M462.424 1003.11L454.831 1006.19L437.261 962.83L444.854 959.754L452.136 977.726L471.355 969.939L464.072 951.966L471.664 948.89L489.234 992.249L481.642 995.326L474.191 976.938L454.973 984.726L462.424 1003.11Z" fill="white" fill-opacity="0.4"/>
<rect x="713" y="25.3406" width="118" height="118" rx="5" transform="rotate(-12.4009 713 25.3406)" fill="#0080FF" fill-opacity="0.3"/>
<path d="M729.884 35.2394L726.133 36.0643L725.54 33.3687L732.15 31.9148L735.919 49.0492L733.059 49.6782L729.884 35.2394ZM738.637 35.7714L741.232 29.9173L744.654 29.1646L741.243 36.6726L740.452 36.65C740.727 36.2619 741.096 35.9269 741.558 35.645C742.036 35.3597 742.517 35.1637 743.001 35.0572C744.173 34.7994 745.261 34.8304 746.265 35.1502C747.266 35.4543 748.116 36.0045 748.816 36.8009C749.511 37.5816 749.987 38.5501 750.241 39.7065C750.509 40.9254 750.465 42.0654 750.109 43.1268C749.765 44.169 749.166 45.0624 748.314 45.8068C747.478 46.5477 746.451 47.0523 745.232 47.3204C743.997 47.5919 742.828 47.5625 741.723 47.2321C740.634 46.8982 739.705 46.3244 738.936 45.5106C738.164 44.6811 737.649 43.6803 737.391 42.5084C737.236 41.8052 737.172 41.1395 737.197 40.5113C737.235 39.8641 737.368 39.1632 737.595 38.4088C737.838 37.6509 738.185 36.7718 738.637 35.7714ZM740.467 41.8564C740.621 42.5596 740.898 43.1459 741.296 43.6153C741.71 44.0813 742.199 44.4078 742.765 44.5947C743.346 44.7782 743.972 44.796 744.644 44.6482C745.3 44.5039 745.846 44.2282 746.28 43.8214C746.715 43.4145 747.015 42.9144 747.179 42.3213C747.359 41.7247 747.372 41.0748 747.217 40.3716C747.066 39.684 746.785 39.115 746.375 38.6647C745.977 38.1952 745.495 37.8671 744.93 37.6802C744.364 37.4932 743.754 37.472 743.097 37.6163C742.425 37.7641 741.864 38.0432 741.414 38.4535C740.963 38.8638 740.656 39.3656 740.492 39.9588C740.324 40.5363 740.315 41.1688 740.467 41.8564Z" fill="#FFFEFE" fill-opacity="0.4"/>
<path d="M767.071 65.5685C766.484 62.9016 766.654 60.3959 767.58 58.0517C768.507 55.7074 770.054 53.707 772.224 52.0505C774.426 50.3431 777.131 49.1366 780.34 48.4311C783.424 47.7531 786.21 47.7084 788.698 48.297C791.228 48.8765 793.338 50.029 795.028 51.7543C796.76 53.4705 797.97 55.6946 798.658 58.4265L790.657 60.1858C790.143 58.2455 789.1 56.8803 787.528 56.0901C785.948 55.2581 784.032 55.0896 781.782 55.5844C779.323 56.125 777.468 57.1227 776.215 58.5777C774.994 59.9819 774.595 61.6424 775.017 63.5593C775.374 65.1844 776.096 66.38 777.181 67.1461C778.3 67.8612 779.868 68.2373 781.885 68.2742L789.431 68.3188C793.531 68.2909 796.764 69.0872 799.13 70.7076C801.487 72.2864 803.041 74.7842 803.792 78.2013C804.406 80.9933 804.259 83.603 803.351 86.0306C802.444 88.4582 800.847 90.5349 798.562 92.2606C796.309 93.9355 793.495 95.144 790.119 95.8862C786.91 96.5917 783.979 96.6685 781.323 96.1165C778.659 95.5228 776.419 94.377 774.604 92.6792C772.831 90.9721 771.605 88.7735 770.926 86.0832L778.927 84.3239C779.39 86.2317 780.475 87.5877 782.181 88.3922C783.919 89.1458 786.059 89.2431 788.601 88.6842C791.268 88.0978 793.253 87.0933 794.557 85.6709C795.893 84.1975 796.36 82.5441 795.956 80.7106C795.608 79.1271 794.917 77.9686 793.882 77.2351C792.837 76.4599 791.337 76.0909 789.379 76.1282L781.771 76.0973C777.712 76.116 774.444 75.2618 771.968 73.5347C769.482 71.766 767.85 69.1106 767.071 65.5685Z" fill="white" fill-opacity="0.4"/>
<rect x="640" y="318.316" width="118" height="118" rx="5" transform="rotate(-12.3885 640 318.316)" fill="#FF0091" fill-opacity="0.3"/>
<path d="M656.882 328.218L653.131 329.042L652.539 326.346L659.149 324.894L662.914 342.029L660.054 342.657L656.882 328.218ZM664.605 336.571C664.347 335.399 664.471 334.323 664.977 333.344C665.495 332.346 666.292 331.613 667.369 331.147L667.511 331.681C666.437 331.639 665.543 331.336 664.829 330.772C664.131 330.204 663.674 329.428 663.458 328.444C663.259 327.538 663.333 326.686 663.682 325.888C664.031 325.091 664.608 324.399 665.413 323.812C666.234 323.222 667.23 322.799 668.402 322.541C669.574 322.284 670.641 322.254 671.602 322.453C672.575 322.632 673.381 323.02 674.02 323.617C674.671 324.194 675.1 324.952 675.306 325.89C675.522 326.874 675.424 327.772 675.013 328.583C674.598 329.379 673.908 330.005 672.944 330.463L672.812 329.976C673.602 329.917 674.334 330.043 675.009 330.353C675.68 330.648 676.242 331.082 676.695 331.654C677.164 332.222 677.486 332.905 677.661 333.702C677.888 334.734 677.813 335.7 677.438 336.602C677.075 337.484 676.448 338.244 675.556 338.883C674.68 339.518 673.577 339.981 672.249 340.273C670.936 340.561 669.741 340.603 668.664 340.397C667.603 340.188 666.714 339.761 665.999 339.115C665.296 338.451 664.831 337.603 664.605 336.571ZM667.488 335.716C667.609 336.263 667.854 336.709 668.224 337.054C668.611 337.395 669.093 337.616 669.673 337.718C670.268 337.817 670.94 337.784 671.691 337.619C672.409 337.461 673.01 337.214 673.494 336.879C673.993 336.54 674.34 336.144 674.535 335.691C674.743 335.22 674.785 334.703 674.661 334.14C674.479 333.312 674.007 332.728 673.244 332.388C672.497 332.044 671.576 331.992 670.482 332.233C669.389 332.473 668.567 332.907 668.017 333.536C667.482 334.161 667.306 334.888 667.488 335.716ZM666.233 328.104C666.388 328.808 666.802 329.314 667.477 329.625C668.148 329.92 668.968 329.961 669.936 329.748C670.89 329.538 671.601 329.161 672.071 328.615C672.557 328.066 672.722 327.44 672.568 326.737C672.41 326.018 671.997 325.519 671.329 325.24C670.674 324.942 669.87 324.897 668.917 325.107C667.948 325.319 667.221 325.7 666.735 326.249C666.246 326.783 666.079 327.401 666.233 328.104Z" fill="#FFFEFE" fill-opacity="0.4"/>
<path d="M690.168 393.513L681.916 395.325L688.382 346.005L696.571 344.207L723.11 386.277L714.671 388.13L708.663 378.376L691.598 382.125L690.168 393.513ZM694.438 358.96L692.428 374.865L704.867 372.133L696.376 358.534C696.072 357.946 695.747 357.362 695.401 356.782C695.056 356.203 694.812 355.689 694.669 355.24C694.678 355.675 694.651 356.248 694.589 356.961C694.559 357.623 694.509 358.289 694.438 358.96ZM740.283 350.004L741.834 357.067L739.021 357.685C736.229 358.299 734.206 359.529 732.952 361.377C731.689 363.184 731.387 365.587 732.046 368.588L735.341 383.59L727.715 385.265L720.946 354.448L728.134 352.869L730.16 359.107L729.41 359.272C729.378 357.139 729.991 355.257 731.25 353.626C732.508 351.996 734.366 350.91 736.825 350.37C737.367 350.251 737.913 350.153 738.464 350.076C739.015 349.998 739.621 349.974 740.283 350.004Z" fill="white" fill-opacity="0.4"/>
<rect x="432" y="663.517" width="118" height="118" rx="5" transform="rotate(-8.04646 432 663.517)" fill="#FF0004" fill-opacity="0.3"/>
<path d="M440.117 682.765C439.949 681.577 440.154 680.514 440.732 679.575C441.324 678.619 442.175 677.949 443.284 677.566L443.385 678.11C442.317 677.986 441.449 677.616 440.78 676.999C440.127 676.381 439.73 675.572 439.589 674.574C439.459 673.655 439.598 672.812 440.006 672.043C440.415 671.274 441.042 670.628 441.889 670.104C442.752 669.578 443.778 669.231 444.966 669.063C446.154 668.895 447.22 668.946 448.163 669.217C449.12 669.469 449.894 669.917 450.486 670.561C451.092 671.186 451.462 671.974 451.596 672.925C451.737 673.923 451.572 674.811 451.1 675.588C450.626 676.35 449.891 676.923 448.895 677.306L448.801 676.81C449.593 676.811 450.313 676.992 450.962 677.353C451.609 677.698 452.136 678.173 452.545 678.777C452.97 679.38 453.239 680.085 453.353 680.893C453.501 681.939 453.354 682.897 452.911 683.767C452.482 684.62 451.799 685.33 450.862 685.899C449.94 686.466 448.806 686.845 447.459 687.035C446.128 687.223 444.934 687.174 443.875 686.887C442.833 686.599 441.979 686.105 441.315 685.407C440.664 684.691 440.265 683.811 440.117 682.765ZM443.057 682.131C443.136 682.686 443.346 683.149 443.69 683.52C444.049 683.89 444.514 684.147 445.084 684.293C445.67 684.436 446.343 684.454 447.103 684.346C447.832 684.243 448.45 684.043 448.957 683.745C449.48 683.445 449.856 683.076 450.086 682.64C450.328 682.185 450.409 681.673 450.329 681.103C450.21 680.263 449.783 679.645 449.048 679.248C448.329 678.848 447.415 678.727 446.306 678.884C445.197 679.041 444.345 679.412 443.749 679.997C443.169 680.58 442.938 681.291 443.057 682.131ZM442.382 674.446C442.483 675.159 442.858 675.696 443.507 676.056C444.154 676.401 444.968 676.504 445.95 676.365C446.917 676.228 447.655 675.906 448.164 675.398C448.69 674.887 448.903 674.275 448.802 673.562C448.699 672.833 448.325 672.305 447.681 671.976C447.05 671.629 446.251 671.523 445.285 671.66C444.302 671.799 443.549 672.124 443.023 672.634C442.495 673.129 442.281 673.733 442.382 674.446ZM455.34 680.612C455.172 679.424 455.378 678.361 455.956 677.422C456.548 676.466 457.398 675.796 458.508 675.413L458.609 675.956C457.541 675.833 456.672 675.463 456.004 674.846C455.35 674.228 454.953 673.419 454.812 672.421C454.682 671.502 454.821 670.659 455.23 669.89C455.638 669.121 456.266 668.475 457.113 667.951C457.976 667.425 459.001 667.078 460.189 666.91C461.378 666.742 462.443 666.793 463.386 667.064C464.343 667.316 465.118 667.764 465.71 668.408C466.315 669.033 466.685 669.821 466.82 670.772C466.961 671.77 466.795 672.658 466.324 673.435C465.85 674.197 465.115 674.77 464.118 675.153L464.024 674.657C464.816 674.658 465.536 674.839 466.185 675.2C466.832 675.545 467.36 676.02 467.768 676.624C468.193 677.227 468.462 677.932 468.577 678.74C468.725 679.786 468.577 680.744 468.135 681.614C467.706 682.467 467.023 683.177 466.085 683.746C465.163 684.313 464.029 684.691 462.683 684.882C461.352 685.07 460.157 685.021 459.099 684.734C458.056 684.446 457.203 683.952 456.538 683.254C455.888 682.538 455.488 681.658 455.34 680.612ZM458.281 679.978C458.359 680.533 458.57 680.996 458.913 681.367C459.273 681.736 459.737 681.994 460.307 682.14C460.893 682.283 461.566 682.301 462.327 682.193C463.055 682.09 463.673 681.89 464.181 681.592C464.704 681.291 465.08 680.923 465.309 680.487C465.552 680.032 465.633 679.52 465.552 678.95C465.433 678.11 465.007 677.492 464.272 677.095C463.553 676.695 462.639 676.574 461.53 676.731C460.421 676.888 459.569 677.259 458.973 677.844C458.393 678.427 458.162 679.138 458.281 679.978ZM457.606 672.293C457.707 673.006 458.081 673.543 458.73 673.903C459.377 674.248 460.191 674.351 461.174 674.212C462.14 674.075 462.878 673.753 463.388 673.244C463.914 672.734 464.126 672.122 464.025 671.409C463.922 670.68 463.548 670.152 462.904 669.823C462.273 669.475 461.475 669.37 460.508 669.507C459.526 669.646 458.772 669.971 458.246 670.481C457.718 670.976 457.505 671.58 457.606 672.293Z" fill="#FFFEFE" fill-opacity="0.4"/>
<path d="M480.223 742.345L472.112 743.492L465.563 697.168L483.243 694.669C488.482 693.928 492.738 694.619 496.011 696.742C499.327 698.859 501.307 702.198 501.952 706.761C502.388 709.845 502.043 712.587 500.917 714.987C499.828 717.338 497.991 719.279 495.406 720.808L506.902 738.573L498.03 739.827L487.726 723.638L477.777 725.045L480.223 742.345ZM474.696 703.246L476.765 717.884L486.334 716.531C488.911 716.167 490.825 715.228 492.076 713.716C493.328 712.203 493.789 710.285 493.46 707.961C493.132 705.638 492.163 703.965 490.553 702.943C488.938 701.879 486.841 701.529 484.264 701.893L474.696 703.246ZM521.618 737.333C518.323 737.799 515.578 737.282 513.384 735.782C511.226 734.235 509.941 732.003 509.529 729.088C509.123 726.215 509.793 723.794 511.54 721.823C513.323 719.804 516.052 718.384 519.728 717.563L528.999 715.477L528.901 714.78C528.698 713.343 528.262 712.242 527.593 711.474C526.961 710.659 526.132 710.13 525.106 709.887C524.075 709.602 522.905 709.552 521.595 709.737C519.314 710.059 517.626 710.772 516.532 711.874C515.433 712.935 514.999 714.289 515.232 715.936L508.642 716.868C508.319 714.587 508.612 712.542 509.519 710.733C510.463 708.876 511.926 707.333 513.907 706.105C515.93 704.871 518.336 704.057 521.124 703.663C523.955 703.263 526.455 703.426 528.627 704.153C530.792 704.838 532.564 706.096 533.943 707.926C535.316 709.715 536.209 712.066 536.621 714.981L539.308 733.992L532.528 734.951L531.304 730.405C530.855 732.106 529.73 733.601 527.93 734.89C526.172 736.172 524.068 736.987 521.618 737.333ZM523.265 731.154C525.673 730.813 527.479 729.869 528.682 728.32C529.927 726.765 530.38 724.783 530.039 722.375L529.806 720.728L523.351 722.157C520.973 722.709 519.333 723.458 518.433 724.404C517.526 725.308 517.163 726.393 517.342 727.66C517.539 729.055 518.153 730.045 519.184 730.632C520.215 731.219 521.575 731.393 523.265 731.154Z" fill="white" fill-opacity="0.4"/>
</svg>
