<svg width="337" height="341" viewBox="0 0 337 341" fill="none" xmlns="http://www.w3.org/2000/svg">
<g opacity="0.2">
<path d="M292.055 96.0013L127.139 0.786865L0.827019 219.565L165.743 314.78L292.055 96.0013Z" fill="#EDEEF0"/>
<path opacity="0.4" d="M203.627 70.6164L137.654 32.5273L134.908 37.2834L200.881 75.3725L203.627 70.6164Z" fill="#5B5B5F"/>
<path opacity="0.4" d="M246.642 124.705L124.987 54.467L122.241 59.2231L243.897 129.461L246.642 124.705Z" fill="#5B5B5F"/>
<path opacity="0.4" d="M233.975 146.645L112.32 76.4072L109.574 81.1633L231.23 151.401L233.975 146.645Z" fill="#5B5B5F"/>
<path opacity="0.4" d="M221.309 168.585L99.6533 98.3469L96.9074 103.103L218.563 173.341L221.309 168.585Z" fill="#5B5B5F"/>
<path opacity="0.4" d="M208.642 190.524L86.9866 120.287L84.2407 125.043L205.896 195.28L208.642 190.524Z" fill="#5B5B5F"/>
<path opacity="0.4" d="M195.975 212.464L74.3196 142.226L71.5737 146.982L193.229 217.22L195.975 212.464Z" fill="#5B5B5F"/>
<path opacity="0.4" d="M183.308 234.404L61.6526 164.166L58.9067 168.922L180.562 239.16L183.308 234.404Z" fill="#5B5B5F"/>
<path opacity="0.4" d="M170.641 256.344L48.9856 186.106L46.2397 190.862L167.895 261.1L170.641 256.344Z" fill="#5B5B5F"/>
<path opacity="0.4" d="M157.974 278.284L36.3186 208.046L33.5727 212.802L155.228 283.04L157.974 278.284Z" fill="#5B5B5F"/>
<path d="M160.04 244.644C179.796 256.05 205.057 249.281 216.463 229.525C227.87 209.769 221.101 184.508 201.345 173.102C181.589 161.695 156.327 168.464 144.921 188.22C133.515 207.976 140.284 233.238 160.04 244.644Z" fill="#90C5FF"/>
<path d="M201.482 321.927L219.214 317.176L205.468 265.874L187.736 270.626L201.482 321.927Z" fill="#59595A"/>
<path d="M187.736 270.625L205.468 265.874L204.171 261.035L186.439 265.786L187.736 270.625Z" fill="#ABCB57"/>
<path d="M202.779 326.766L220.511 322.015L219.214 317.176L201.482 321.927L202.779 326.766Z" fill="#ABCB57"/>
<path opacity="0.2" d="M234.312 258.302L226.699 264.414L149.056 167.783L156.665 161.667L234.312 258.302Z" fill="white"/>
<path opacity="0.2" d="M250.365 252.529L242.748 258.643L165.105 162.011L172.708 155.896L250.365 252.529Z" fill="white"/>
<path d="M220.583 231.904C226.734 221.249 228.369 208.835 225.184 196.951C222 185.067 214.378 175.134 203.723 168.982C193.068 162.831 180.655 161.196 168.771 164.381C156.886 167.565 146.954 175.187 140.802 185.842C134.65 196.497 133.016 208.91 136.2 220.794C139.385 232.679 147.006 242.612 157.661 248.763C166.918 254.107 177.5 256.038 187.91 254.366L190.667 264.653L199.944 262.167L197.188 251.88C207.039 248.123 215.239 241.16 220.583 231.904ZM162.418 240.525C153.964 235.644 147.915 227.762 145.389 218.333C142.862 208.903 144.159 199.054 149.04 190.599C153.922 182.145 161.803 176.097 171.233 173.571C180.663 171.044 190.512 172.341 198.966 177.221C207.421 182.102 213.468 189.984 215.995 199.414C218.522 208.844 217.225 218.693 212.344 227.147C207.462 235.602 199.581 241.65 190.151 244.176C180.722 246.702 170.872 245.406 162.418 240.525Z" fill="#59595A"/>
<path opacity="0.4" d="M220.583 231.904C226.734 221.249 228.369 208.835 225.184 196.951C222 185.067 214.378 175.134 203.723 168.982C193.068 162.831 180.655 161.196 168.771 164.381L171.233 173.57C180.663 171.043 190.512 172.34 198.966 177.221C207.421 182.103 213.469 189.984 215.995 199.414C218.522 208.844 217.225 218.693 212.344 227.147C207.462 235.602 199.581 241.649 190.152 244.176L192.434 252.695L192.614 253.365L195.306 263.411L195.954 265.83L211.645 324.39L220.511 322.015L219.214 317.176L205.468 265.874L204.172 261.035L199.944 262.168L197.188 251.883C207.04 248.125 215.239 241.16 220.583 231.904Z" fill="#5B5B5F"/>
</g>
</svg>
