<svg width="1440" height="1270" viewBox="0 0 1440 1270" fill="none" xmlns="http://www.w3.org/2000/svg">
<rect x="172" y="150.518" width="118" height="118" rx="5" transform="rotate(-8.04646 172 150.518)" fill="#FF0004" fill-opacity="0.3"/>
<path d="M182.354 159.535L178.552 160.073L178.166 157.34L184.867 156.393L187.324 173.764L184.425 174.174L182.354 159.535ZM202.421 171.604L190.376 173.332L190.053 171.051L195.054 165.447C195.571 164.873 195.998 164.352 196.336 163.884C196.689 163.414 196.959 162.98 197.145 162.582C197.331 162.184 197.454 161.795 197.513 161.415C197.573 161.035 197.572 160.631 197.512 160.203C197.373 159.221 197.012 158.497 196.429 158.03C195.846 157.563 195.095 157.394 194.176 157.524C193.225 157.659 192.517 158.082 192.053 158.794C191.588 159.506 191.426 160.418 191.567 161.529L188.549 161.956C188.385 160.686 188.491 159.548 188.866 158.542C189.238 157.52 189.848 156.69 190.695 156.053C191.54 155.4 192.573 154.988 193.793 154.815C195.028 154.64 196.122 154.72 197.074 155.054C198.04 155.37 198.828 155.913 199.438 156.683C200.048 157.453 200.435 158.424 200.601 159.597C200.686 160.199 200.681 160.789 200.585 161.369C200.503 161.93 200.332 162.495 200.074 163.065C199.813 163.619 199.474 164.192 199.056 164.784C198.639 165.377 198.138 166.005 197.554 166.669L193.835 170.88L192.61 170.107L202.021 168.776L202.421 171.604Z" fill="#FFFEFE" fill-opacity="0.4"/>
<path d="M210.969 231.041L203.112 232.151L196.563 185.828L204.421 184.717L224.59 219.484L234.331 180.489L242.316 179.36L248.865 225.683L241.007 226.794L238.991 212.536C238.663 210.212 238.388 208.269 238.167 206.706C237.94 205.101 237.77 203.746 237.657 202.641C237.544 201.537 237.449 200.559 237.372 199.708C237.294 198.858 237.259 198.001 237.267 197.138L229.664 228.398L222.186 229.455L206.288 201.582C206.696 202.946 207.074 204.703 207.421 206.851C207.81 208.994 208.21 211.523 208.622 214.438L210.969 231.041ZM253.891 208.297C253.461 205.255 253.691 202.465 254.582 199.926C255.509 197.338 256.993 195.189 259.035 193.479C261.077 191.768 263.577 190.704 266.534 190.286C269.196 189.909 271.561 190.178 273.629 191.092C275.691 191.964 277.249 193.382 278.302 195.344L277.577 196.158L277.315 189.731L284.476 188.719L288.677 218.439C289.167 221.904 288.915 224.999 287.921 227.725C286.976 230.487 285.374 232.717 283.115 234.415C280.904 236.15 278.087 237.259 274.665 237.743C270.187 238.376 266.341 237.691 263.128 235.689C259.915 233.687 257.759 230.631 256.661 226.52L264.392 225.427C264.932 227.419 266.001 228.884 267.599 229.822C269.239 230.753 271.263 231.049 273.671 230.709C276.332 230.332 278.334 229.252 279.676 227.468C281.067 225.72 281.577 223.537 281.206 220.917L280.105 213.123L281.108 213.821C280.628 215.914 279.458 217.696 277.598 219.165C275.737 220.635 273.476 221.558 270.814 221.934C267.857 222.352 265.185 222.04 262.797 220.999C260.409 219.958 258.435 218.341 256.875 216.148C255.316 213.956 254.321 211.338 253.891 208.297ZM261.659 207.005C261.909 208.779 262.471 210.316 263.344 211.614C264.254 212.864 265.399 213.801 266.78 214.425C268.16 215.048 269.696 215.241 271.386 215.002C273.16 214.751 274.627 214.156 275.787 213.216C276.983 212.228 277.824 211.011 278.309 209.563C278.83 208.068 278.962 206.411 278.705 204.595C278.448 202.778 277.889 201.263 277.028 200.049C276.161 198.792 275.019 197.877 273.602 197.301C272.227 196.72 270.631 196.558 268.815 196.815C267.083 197.06 265.64 197.673 264.486 198.655C263.326 199.594 262.503 200.788 262.019 202.235C261.534 203.683 261.414 205.273 261.659 207.005Z" fill="white" fill-opacity="0.4"/>
<rect x="166.043" y="668" width="118" height="118" rx="5" transform="rotate(7.32413 166.043 668)" fill="#5900FF" fill-opacity="0.3"/>
<path d="M180.985 696.782L168.914 695.255L169.207 692.97L175.514 688.892C176.164 688.476 176.714 688.087 177.164 687.725C177.63 687.365 178.005 687.018 178.29 686.684C178.575 686.35 178.796 686.007 178.954 685.656C179.112 685.306 179.219 684.916 179.274 684.487C179.4 683.504 179.244 682.709 178.806 682.104C178.367 681.5 177.688 681.138 176.767 681.02C175.815 680.897 175.021 681.118 174.384 681.681C173.747 682.245 173.349 683.081 173.19 684.19L170.167 683.802C170.346 682.534 170.75 681.465 171.378 680.594C172.008 679.707 172.816 679.068 173.801 678.679C174.789 678.273 175.894 678.149 177.116 678.306C178.354 678.465 179.387 678.832 180.217 679.406C181.064 679.967 181.68 680.699 182.064 681.603C182.448 682.508 182.565 683.547 182.414 684.721C182.336 685.324 182.175 685.892 181.929 686.425C181.701 686.945 181.386 687.445 180.986 687.926C180.587 688.391 180.108 688.853 179.549 689.314C178.99 689.774 178.34 690.247 177.6 690.733L172.898 693.807L171.923 692.738L181.349 693.949L180.985 696.782ZM193.753 693.244L189.335 697.878L185.859 697.432L191.604 691.516L192.341 691.804C191.953 692.061 191.485 692.251 190.937 692.374C190.407 692.483 189.896 692.506 189.404 692.443C188.213 692.29 187.199 691.902 186.359 691.278C185.522 690.638 184.908 689.833 184.516 688.863C184.126 687.877 184.007 686.797 184.158 685.623C184.317 684.385 184.735 683.326 185.413 682.445C186.107 681.566 186.971 680.927 188.006 680.528C189.06 680.115 190.205 679.988 191.443 680.147C192.697 680.308 193.779 680.737 194.689 681.435C195.618 682.118 196.306 682.973 196.755 683.999C197.204 685.024 197.352 686.132 197.2 687.322C197.11 688.021 196.938 688.668 196.684 689.265C196.43 689.861 196.069 690.476 195.6 691.11C195.134 691.727 194.518 692.438 193.753 693.244ZM194.084 686.898C194.176 686.184 194.114 685.539 193.897 684.962C193.681 684.386 193.33 683.914 192.845 683.545C192.36 683.176 191.777 682.948 191.094 682.86C190.428 682.775 189.813 682.849 189.251 683.083C188.704 683.319 188.254 683.689 187.899 684.192C187.544 684.695 187.32 685.303 187.229 686.017C187.139 686.716 187.202 687.353 187.419 687.929C187.637 688.49 187.981 688.953 188.45 689.32C188.935 689.689 189.51 689.916 190.177 690.002C190.875 690.091 191.498 690.018 192.044 689.782C192.607 689.547 193.064 689.187 193.417 688.7C193.772 688.197 193.995 687.596 194.084 686.898Z" fill="#FFFEFE" fill-opacity="0.4"/>
<path d="M195.551 757.479C191.023 756.897 187.212 755.417 184.119 753.041C181.074 750.628 178.849 747.524 177.444 743.73C176.086 739.899 175.72 735.55 176.346 730.684C176.966 725.859 178.438 721.768 180.763 718.411C183.129 715.058 186.154 712.608 189.838 711.06C193.521 709.511 197.606 709.025 202.092 709.602C205.773 710.075 208.987 711.176 211.733 712.906C214.479 714.635 216.646 716.85 218.235 719.549C219.83 722.206 220.666 725.239 220.744 728.647L212.174 727.546C211.718 724.734 210.485 722.446 208.475 720.682C206.513 718.881 203.966 717.779 200.834 717.377C198.041 717.018 195.502 717.358 193.218 718.398C190.976 719.444 189.128 721.099 187.675 723.364C186.223 725.63 185.282 728.434 184.852 731.777C184.439 734.993 184.645 737.902 185.473 740.503C186.305 743.062 187.671 745.152 189.571 746.773C191.518 748.357 193.888 749.328 196.681 749.687C199.855 750.095 202.661 749.681 205.1 748.446C207.581 747.217 209.368 745.36 210.462 742.876L218.905 743.962C217.899 747.102 216.244 749.771 213.939 751.97C211.677 754.174 208.957 755.76 205.778 756.728C202.642 757.702 199.232 757.952 195.551 757.479ZM248.353 731.615L256.098 732.61L252.067 763.968L244.894 763.046L244.861 758.783C243.74 760.145 242.188 761.172 240.207 761.863C238.225 762.555 236.176 762.765 234.06 762.493C230.463 762.03 227.796 760.526 226.058 757.98C224.321 755.434 223.697 752.256 224.186 748.447L226.707 728.833L234.452 729.828L232.281 746.713C231.901 749.676 232.197 751.886 233.171 753.345C234.145 754.804 235.711 755.672 237.87 755.949C240.324 756.265 242.236 755.779 243.606 754.492C244.981 753.164 245.859 751.018 246.24 748.056L248.353 731.615Z" fill="white" fill-opacity="0.4"/>
<rect x="1143" y="143.517" width="118" height="118" rx="5" transform="rotate(-8.04646 1143 143.517)" fill="#06A79A" fill-opacity="0.3"/>
<path d="M1160.95 166.809L1148.91 168.537L1148.58 166.256L1153.58 160.652C1154.1 160.078 1154.53 159.557 1154.87 159.089C1155.22 158.619 1155.49 158.185 1155.67 157.787C1155.86 157.389 1155.98 157 1156.04 156.62C1156.1 156.24 1156.1 155.836 1156.04 155.408C1155.9 154.426 1155.54 153.701 1154.96 153.235C1154.38 152.768 1153.62 152.599 1152.71 152.729C1151.75 152.863 1151.05 153.287 1150.58 153.999C1150.12 154.711 1149.96 155.623 1150.1 156.734L1147.08 157.161C1146.92 155.891 1147.02 154.753 1147.4 153.747C1147.77 152.724 1148.38 151.895 1149.22 151.258C1150.07 150.605 1151.1 150.193 1152.32 150.02C1153.56 149.845 1154.65 149.925 1155.6 150.259C1156.57 150.575 1157.36 151.118 1157.97 151.888C1158.58 152.658 1158.97 153.629 1159.13 154.802C1159.22 155.404 1159.21 155.994 1159.11 156.573C1159.03 157.134 1158.86 157.7 1158.6 158.27C1158.34 158.824 1158 159.397 1157.59 159.989C1157.17 160.581 1156.67 161.21 1156.08 161.874L1152.36 166.084L1151.14 165.312L1160.55 163.981L1160.95 166.809ZM1168.67 166.032C1167.47 166.203 1166.37 166.115 1165.39 165.77C1164.41 165.406 1163.61 164.825 1162.98 164.025C1162.37 163.208 1161.97 162.213 1161.81 161.04L1164.8 160.617C1164.94 161.599 1165.33 162.328 1165.96 162.804C1166.59 163.28 1167.39 163.45 1168.36 163.313C1169.04 163.217 1169.61 162.999 1170.06 162.661C1170.53 162.304 1170.86 161.845 1171.05 161.284C1171.26 160.721 1171.32 160.091 1171.22 159.394C1171.13 158.728 1170.91 158.161 1170.57 157.692C1170.24 157.205 1169.81 156.854 1169.28 156.638C1168.75 156.423 1168.14 156.364 1167.44 156.463C1166.77 156.557 1166.18 156.795 1165.65 157.176C1165.13 157.54 1164.75 157.974 1164.5 158.478L1161.73 158.287L1162.59 148.884L1171.64 147.603L1172.04 150.407L1164.38 151.489L1165.27 150.394L1164.65 156.129L1163.69 156.702C1163.97 155.919 1164.46 155.284 1165.17 154.796C1165.89 154.29 1166.73 153.969 1167.7 153.833C1168.85 153.669 1169.89 153.772 1170.82 154.142C1171.76 154.51 1172.53 155.096 1173.13 155.9C1173.74 156.686 1174.13 157.65 1174.29 158.79C1174.47 160.042 1174.34 161.182 1173.92 162.211C1173.52 163.238 1172.86 164.09 1171.96 164.768C1171.07 165.427 1169.97 165.849 1168.67 166.032Z" fill="#FFFEFE" fill-opacity="0.4"/>
<path d="M1230 171.398L1205.27 214.58L1203.56 202.476L1220.43 172.75L1230 171.398ZM1201.67 175.402L1208.22 221.725L1200.11 222.872L1193.56 176.549L1201.67 175.402ZM1212.71 200.408L1216.92 192.703L1236.74 217.694L1227.36 219.02L1212.71 200.408Z" fill="white" fill-opacity="0.4"/>
<rect x="1102" y="676.315" width="118" height="118" rx="5" transform="rotate(-12.3885 1102 676.315)" fill="#0080FF" fill-opacity="0.3"/>
<path d="M1114.19 685.803L1110.44 686.627L1109.85 683.931L1116.46 682.479L1120.22 699.614L1117.36 700.242L1114.19 685.803ZM1118.76 681.973L1131.07 679.269L1131.68 682.035L1119.37 684.739L1118.76 681.973ZM1129 681.05L1131.68 682.035L1128.62 697.769L1125.5 698.454L1129 681.05Z" fill="#FFFEFE" fill-opacity="0.4"/>
<path d="M1170.02 748.257C1165.56 749.236 1161.47 749.129 1157.76 747.935C1154.08 746.691 1150.94 744.52 1148.33 741.422C1145.76 738.273 1143.95 734.303 1142.9 729.51C1141.86 724.759 1141.86 720.412 1142.92 716.467C1144.01 712.512 1146.04 709.185 1148.98 706.485C1151.93 703.785 1155.61 701.95 1160.02 700.98C1163.65 700.183 1167.05 700.136 1170.22 700.838C1173.38 701.54 1176.17 702.894 1178.58 704.899C1180.97 706.862 1182.78 709.435 1184.01 712.617L1175.57 714.471C1174.19 711.978 1172.26 710.24 1169.77 709.257C1167.32 708.224 1164.55 708.046 1161.46 708.723C1158.71 709.327 1156.44 710.504 1154.64 712.254C1152.88 713.994 1151.7 716.176 1151.1 718.798C1150.49 721.421 1150.55 724.378 1151.28 727.67C1151.97 730.837 1153.15 733.506 1154.8 735.676C1156.45 737.804 1158.44 739.311 1160.78 740.196C1163.14 741.03 1165.7 741.145 1168.45 740.541C1171.58 739.854 1174.08 738.518 1175.96 736.533C1177.88 734.538 1178.94 732.188 1179.13 729.481L1187.44 727.655C1187.55 730.95 1186.9 734.021 1185.47 736.869C1184.08 739.707 1182.06 742.118 1179.39 744.101C1176.77 746.075 1173.64 747.461 1170.02 748.257ZM1204.23 739.956L1196.66 741.618L1186.45 695.11L1194.01 693.449L1204.23 739.956Z" fill="white" fill-opacity="0.4"/>
<rect x="107.452" y="373" width="118" height="118" rx="5" transform="rotate(19.5321 107.452 373)" fill="#FF0091" fill-opacity="0.3"/>
<path d="M113.791 405.346C112.645 404.94 111.715 404.355 111.001 403.593C110.307 402.82 109.866 401.934 109.677 400.933C109.509 399.923 109.623 398.86 110.019 397.744L112.869 398.755C112.538 399.69 112.542 400.515 112.883 401.23C113.223 401.945 113.854 402.466 114.773 402.792C115.422 403.022 116.025 403.091 116.584 403.001C117.162 402.901 117.668 402.647 118.101 402.24C118.549 401.839 118.891 401.307 119.126 400.643C119.351 400.01 119.42 399.406 119.335 398.833C119.27 398.25 119.052 397.739 118.681 397.302C118.31 396.865 117.793 396.529 117.129 396.293C116.496 396.069 115.857 396.003 115.212 396.097C114.588 396.182 114.048 396.389 113.591 396.719L111.228 395.27L116.336 387.329L124.954 390.385L124.007 393.054L116.724 390.471L118.018 389.911L114.814 394.708L113.697 394.771C114.305 394.205 115.035 393.87 115.887 393.765C116.76 393.65 117.656 393.755 118.576 394.082C119.676 394.472 120.551 395.046 121.2 395.802C121.863 396.563 122.274 397.439 122.432 398.429C122.611 399.409 122.508 400.442 122.123 401.528C121.7 402.719 121.065 403.673 120.216 404.391C119.382 405.114 118.407 405.566 117.29 405.747C116.194 405.918 115.028 405.785 113.791 405.346ZM138.404 395.155L132.539 411.69L129.803 410.72L135.667 394.185L138.404 395.155ZM123.424 402.066L134.762 393.864L137.816 394.947L126.301 403.29L123.424 402.066ZM135.668 409.26L122.526 404.599L123.424 402.066L136.566 406.727L135.668 409.26Z" fill="#FFFEFE" fill-opacity="0.4"/>
<path d="M125.442 443.946L118.616 416.671L127.784 419.923L130.328 429.789C130.756 431.39 131.11 433.009 131.389 434.647C131.722 436.26 132.047 437.96 132.364 439.747L148.353 427.22L157.34 430.408L135.114 447.31L141.759 474.521L132.651 471.29L130.294 462.237C129.816 460.393 129.425 458.624 129.12 456.931C128.815 455.239 128.478 453.444 128.11 451.548L111.721 463.865L102.673 460.655L125.442 443.946ZM157.494 480.986C154.558 479.944 152.18 478.354 150.359 476.214C148.592 474.048 147.479 471.57 147.019 468.782C146.574 465.953 146.894 463.01 147.978 459.954C149.076 456.858 150.669 454.344 152.758 452.414C154.846 450.484 157.251 449.255 159.974 448.727C162.711 448.158 165.527 448.388 168.422 449.415C171.438 450.485 173.803 452.048 175.518 454.105C177.247 456.122 178.295 458.463 178.663 461.129C179.07 463.808 178.718 466.717 177.605 469.853L176.813 472.085L151.217 463.073L153.007 458.411L171.163 464.851C171.89 462.801 171.811 460.917 170.927 459.199C170.082 457.496 168.554 456.252 166.342 455.468C164.613 454.854 163.017 454.696 161.554 454.991C160.131 455.302 158.861 456.073 157.745 457.307C156.628 458.541 155.699 460.203 154.957 462.294C153.816 465.511 153.636 468.186 154.419 470.32C155.241 472.468 157.02 474.027 159.754 474.997C161.765 475.71 163.549 475.913 165.107 475.605C166.705 475.312 167.954 474.533 168.856 473.268L175.671 475.686C173.873 478.715 171.358 480.698 168.129 481.635C164.939 482.586 161.394 482.37 157.494 480.986Z" fill="white" fill-opacity="0.4"/>
<rect x="900" y="810.517" width="118" height="118" rx="5" transform="rotate(-8.04646 900 810.517)" fill="#FF0004" fill-opacity="0.3"/>
<path d="M920.952 832.943L908.908 834.671L908.585 832.389L913.586 826.786C914.102 826.212 914.53 825.691 914.867 825.223C915.221 824.753 915.491 824.319 915.677 823.921C915.863 823.523 915.986 823.134 916.045 822.754C916.105 822.374 916.104 821.97 916.043 821.542C915.905 820.56 915.544 819.835 914.96 819.368C914.377 818.901 913.626 818.733 912.707 818.863C911.757 818.997 911.049 819.421 910.584 820.133C910.119 820.845 909.958 821.756 910.099 822.868L907.081 823.294C906.917 822.025 907.023 820.887 907.398 819.88C907.77 818.858 908.38 818.029 909.227 817.392C910.072 816.739 911.104 816.326 912.324 816.154C913.56 815.979 914.654 816.059 915.606 816.393C916.572 816.708 917.36 817.251 917.969 818.022C918.579 818.792 918.967 819.763 919.133 820.935C919.218 821.537 919.213 822.128 919.117 822.707C919.035 823.268 918.864 823.834 918.605 824.403C918.344 824.957 918.005 825.531 917.588 826.123C917.171 826.715 916.67 827.343 916.085 828.008L912.366 832.218L911.142 831.446L920.552 830.115L920.952 832.943ZM921.607 824.052C921.351 822.246 921.429 820.627 921.841 819.195C922.268 817.761 922.975 816.587 923.96 815.672C924.959 814.738 926.196 814.168 927.669 813.959C929.158 813.749 930.504 813.954 931.707 814.576C932.924 815.18 933.928 816.112 934.721 817.373C935.529 818.633 936.061 820.165 936.316 821.971C936.569 823.762 936.498 825.371 936.102 826.801C935.707 828.23 935.015 829.395 934.027 830.294C933.039 831.193 931.769 831.752 930.217 831.972C928.696 832.187 927.328 832.001 926.114 831.413C924.915 830.823 923.928 829.896 923.151 828.633C922.375 827.369 921.86 825.842 921.607 824.052ZM924.601 823.628C924.789 824.959 925.125 826.075 925.608 826.976C926.088 827.862 926.688 828.504 927.407 828.903C928.124 829.287 928.934 829.415 929.837 829.287C930.771 829.155 931.522 828.806 932.089 828.241C932.669 827.658 933.067 826.875 933.283 825.891C933.497 824.891 933.51 823.726 933.322 822.395C933.127 821.017 932.789 819.885 932.308 818.999C931.826 818.098 931.225 817.448 930.506 817.049C929.802 816.647 928.983 816.512 928.049 816.645C927.146 816.772 926.404 817.128 925.824 817.711C925.244 818.294 924.847 819.085 924.633 820.085C924.417 821.069 924.406 822.25 924.601 823.628Z" fill="#FFFEFE" fill-opacity="0.4"/>
<path d="M954.8 891.324C950.28 891.963 946.214 891.546 942.602 890.075C939.026 888.555 936.057 886.152 933.697 882.866C931.373 879.532 929.867 875.436 929.18 870.578C928.499 865.761 928.835 861.427 930.186 857.573C931.579 853.713 933.847 850.549 936.988 848.079C940.129 845.61 943.939 844.059 948.417 843.426C952.092 842.906 955.483 843.116 958.589 844.056C961.695 844.996 964.372 846.556 966.62 848.738C968.861 850.877 970.471 853.58 971.45 856.846L962.895 858.055C961.71 855.465 959.915 853.586 957.509 852.417C955.14 851.201 952.392 850.814 949.265 851.256C946.477 851.65 944.119 852.651 942.192 854.26C940.307 855.862 938.965 857.948 938.164 860.517C937.364 863.086 937.2 866.04 937.672 869.377C938.126 872.588 939.096 875.338 940.583 877.627C942.064 879.874 943.935 881.527 946.197 882.586C948.494 883.597 951.037 883.905 953.825 883.511C956.994 883.063 959.59 881.921 961.614 880.083C963.68 878.24 964.912 875.976 965.308 873.291L973.736 872.1C973.598 875.394 972.71 878.407 971.071 881.138C969.474 883.863 967.271 886.113 964.463 887.889C961.697 889.659 958.476 890.804 954.8 891.324ZM990.868 886.289C987.573 886.755 984.828 886.238 982.634 884.739C980.476 883.191 979.191 880.959 978.779 878.044C978.373 875.172 979.043 872.75 980.79 870.779C982.573 868.761 985.302 867.341 988.978 866.519L998.25 864.433L998.151 863.736C997.948 862.3 997.512 861.198 996.844 860.43C996.211 859.615 995.382 859.086 994.357 858.843C993.325 858.558 992.155 858.508 990.845 858.693C988.564 859.015 986.876 859.728 985.783 860.831C984.683 861.891 984.249 863.245 984.482 864.893L977.892 865.824C977.569 863.543 977.862 861.498 978.77 859.689C979.714 857.832 981.176 856.289 983.157 855.061C985.18 853.827 987.586 853.013 990.374 852.619C993.205 852.219 995.706 852.382 997.877 853.11C1000.04 853.795 1001.81 855.052 1003.19 856.883C1004.57 858.671 1005.46 861.022 1005.87 863.937L1008.56 882.948L1001.78 883.907L1000.55 879.361C1000.1 881.062 998.98 882.557 997.18 883.846C995.423 885.128 993.319 885.943 990.868 886.289ZM992.516 880.11C994.924 879.77 996.729 878.825 997.932 877.276C999.177 875.721 999.63 873.739 999.289 871.331L999.057 869.684L992.601 871.113C990.223 871.665 988.584 872.414 987.683 873.36C986.777 874.264 986.413 875.349 986.592 876.617C986.789 878.011 987.403 879.001 988.434 879.588C989.465 880.175 990.826 880.349 992.516 880.11Z" fill="white" fill-opacity="0.4"/>
<rect x="702" y="644.097" width="118" height="118" rx="5" transform="rotate(-13.2755 702 644.097)" fill="#DA6805" fill-opacity="0.4"/>
<path d="M720.159 667.507C718.975 667.786 717.877 667.799 716.863 667.545C715.862 667.271 715.011 666.765 714.31 666.026C713.622 665.268 713.141 664.313 712.869 663.161L715.813 662.466C716.041 663.432 716.491 664.122 717.165 664.539C717.839 664.955 718.65 665.051 719.6 664.827C720.27 664.669 720.815 664.401 721.235 664.022C721.667 663.624 721.955 663.137 722.098 662.561C722.257 661.981 722.256 661.348 722.094 660.663C721.94 660.009 721.672 659.464 721.289 659.028C720.919 658.573 720.459 658.262 719.91 658.096C719.361 657.93 718.744 657.927 718.059 658.089C717.405 658.243 716.833 658.535 716.342 658.963C715.863 659.372 715.521 659.839 715.316 660.364L712.545 660.426L712.535 650.984L721.435 648.883L722.086 651.64L714.564 653.415L715.348 652.243L715.254 658.011L714.349 658.669C714.554 657.864 714.986 657.187 715.645 656.637C716.316 656.067 717.127 655.67 718.077 655.446C719.213 655.178 720.259 655.186 721.214 655.47C722.185 655.751 723.004 656.264 723.674 657.01C724.355 657.737 724.828 658.662 725.092 659.783C725.383 661.013 725.366 662.159 725.041 663.222C724.732 664.282 724.157 665.19 723.317 665.947C722.488 666.685 721.436 667.205 720.159 667.507Z" fill="#FFFEFE" fill-opacity="0.4"/>
<path d="M760.364 668.516L771.108 714.05L763.135 715.931L752.391 670.397L760.364 668.516ZM776.628 692.297L764.108 695.251L762.521 688.524L774.605 685.672C776.806 685.153 778.36 684.216 779.268 682.862C780.166 681.467 780.375 679.752 779.895 677.717C779.435 675.765 778.48 674.412 777.031 673.658C775.581 672.904 773.715 672.797 771.431 673.336L759.347 676.187L757.686 669.148L770.455 666.135C774.982 665.067 778.792 665.33 781.886 666.923C784.98 668.517 786.977 671.224 787.879 675.044C788.525 677.785 788.405 680.246 787.517 682.429C786.619 684.569 784.96 686.364 782.54 687.811L782.334 686.939C785.315 686.937 787.747 687.679 789.632 689.163C791.516 690.647 792.802 692.843 793.487 695.75C794.095 698.324 794.038 700.683 793.316 702.826C792.584 704.928 791.215 706.741 789.207 708.267C787.232 709.741 784.687 710.846 781.572 711.581L768.429 714.682L766.768 707.643L779.538 704.63C781.822 704.091 783.439 703.14 784.388 701.776C785.338 700.412 785.572 698.713 785.092 696.678C784.642 694.768 783.671 693.441 782.18 692.697C780.721 691.901 778.87 691.768 776.628 692.297Z" fill="white" fill-opacity="0.4"/>
<rect x="1192.04" y="370" width="118" height="118" rx="5" transform="rotate(7.32413 1192.04 370)" fill="#06B92D" fill-opacity="0.4"/>
<path d="M1219.12 410.838L1213.16 457.24L1205.03 456.196L1211 409.793L1219.12 410.838ZM1225.44 442.557L1213.25 440.991L1214.18 433.754L1224.65 435.1C1227.44 435.459 1229.65 435.033 1231.27 433.821C1232.93 432.573 1233.93 430.679 1234.26 428.14C1234.58 425.601 1234.09 423.559 1232.79 422.015C1231.52 420.475 1229.53 419.532 1226.83 419.184L1215.46 417.723L1216.39 410.487L1229.34 412.151C1232.47 412.554 1235.1 413.537 1237.22 415.1C1239.35 416.663 1240.89 418.669 1241.87 421.117C1242.85 423.523 1243.15 426.25 1242.75 429.297C1242.37 432.259 1241.4 434.822 1239.83 436.987C1238.27 439.109 1236.26 440.679 1233.81 441.697C1231.36 442.673 1228.57 442.96 1225.44 442.557ZM1243.13 445.089C1243.55 441.831 1244.63 439.067 1246.39 436.797C1248.15 434.485 1250.39 432.794 1253.1 431.724C1255.82 430.654 1258.79 430.326 1262.01 430.739C1265.27 431.158 1268.05 432.226 1270.37 433.943C1272.73 435.666 1274.47 437.868 1275.59 440.55C1276.71 443.19 1277.06 446.139 1276.64 449.397C1276.23 452.656 1275.14 455.441 1273.38 457.753C1271.62 460.022 1269.39 461.692 1266.67 462.762C1263.99 463.838 1261.02 464.166 1257.76 463.747C1254.55 463.334 1251.76 462.266 1249.4 460.543C1247.04 458.82 1245.3 456.639 1244.18 454C1243.06 451.318 1242.71 448.348 1243.13 445.089ZM1250.87 446.085C1250.63 447.989 1250.79 449.709 1251.37 451.246C1251.99 452.788 1252.9 454.046 1254.11 455.018C1255.36 455.997 1256.88 456.6 1258.65 456.828C1260.43 457.057 1262.05 456.856 1263.51 456.226C1264.96 455.596 1266.17 454.611 1267.11 453.27C1268.06 451.929 1268.65 450.306 1268.9 448.402C1269.15 446.455 1268.98 444.735 1268.4 443.24C1267.82 441.703 1266.91 440.446 1265.66 439.468C1264.41 438.49 1262.9 437.886 1261.12 437.658C1259.34 437.43 1257.72 437.63 1256.27 438.26C1254.85 438.896 1253.65 439.881 1252.66 441.217C1251.72 442.515 1251.12 444.138 1250.87 446.085Z" fill="white" fill-opacity="0.4"/>
<path d="M1195.45 392.315C1195.6 391.125 1196.08 390.154 1196.89 389.403C1197.71 388.638 1198.71 388.217 1199.88 388.142L1199.84 388.692C1198.84 388.29 1198.1 387.703 1197.62 386.931C1197.15 386.162 1196.98 385.277 1197.11 384.277C1197.23 383.357 1197.59 382.58 1198.19 381.947C1198.78 381.314 1199.56 380.857 1200.52 380.577C1201.49 380.298 1202.57 380.236 1203.76 380.388C1204.95 380.541 1205.96 380.873 1206.8 381.384C1207.66 381.881 1208.28 382.518 1208.68 383.296C1209.1 384.059 1209.25 384.917 1209.13 385.869C1209 386.869 1208.6 387.681 1207.94 388.306C1207.28 388.915 1206.42 389.272 1205.36 389.378L1205.4 388.875C1206.17 389.086 1206.81 389.451 1207.34 389.971C1207.87 390.475 1208.26 391.073 1208.49 391.764C1208.74 392.458 1208.81 393.209 1208.71 394.018C1208.58 395.066 1208.18 395.951 1207.52 396.673C1206.88 397.381 1206.04 397.885 1204.98 398.185C1203.94 398.487 1202.75 398.552 1201.4 398.378C1200.07 398.207 1198.93 397.843 1197.98 397.286C1197.05 396.731 1196.36 396.029 1195.91 395.18C1195.47 394.318 1195.32 393.363 1195.45 392.315ZM1198.45 392.483C1198.38 393.039 1198.46 393.541 1198.7 393.99C1198.94 394.442 1199.32 394.813 1199.84 395.105C1200.36 395.398 1201.01 395.594 1201.77 395.692C1202.5 395.785 1203.15 395.756 1203.72 395.603C1204.3 395.452 1204.76 395.197 1205.1 394.837C1205.45 394.463 1205.66 393.99 1205.74 393.419C1205.85 392.578 1205.6 391.868 1205 391.291C1204.41 390.715 1203.56 390.356 1202.45 390.214C1201.34 390.071 1200.42 390.203 1199.69 390.609C1198.97 391.017 1198.56 391.642 1198.45 392.483ZM1199.84 384.894C1199.75 385.608 1199.97 386.225 1200.5 386.745C1201.03 387.249 1201.79 387.564 1202.77 387.69C1203.74 387.815 1204.54 387.699 1205.16 387.344C1205.81 386.991 1206.17 386.457 1206.26 385.743C1206.36 385.013 1206.14 384.404 1205.6 383.916C1205.09 383.414 1204.35 383.101 1203.38 382.977C1202.39 382.851 1201.58 382.964 1200.94 383.317C1200.3 383.654 1199.93 384.18 1199.84 384.894ZM1223.61 383.253L1221.38 400.654L1218.5 400.284L1220.73 382.883L1223.61 383.253ZM1210.43 393.175L1219.78 382.761L1222.99 383.174L1213.5 393.763L1210.43 393.175ZM1223.92 397.618L1210.09 395.841L1210.43 393.175L1224.26 394.952L1223.92 397.618Z" fill="#FFFEFE" fill-opacity="0.4"/>
<rect x="645.582" y="254" width="118" height="118" rx="5" transform="rotate(26.4622 645.582 254)" fill="#5900FF" fill-opacity="0.3"/>
<path d="M650.262 286.089L639.358 280.69L640.385 278.627L647.68 276.842C648.431 276.662 649.078 276.475 649.622 276.281C650.179 276.093 650.648 275.889 651.027 275.666C651.405 275.444 651.727 275.193 651.991 274.913C652.255 274.633 652.484 274.3 652.676 273.914C653.118 273.025 653.231 272.224 653.015 271.509C652.799 270.794 652.276 270.229 651.445 269.816C650.586 269.388 649.763 269.336 648.976 269.659C648.19 269.983 647.54 270.642 647.026 271.638L644.298 270.28C644.882 269.141 645.614 268.263 646.493 267.646C647.379 267.015 648.352 266.677 649.41 266.632C650.477 266.573 651.561 266.817 652.664 267.366C653.781 267.922 654.638 268.608 655.233 269.422C655.85 270.23 656.191 271.124 656.258 272.104C656.324 273.084 656.093 274.104 655.566 275.164C655.295 275.708 654.956 276.192 654.549 276.615C654.163 277.031 653.702 277.4 653.166 277.723C652.637 278.032 652.033 278.312 651.354 278.563C650.675 278.815 649.906 279.049 649.048 279.265L643.598 280.628L643.026 279.298L651.535 283.533L650.262 286.089ZM654.138 282.496C654.673 281.422 655.444 280.662 656.452 280.216C657.482 279.763 658.562 279.693 659.693 280.006L659.469 280.511C658.659 279.804 658.153 279.007 657.951 278.12C657.763 277.241 657.894 276.35 658.343 275.447C658.757 274.616 659.35 274 660.122 273.598C660.894 273.196 661.777 273.019 662.772 273.067C663.781 273.122 664.822 273.417 665.897 273.952C666.971 274.487 667.82 275.132 668.444 275.89C669.089 276.64 669.474 277.448 669.597 278.313C669.742 279.172 669.6 280.031 669.172 280.89C668.723 281.793 668.084 282.431 667.255 282.804C666.433 283.163 665.503 283.219 664.465 282.97L664.668 282.508C665.32 282.958 665.811 283.515 666.141 284.18C666.479 284.831 666.645 285.521 666.639 286.251C666.647 286.988 666.47 287.721 666.106 288.452C665.636 289.397 664.972 290.103 664.114 290.57C663.277 291.03 662.312 291.228 661.217 291.166C660.136 291.111 658.987 290.78 657.77 290.174C656.567 289.575 655.61 288.858 654.9 288.022C654.204 287.193 653.781 286.303 653.628 285.352C653.498 284.393 653.668 283.441 654.138 282.496ZM656.92 283.639C656.671 284.141 656.582 284.642 656.655 285.142C656.742 285.65 656.979 286.126 657.366 286.568C657.767 287.019 658.312 287.415 659 287.757C659.658 288.085 660.281 288.27 660.868 288.311C661.469 288.36 661.988 288.27 662.424 288.04C662.881 287.803 663.239 287.427 663.495 286.911C663.873 286.152 663.872 285.401 663.491 284.657C663.125 283.921 662.44 283.303 661.437 282.804C660.435 282.305 659.522 282.128 658.7 282.273C657.891 282.425 657.298 282.88 656.92 283.639ZM660.718 276.924C660.397 277.568 660.402 278.223 660.732 278.888C661.07 279.539 661.683 280.085 662.571 280.527C663.445 280.962 664.236 281.114 664.944 280.984C665.666 280.861 666.188 280.477 666.509 279.832C666.837 279.174 666.828 278.526 666.484 277.89C666.16 277.246 665.562 276.707 664.688 276.272C663.8 275.83 662.995 275.671 662.272 275.794C661.557 275.903 661.039 276.279 660.718 276.924Z" fill="#FFFEFE" fill-opacity="0.4"/>
<path d="M644.045 346.852L636.826 343.258L657.673 301.376L664.95 304.998L670.323 348.78L668.203 347.724L684.602 314.78L691.821 318.373L670.974 360.256L663.754 356.662L658.295 312.91L660.415 313.965L644.045 346.852ZM679.213 364.357L693.302 336.054L700.291 339.533L686.203 367.836L679.213 364.357ZM699.563 332.093C698.378 331.503 697.566 330.598 697.125 329.378C696.741 328.138 696.844 326.926 697.433 325.742C698.023 324.558 698.918 323.765 700.119 323.362C701.359 322.978 702.571 323.081 703.755 323.67C704.939 324.26 705.732 325.155 706.135 326.356C706.576 327.577 706.502 328.779 705.913 329.963C705.323 331.147 704.399 331.95 703.141 332.372C701.939 332.775 700.747 332.682 699.563 332.093Z" fill="white" fill-opacity="0.4"/>
<rect x="512" y="106.315" width="118" height="118" rx="5" transform="rotate(-22.0586 512 106.315)" fill="#0080FF" fill-opacity="0.3"/>
<path d="M530.305 113.241L526.746 114.684L525.71 112.126L531.982 109.584L538.572 125.843L535.858 126.943L530.305 113.241Z" fill="#FFFEFE" fill-opacity="0.4"/>
<path d="M588.424 166.113L580.831 169.19L563.261 125.83L570.854 122.754L578.137 140.726L597.355 132.939L590.072 114.966L597.664 111.89L615.234 155.249L607.642 158.325L600.191 139.938L580.973 147.725L588.424 166.113Z" fill="white" fill-opacity="0.4"/>
<rect x="514" y="624.315" width="118" height="118" rx="5" transform="rotate(-22.0586 514 624.315)" fill="#0080FF" fill-opacity="0.3"/>
<path d="M532.305 631.241L528.746 632.684L527.71 630.126L533.982 627.584L540.572 643.843L537.858 644.943L532.305 631.241ZM541.023 630.297L542.6 624.091L545.847 622.775L543.744 630.749L542.96 630.859C543.166 630.43 543.473 630.038 543.882 629.683C544.305 629.321 544.747 629.047 545.206 628.861C546.318 628.41 547.396 628.258 548.44 628.405C549.477 628.537 550.408 628.937 551.231 629.605C552.048 630.258 552.679 631.133 553.123 632.23C553.592 633.387 553.74 634.518 553.567 635.624C553.402 636.709 552.963 637.69 552.248 638.567C551.547 639.438 550.619 640.108 549.462 640.576C548.291 641.051 547.133 641.218 545.988 641.078C544.859 640.932 543.847 640.522 542.952 639.848C542.052 639.16 541.376 638.26 540.925 637.148C540.655 636.481 540.48 635.835 540.4 635.212C540.328 634.567 540.341 633.854 540.439 633.072C540.551 632.284 540.746 631.359 541.023 630.297ZM543.848 635.989C544.119 636.657 544.49 637.188 544.961 637.584C545.447 637.974 545.984 638.214 546.573 638.303C547.176 638.387 547.797 638.299 548.435 638.041C549.057 637.788 549.549 637.425 549.909 636.951C550.27 636.477 550.481 635.934 550.544 635.321C550.621 634.703 550.525 634.06 550.254 633.393C549.99 632.74 549.617 632.227 549.137 631.852C548.666 631.456 548.136 631.213 547.547 631.123C546.959 631.034 546.353 631.116 545.73 631.368C545.093 631.626 544.586 631.996 544.211 632.476C543.836 632.956 543.617 633.502 543.554 634.114C543.486 634.712 543.584 635.337 543.848 635.989Z" fill="#FFFEFE" fill-opacity="0.4"/>
<path d="M574.053 654.902C573.028 652.371 572.775 649.873 573.295 647.406C573.814 644.94 575.005 642.708 576.866 640.711C578.75 638.659 581.215 637.015 584.259 635.781C587.186 634.596 589.925 634.084 592.477 634.247C595.068 634.394 597.342 635.176 599.297 636.593C601.292 637.995 602.858 639.984 603.995 642.562L596.402 645.639C595.57 643.812 594.313 642.641 592.631 642.126C590.933 641.571 589.016 641.726 586.881 642.591C584.548 643.537 582.886 644.832 581.895 646.476C580.927 648.065 580.812 649.769 581.549 651.588C582.174 653.13 583.086 654.188 584.285 654.761C585.508 655.279 587.117 655.386 589.112 655.084L596.558 653.862C600.596 653.147 603.916 653.389 606.521 654.59C609.109 655.751 611.06 657.953 612.374 661.195C613.447 663.845 613.74 666.442 613.253 668.988C612.765 671.533 611.539 673.848 609.576 675.933C607.636 677.962 605.064 679.626 601.861 680.923C598.816 682.157 595.939 682.725 593.229 682.626C590.503 682.488 588.102 681.734 586.028 680.365C583.994 678.979 582.416 677.017 581.296 674.479L588.888 671.403C589.665 673.206 590.961 674.361 592.778 674.867C594.618 675.319 596.744 675.056 599.156 674.078C601.687 673.053 603.476 671.729 604.522 670.108C605.592 668.432 605.775 666.724 605.07 664.984C604.461 663.481 603.585 662.455 602.441 661.905C601.282 661.316 599.74 661.204 597.817 661.57L590.311 662.816C586.313 663.515 582.949 663.221 580.217 661.934C577.47 660.607 575.415 658.263 574.053 654.902Z" fill="white" fill-opacity="0.4"/>
<rect x="938" y="254.316" width="118" height="118" rx="5" transform="rotate(-12.3885 938 254.316)" fill="#FF0091" fill-opacity="0.3"/>
<path d="M954.882 264.218L951.131 265.042L950.539 262.346L957.149 260.894L960.914 278.029L958.054 278.657L954.882 264.218ZM962.605 272.571C962.347 271.399 962.471 270.323 962.977 269.344C963.495 268.346 964.292 267.613 965.369 267.147L965.511 267.681C964.437 267.639 963.543 267.336 962.829 266.772C962.131 266.204 961.674 265.428 961.458 264.444C961.259 263.538 961.333 262.686 961.682 261.888C962.031 261.091 962.608 260.399 963.413 259.812C964.234 259.222 965.23 258.799 966.402 258.541C967.574 258.284 968.641 258.254 969.602 258.453C970.575 258.632 971.381 259.02 972.02 259.617C972.671 260.194 973.1 260.952 973.306 261.89C973.522 262.874 973.424 263.772 973.013 264.583C972.598 265.379 971.908 266.005 970.944 266.463L970.812 265.976C971.602 265.917 972.334 266.043 973.009 266.353C973.68 266.648 974.242 267.082 974.695 267.654C975.164 268.222 975.486 268.905 975.661 269.702C975.888 270.734 975.813 271.7 975.438 272.602C975.075 273.484 974.448 274.244 973.556 274.883C972.68 275.518 971.577 275.981 970.249 276.273C968.936 276.561 967.741 276.603 966.664 276.397C965.603 276.188 964.714 275.761 963.999 275.115C963.296 274.451 962.831 273.603 962.605 272.571ZM965.488 271.716C965.609 272.263 965.854 272.709 966.224 273.054C966.611 273.395 967.093 273.616 967.673 273.718C968.268 273.817 968.94 273.784 969.691 273.619C970.409 273.461 971.01 273.214 971.494 272.879C971.993 272.54 972.34 272.144 972.535 271.691C972.743 271.22 972.785 270.703 972.661 270.14C972.479 269.312 972.007 268.728 971.244 268.388C970.497 268.044 969.576 267.992 968.482 268.233C967.389 268.473 966.567 268.907 966.017 269.536C965.482 270.161 965.306 270.888 965.488 271.716ZM964.233 264.104C964.388 264.808 964.802 265.314 965.477 265.625C966.148 265.92 966.968 265.961 967.936 265.748C968.89 265.538 969.601 265.161 970.071 264.615C970.557 264.066 970.722 263.44 970.568 262.737C970.41 262.018 969.997 261.519 969.329 261.24C968.674 260.942 967.87 260.897 966.917 261.107C965.948 261.319 965.221 261.7 964.735 262.249C964.246 262.783 964.079 263.401 964.233 264.104Z" fill="#FFFEFE" fill-opacity="0.4"/>
<path d="M988.168 329.513L979.916 331.325L986.382 282.005L994.571 280.207L1021.11 322.277L1012.67 324.13L1006.66 314.376L989.598 318.125L988.168 329.513ZM992.438 294.96L990.428 310.865L1002.87 308.133L994.376 294.534C994.072 293.946 993.747 293.362 993.401 292.782C993.056 292.203 992.812 291.689 992.669 291.24C992.678 291.675 992.651 292.248 992.589 292.961C992.559 293.623 992.509 294.289 992.438 294.96ZM1038.28 286.004L1039.83 293.067L1037.02 293.685C1034.23 294.299 1032.21 295.529 1030.95 297.377C1029.69 299.184 1029.39 301.587 1030.05 304.588L1033.34 319.59L1025.72 321.265L1018.95 290.448L1026.13 288.869L1028.16 295.107L1027.41 295.272C1027.38 293.139 1027.99 291.257 1029.25 289.626C1030.51 287.996 1032.37 286.91 1034.82 286.37C1035.37 286.251 1035.91 286.153 1036.46 286.076C1037.01 285.998 1037.62 285.974 1038.28 286.004Z" fill="white" fill-opacity="0.4"/>
<rect x="357" y="765.517" width="118" height="118" rx="5" transform="rotate(-8.04646 357 765.517)" fill="#FF0004" fill-opacity="0.3"/>
<path d="M365.117 784.765C364.949 783.577 365.154 782.514 365.732 781.575C366.324 780.619 367.175 779.949 368.284 779.566L368.385 780.11C367.317 779.986 366.449 779.616 365.78 778.999C365.127 778.381 364.73 777.572 364.589 776.574C364.459 775.655 364.598 774.812 365.006 774.043C365.415 773.274 366.042 772.628 366.889 772.104C367.752 771.578 368.778 771.231 369.966 771.063C371.154 770.895 372.22 770.946 373.163 771.217C374.12 771.469 374.894 771.917 375.486 772.561C376.092 773.186 376.462 773.974 376.596 774.925C376.737 775.923 376.572 776.811 376.1 777.588C375.626 778.35 374.891 778.923 373.895 779.306L373.801 778.81C374.593 778.811 375.313 778.992 375.962 779.353C376.609 779.698 377.136 780.173 377.545 780.777C377.97 781.38 378.239 782.085 378.353 782.893C378.501 783.939 378.354 784.897 377.911 785.767C377.482 786.62 376.799 787.33 375.862 787.899C374.94 788.466 373.806 788.845 372.459 789.035C371.128 789.223 369.934 789.174 368.875 788.887C367.833 788.599 366.979 788.105 366.315 787.407C365.664 786.691 365.265 785.811 365.117 784.765ZM368.057 784.131C368.136 784.686 368.346 785.149 368.69 785.52C369.049 785.89 369.514 786.147 370.084 786.293C370.67 786.436 371.343 786.454 372.103 786.346C372.832 786.243 373.45 786.043 373.957 785.745C374.48 785.445 374.856 785.076 375.086 784.64C375.328 784.185 375.409 783.673 375.329 783.103C375.21 782.263 374.783 781.645 374.048 781.248C373.329 780.848 372.415 780.727 371.306 780.884C370.197 781.041 369.345 781.412 368.749 781.997C368.169 782.58 367.938 783.291 368.057 784.131ZM367.382 776.446C367.483 777.159 367.858 777.696 368.507 778.056C369.154 778.401 369.968 778.504 370.95 778.365C371.917 778.228 372.655 777.906 373.164 777.398C373.69 776.887 373.903 776.275 373.802 775.562C373.699 774.833 373.325 774.305 372.681 773.976C372.05 773.629 371.251 773.523 370.285 773.66C369.302 773.799 368.549 774.124 368.023 774.634C367.495 775.129 367.281 775.733 367.382 776.446ZM380.34 782.612C380.172 781.424 380.378 780.361 380.956 779.422C381.548 778.466 382.398 777.796 383.508 777.413L383.609 777.956C382.541 777.833 381.672 777.463 381.004 776.846C380.35 776.228 379.953 775.419 379.812 774.421C379.682 773.502 379.821 772.659 380.23 771.89C380.638 771.121 381.266 770.475 382.113 769.951C382.976 769.425 384.001 769.078 385.189 768.91C386.378 768.742 387.443 768.793 388.386 769.064C389.343 769.316 390.118 769.764 390.71 770.408C391.315 771.033 391.685 771.821 391.82 772.772C391.961 773.77 391.795 774.658 391.324 775.435C390.85 776.197 390.115 776.77 389.118 777.153L389.024 776.657C389.816 776.658 390.536 776.839 391.185 777.2C391.832 777.545 392.36 778.02 392.768 778.624C393.193 779.227 393.462 779.932 393.577 780.74C393.725 781.786 393.577 782.744 393.135 783.614C392.706 784.467 392.023 785.177 391.085 785.746C390.163 786.313 389.029 786.691 387.683 786.882C386.352 787.07 385.157 787.021 384.099 786.734C383.056 786.446 382.203 785.952 381.538 785.254C380.888 784.538 380.488 783.658 380.34 782.612ZM383.281 781.978C383.359 782.533 383.57 782.996 383.913 783.367C384.273 783.736 384.737 783.994 385.307 784.14C385.893 784.283 386.566 784.301 387.327 784.193C388.055 784.09 388.673 783.89 389.181 783.592C389.704 783.291 390.08 782.923 390.309 782.487C390.552 782.032 390.633 781.52 390.552 780.95C390.433 780.11 390.007 779.492 389.272 779.095C388.553 778.695 387.639 778.574 386.53 778.731C385.421 778.888 384.569 779.259 383.973 779.844C383.393 780.427 383.162 781.138 383.281 781.978ZM382.606 774.293C382.707 775.006 383.081 775.543 383.73 775.903C384.377 776.248 385.191 776.351 386.174 776.212C387.14 776.075 387.878 775.753 388.388 775.244C388.914 774.734 389.126 774.122 389.025 773.409C388.922 772.68 388.548 772.152 387.904 771.823C387.273 771.475 386.475 771.37 385.508 771.507C384.526 771.646 383.772 771.971 383.246 772.481C382.718 772.976 382.505 773.58 382.606 774.293Z" fill="#FFFEFE" fill-opacity="0.4"/>
<path d="M405.223 844.345L397.112 845.492L390.563 799.168L408.243 796.669C413.482 795.928 417.738 796.619 421.011 798.742C424.327 800.859 426.307 804.198 426.952 808.761C427.388 811.845 427.043 814.587 425.917 816.987C424.828 819.338 422.991 821.279 420.406 822.808L431.902 840.573L423.03 841.827L412.726 825.638L402.777 827.045L405.223 844.345ZM399.696 805.246L401.765 819.884L411.334 818.531C413.911 818.167 415.825 817.228 417.076 815.716C418.328 814.203 418.789 812.285 418.46 809.961C418.132 807.638 417.163 805.965 415.553 804.943C413.938 803.879 411.841 803.529 409.264 803.893L399.696 805.246ZM446.618 839.333C443.323 839.799 440.578 839.282 438.384 837.782C436.226 836.235 434.941 834.003 434.529 831.088C434.123 828.215 434.793 825.794 436.54 823.823C438.323 821.804 441.052 820.384 444.728 819.563L453.999 817.477L453.901 816.78C453.698 815.343 453.262 814.242 452.593 813.474C451.961 812.659 451.132 812.13 450.106 811.887C449.075 811.602 447.905 811.552 446.595 811.737C444.314 812.059 442.626 812.772 441.532 813.874C440.433 814.935 439.999 816.289 440.232 817.936L433.642 818.868C433.319 816.587 433.612 814.542 434.519 812.733C435.463 810.876 436.926 809.333 438.907 808.105C440.93 806.871 443.336 806.057 446.124 805.663C448.955 805.263 451.455 805.426 453.627 806.153C455.792 806.838 457.564 808.096 458.943 809.926C460.316 811.715 461.209 814.066 461.621 816.981L464.308 835.992L457.528 836.951L456.304 832.405C455.855 834.106 454.73 835.601 452.93 836.89C451.172 838.172 449.068 838.987 446.618 839.333ZM448.265 833.154C450.673 832.813 452.479 831.869 453.682 830.32C454.927 828.765 455.38 826.783 455.039 824.375L454.806 822.728L448.351 824.157C445.973 824.709 444.333 825.458 443.433 826.404C442.526 827.308 442.163 828.393 442.342 829.66C442.539 831.055 443.153 832.045 444.184 832.632C445.215 833.219 446.575 833.393 448.265 833.154Z" fill="white" fill-opacity="0.4"/>
</svg>
