<svg width="1440" height="2765" viewBox="0 0 1440 2765" fill="none" xmlns="http://www.w3.org/2000/svg">
<rect x="1281" y="2527.72" width="118" height="118" rx="5" transform="rotate(-29.2849 1281 2527.72)" fill="#06B92D" fill-opacity="0.4"/>
<path d="M1297.04 2543.6C1296.46 2542.55 1296.26 2541.49 1296.46 2540.4C1296.67 2539.3 1297.22 2538.37 1298.11 2537.61L1298.4 2538.08C1297.36 2538.35 1296.42 2538.32 1295.57 2537.99C1294.74 2537.65 1294.08 2537.04 1293.58 2536.16C1293.13 2535.35 1292.96 2534.51 1293.06 2533.65C1293.16 2532.78 1293.51 2531.95 1294.11 2531.16C1294.72 2530.35 1295.55 2529.66 1296.6 2529.07C1297.65 2528.49 1298.66 2528.15 1299.64 2528.06C1300.62 2527.95 1301.5 2528.08 1302.29 2528.47C1303.08 2528.83 1303.71 2529.43 1304.18 2530.27C1304.67 2531.15 1304.84 2532.04 1304.68 2532.93C1304.52 2533.81 1304.04 2534.61 1303.25 2535.33L1302.98 2534.9C1303.72 2534.62 1304.46 2534.53 1305.19 2534.63C1305.92 2534.71 1306.58 2534.97 1307.18 2535.38C1307.8 2535.79 1308.3 2536.35 1308.7 2537.06C1309.22 2537.98 1309.43 2538.93 1309.33 2539.9C1309.24 2540.85 1308.86 2541.76 1308.19 2542.63C1307.54 2543.49 1306.62 2544.26 1305.43 2544.92C1304.26 2545.58 1303.13 2545.96 1302.04 2546.08C1300.96 2546.19 1299.99 2546.04 1299.12 2545.63C1298.25 2545.2 1297.56 2544.52 1297.04 2543.6ZM1299.56 2541.94C1299.83 2542.43 1300.19 2542.79 1300.65 2543.01C1301.12 2543.22 1301.64 2543.3 1302.23 2543.22C1302.83 2543.15 1303.46 2542.92 1304.13 2542.54C1304.77 2542.18 1305.27 2541.77 1305.64 2541.31C1306.02 2540.84 1306.24 2540.36 1306.29 2539.87C1306.35 2539.36 1306.24 2538.85 1305.96 2538.35C1305.55 2537.61 1304.92 2537.19 1304.1 2537.09C1303.28 2536.97 1302.38 2537.19 1301.41 2537.74C1300.43 2538.29 1299.77 2538.94 1299.43 2539.7C1299.1 2540.46 1299.14 2541.2 1299.56 2541.94ZM1296.14 2535.03C1296.49 2535.65 1297.04 2536.02 1297.77 2536.12C1298.5 2536.21 1299.3 2536.01 1300.16 2535.52C1301.01 2535.04 1301.59 2534.48 1301.88 2533.82C1302.18 2533.15 1302.16 2532.5 1301.81 2531.88C1301.45 2531.23 1300.91 2530.88 1300.19 2530.8C1299.47 2530.71 1298.69 2530.9 1297.84 2531.38C1296.97 2531.86 1296.39 2532.44 1296.08 2533.11C1295.77 2533.76 1295.79 2534.4 1296.14 2535.03ZM1315.61 2521.58L1312.93 2529.76L1310.48 2529.51L1313.08 2521.59L1313.35 2523.15L1306.02 2527.25L1304.7 2524.89L1314.41 2519.44L1315.61 2521.58ZM1313.32 2530.21L1311.46 2531.25L1310.48 2529.51C1310.63 2529.16 1310.9 2528.82 1311.29 2528.51C1311.68 2528.18 1312.06 2527.91 1312.44 2527.7C1313.16 2527.29 1313.92 2527.02 1314.7 2526.87C1315.48 2526.73 1316.24 2526.73 1316.99 2526.88C1317.74 2527.01 1318.44 2527.31 1319.08 2527.77C1319.72 2528.22 1320.26 2528.84 1320.71 2529.64C1321.29 2530.69 1321.56 2531.73 1321.5 2532.77C1321.44 2533.81 1321.11 2534.78 1320.49 2535.68C1319.89 2536.57 1319.07 2537.3 1318.04 2537.88C1317.03 2538.44 1316.01 2538.76 1314.99 2538.82C1313.96 2538.86 1313 2538.63 1312.1 2538.13C1311.2 2537.62 1310.45 2536.82 1309.83 2535.71L1312.47 2534.23C1312.96 2535.11 1313.59 2535.66 1314.35 2535.87C1315.12 2536.07 1315.92 2535.93 1316.74 2535.47C1317.58 2535 1318.11 2534.37 1318.33 2533.59C1318.55 2532.78 1318.43 2531.96 1317.96 2531.12C1317.53 2530.36 1316.92 2529.87 1316.12 2529.65C1315.31 2529.43 1314.38 2529.61 1313.32 2530.21Z" fill="#FFFEFE" fill-opacity="0.4"/>
<path d="M1337.12 2539.4L1360 2580.2L1352.86 2584.21L1329.97 2543.4L1337.12 2539.4ZM1359.31 2557.77L1348.09 2564.06L1344.71 2558.03L1355.54 2551.96C1357.51 2550.85 1358.75 2549.53 1359.25 2547.97C1359.72 2546.38 1359.45 2544.68 1358.43 2542.85C1357.45 2541.11 1356.16 2540.07 1354.56 2539.74C1352.96 2539.42 1351.13 2539.83 1349.09 2540.98L1338.26 2547.05L1334.72 2540.74L1346.16 2534.33C1350.22 2532.05 1353.95 2531.25 1357.37 2531.93C1360.78 2532.61 1363.45 2534.66 1365.37 2538.08C1366.74 2540.54 1367.31 2542.94 1367.06 2545.28C1366.78 2547.59 1365.68 2549.77 1363.76 2551.83L1363.32 2551.05C1366.18 2550.22 1368.72 2550.26 1370.95 2551.17C1373.17 2552.08 1375.01 2553.83 1376.47 2556.44C1377.76 2558.75 1378.36 2561.03 1378.25 2563.29C1378.13 2565.51 1377.31 2567.63 1375.81 2569.65C1374.31 2571.61 1372.17 2573.38 1369.38 2574.94L1357.6 2581.55L1354.07 2575.24L1365.51 2568.82C1367.56 2567.67 1368.85 2566.31 1369.38 2564.74C1369.92 2563.17 1369.68 2561.47 1368.65 2559.65C1367.69 2557.94 1366.4 2556.93 1364.76 2556.62C1363.14 2556.26 1361.32 2556.64 1359.31 2557.77ZM1388.21 2564.38L1372.75 2536.81L1379.56 2532.99L1395.02 2560.56L1388.21 2564.38ZM1373 2529.4C1371.84 2530.05 1370.64 2530.21 1369.38 2529.89C1368.14 2529.51 1367.2 2528.74 1366.55 2527.59C1365.9 2526.43 1365.75 2525.25 1366.1 2524.03C1366.48 2522.79 1367.24 2521.84 1368.4 2521.2C1369.55 2520.55 1370.74 2520.4 1371.96 2520.74C1373.21 2521.06 1374.17 2521.8 1374.81 2522.95C1375.46 2524.11 1375.6 2525.32 1375.24 2526.6C1374.9 2527.82 1374.15 2528.75 1373 2529.4Z" fill="white" fill-opacity="0.4"/>
<rect x="438" y="69.5984" width="118" height="118" rx="5" transform="rotate(-30.9003 438 69.5984)" fill="#DA6805" fill-opacity="0.4"/>
<path d="M452.573 74.7242L449.278 76.6965L447.861 74.3283L453.668 70.8522L462.679 85.9054L460.166 87.4092L452.573 74.7242ZM466.074 63.4262L475.085 78.4794L472.593 79.9709L463.582 64.9177L466.074 63.4262ZM461.859 79.3753L462.758 65.4108L465.538 63.7467L464.635 77.9376L461.859 79.3753ZM475.204 74.52L463.24 81.6817L461.859 79.3753L473.823 72.2136L475.204 74.52Z" fill="#FFFEFE" fill-opacity="0.4"/>
<path d="M491.795 96.4791C490.393 94.136 489.759 91.706 489.893 89.189C490.028 86.672 490.861 84.2838 492.393 82.0245C493.939 79.7066 496.122 77.7041 498.941 76.0169C501.65 74.3955 504.278 73.4691 506.825 73.2378C509.408 72.9845 511.775 73.4079 513.925 74.5079C516.112 75.5859 517.965 77.3112 519.484 79.6837L512.455 83.8907C511.352 82.2138 509.93 81.25 508.188 80.9993C506.425 80.7119 504.555 81.1599 502.578 82.3431C500.418 83.6359 498.975 85.1709 498.249 86.9482C497.537 88.667 497.685 90.3684 498.693 92.0525C499.547 93.4803 500.611 94.3852 501.884 94.7671C503.171 95.0904 504.778 94.9495 506.703 94.3443L513.873 91.9925C517.752 90.665 521.071 90.3943 523.829 91.1803C526.565 91.9297 528.831 93.8054 530.628 96.8075C532.096 99.2604 532.784 101.782 532.694 104.372C532.603 106.962 531.748 109.438 530.128 111.8C528.523 114.103 526.238 116.142 523.272 117.917C520.453 119.604 517.697 120.607 515.004 120.926C512.289 121.209 509.802 120.833 507.542 119.798C505.318 118.742 503.458 117.046 501.961 114.71L508.99 110.503C510.034 112.166 511.493 113.107 513.366 113.329C515.254 113.492 517.314 112.905 519.547 111.569C521.891 110.166 523.455 108.584 524.239 106.821C525.039 105 524.957 103.284 523.993 101.673C523.16 100.282 522.137 99.403 520.922 99.0358C519.686 98.632 518.146 98.7584 516.301 99.4149L509.076 101.8C505.233 103.105 501.863 103.332 498.967 102.48C496.048 101.591 493.658 99.591 491.795 96.4791ZM542.933 105.18L526.697 78.052L533.397 74.0422L549.633 101.171L542.933 105.18ZM526.738 70.6433C525.603 71.3225 524.403 71.5188 523.137 71.232C521.886 70.8867 520.921 70.1466 520.242 69.0117C519.563 67.8767 519.377 66.6948 519.686 65.4658C520.031 64.2149 520.772 63.2499 521.906 62.5706C523.041 61.8914 524.223 61.7061 525.452 62.0148C526.718 62.3016 527.69 63.0124 528.37 64.1473C529.049 65.2823 529.227 66.4935 528.903 67.781C528.595 69.0099 527.873 69.964 526.738 70.6433Z" fill="white" fill-opacity="0.4"/>
<rect x="888" y="917.097" width="118" height="118" rx="5" transform="rotate(-13.2755 888 917.097)" fill="#DA6805" fill-opacity="0.4"/>
<path d="M906.159 940.507C904.975 940.786 903.877 940.799 902.863 940.545C901.862 940.271 901.011 939.765 900.31 939.026C899.622 938.268 899.141 937.313 898.869 936.161L901.813 935.466C902.04 936.432 902.491 937.123 903.165 937.539C903.838 937.955 904.65 938.051 905.6 937.827C906.27 937.669 906.815 937.401 907.235 937.022C907.667 936.624 907.955 936.137 908.098 935.561C908.257 934.981 908.256 934.348 908.094 933.663C907.94 933.009 907.672 932.464 907.289 932.028C906.919 931.573 906.459 931.262 905.91 931.096C905.361 930.93 904.744 930.927 904.059 931.089C903.405 931.243 902.833 931.535 902.342 931.963C901.863 932.372 901.521 932.839 901.316 933.364L898.545 933.426L898.535 923.984L907.435 921.884L908.085 924.64L900.564 926.415L901.348 925.244L901.254 931.011L900.349 931.669C900.554 930.864 900.986 930.187 901.645 929.637C902.316 929.067 903.127 928.671 904.077 928.446C905.213 928.178 906.259 928.186 907.214 928.47C908.184 928.751 909.004 929.264 909.674 930.011C910.355 930.738 910.828 931.662 911.092 932.783C911.383 934.013 911.366 935.16 911.041 936.223C910.732 937.282 910.157 938.19 909.317 938.947C908.488 939.686 907.435 940.205 906.159 940.507Z" fill="#FFFEFE" fill-opacity="0.4"/>
<path d="M946.364 941.516L957.108 987.05L949.135 988.931L938.391 943.397L946.364 941.516ZM962.628 965.297L950.108 968.251L948.521 961.524L960.605 958.672C962.806 958.153 964.36 957.216 965.268 955.862C966.166 954.467 966.375 952.752 965.895 950.717C965.435 948.765 964.48 947.412 963.031 946.658C961.581 945.904 959.715 945.797 957.431 946.336L945.347 949.187L943.686 942.148L956.455 939.135C960.982 938.067 964.792 938.33 967.886 939.923C970.98 941.517 972.977 944.224 973.879 948.044C974.525 950.785 974.405 953.246 973.517 955.429C972.619 957.569 970.96 959.364 968.54 960.811L968.334 959.939C971.315 959.937 973.747 960.679 975.632 962.163C977.516 963.647 978.802 965.843 979.487 968.75C980.095 971.324 980.038 973.683 979.316 975.826C978.584 977.928 977.215 979.741 975.207 981.267C973.232 982.741 970.687 983.846 967.572 984.581L954.429 987.682L952.768 980.643L965.538 977.63C967.822 977.091 969.439 976.14 970.388 974.776C971.338 973.412 971.572 971.713 971.092 969.678C970.642 967.768 969.671 966.441 968.18 965.697C966.721 964.901 964.87 964.768 962.628 965.297Z" fill="white" fill-opacity="0.4"/>
<rect x="1171.04" y="798" width="118" height="118" rx="5" transform="rotate(7.32413 1171.04 798)" fill="#06B92D" fill-opacity="0.4"/>
<path d="M1195.97 885.702L1187.59 884.625L1210.31 840.376L1218.63 841.445L1229.42 890.001L1220.85 888.9L1218.49 877.691L1201.16 875.463L1195.97 885.702ZM1211.64 854.614L1204.39 868.91L1217.02 870.533L1213.61 854.867C1213.52 854.211 1213.42 853.551 1213.29 852.889C1213.16 852.227 1213.1 851.661 1213.12 851.19C1212.98 851.602 1212.76 852.133 1212.46 852.783C1212.21 853.396 1211.94 854.007 1211.64 854.614ZM1241.91 891.606L1234.22 890.619L1240.3 843.391L1247.98 844.378L1241.91 891.606Z" fill="white" fill-opacity="0.4"/>
<path d="M1179.32 811.044L1175.51 810.555L1175.86 807.817L1182.58 808.68L1180.34 826.081L1177.44 825.708L1179.32 811.044ZM1196.56 812.944L1189.53 817.921L1187.71 816.26L1194.52 811.448L1193.81 812.857L1185.48 811.787L1185.82 809.097L1196.87 810.516L1196.56 812.944ZM1189.58 818.507L1187.46 818.235L1187.71 816.26C1188.04 816.06 1188.46 815.953 1188.96 815.936C1189.47 815.904 1189.93 815.916 1190.36 815.971C1191.19 816.077 1191.96 816.305 1192.67 816.654C1193.38 817.004 1193.99 817.462 1194.5 818.027C1195.03 818.579 1195.41 819.233 1195.65 819.99C1195.9 820.731 1195.96 821.554 1195.84 822.458C1195.69 823.648 1195.28 824.644 1194.61 825.446C1193.94 826.247 1193.1 826.824 1192.07 827.176C1191.05 827.529 1189.96 827.631 1188.79 827.48C1187.64 827.333 1186.64 826.979 1185.78 826.416C1184.93 825.84 1184.29 825.08 1183.87 824.138C1183.46 823.198 1183.33 822.101 1183.49 820.847L1186.49 821.233C1186.36 822.232 1186.54 823.046 1187.02 823.673C1187.53 824.286 1188.25 824.652 1189.18 824.772C1190.13 824.895 1190.93 824.707 1191.58 824.209C1192.24 823.697 1192.63 822.965 1192.75 822.013C1192.87 821.14 1192.67 820.381 1192.15 819.734C1191.64 819.071 1190.78 818.662 1189.58 818.507Z" fill="#FFFEFE" fill-opacity="0.4"/>
<rect x="1328.04" y="1881" width="118" height="118" rx="5" transform="rotate(7.32413 1328.04 1881)" fill="#06B92D" fill-opacity="0.4"/>
<path d="M1355.12 1921.84L1349.16 1968.24L1341.03 1967.2L1347 1920.79L1355.12 1921.84ZM1361.43 1953.56L1349.25 1951.99L1350.18 1944.75L1360.65 1946.1C1363.44 1946.46 1365.65 1946.03 1367.27 1944.82C1368.93 1943.57 1369.93 1941.68 1370.26 1939.14C1370.58 1936.6 1370.09 1934.56 1368.79 1933.01C1367.52 1931.48 1365.53 1930.53 1362.83 1930.18L1351.46 1928.72L1352.39 1921.49L1365.34 1923.15C1368.47 1923.55 1371.1 1924.54 1373.22 1926.1C1375.35 1927.66 1376.89 1929.67 1377.87 1932.12C1378.85 1934.52 1379.15 1937.25 1378.75 1940.3C1378.37 1943.26 1377.4 1945.82 1375.83 1947.99C1374.27 1950.11 1372.26 1951.68 1369.8 1952.7C1367.36 1953.67 1364.57 1953.96 1361.43 1953.56ZM1379.13 1956.09C1379.55 1952.83 1380.63 1950.07 1382.39 1947.8C1384.15 1945.49 1386.39 1943.79 1389.1 1942.72C1391.82 1941.65 1394.79 1941.33 1398.01 1941.74C1401.27 1942.16 1404.05 1943.23 1406.37 1944.94C1408.73 1946.67 1410.47 1948.87 1411.59 1951.55C1412.71 1954.19 1413.06 1957.14 1412.64 1960.4C1412.22 1963.66 1411.14 1966.44 1409.38 1968.75C1407.62 1971.02 1405.38 1972.69 1402.67 1973.76C1399.99 1974.84 1397.02 1975.17 1393.76 1974.75C1390.55 1974.33 1387.76 1973.27 1385.4 1971.54C1383.04 1969.82 1381.3 1967.64 1380.18 1965C1379.06 1962.32 1378.71 1959.35 1379.13 1956.09ZM1386.87 1957.08C1386.63 1958.99 1386.79 1960.71 1387.37 1962.25C1387.99 1963.79 1388.9 1965.05 1390.11 1966.02C1391.36 1967 1392.88 1967.6 1394.65 1967.83C1396.43 1968.06 1398.05 1967.86 1399.51 1967.23C1400.96 1966.6 1402.17 1965.61 1403.11 1964.27C1404.06 1962.93 1404.65 1961.31 1404.9 1959.4C1405.15 1957.46 1404.98 1955.73 1404.4 1954.24C1403.82 1952.7 1402.91 1951.45 1401.66 1950.47C1400.41 1949.49 1398.89 1948.89 1397.12 1948.66C1395.34 1948.43 1393.72 1948.63 1392.26 1949.26C1390.85 1949.9 1389.65 1950.88 1388.66 1952.22C1387.72 1953.52 1387.12 1955.14 1386.87 1957.08Z" fill="white" fill-opacity="0.4"/>
<path d="M1331.45 1903.32C1331.6 1902.13 1332.08 1901.15 1332.89 1900.4C1333.71 1899.64 1334.71 1899.22 1335.88 1899.14L1335.84 1899.69C1334.84 1899.29 1334.1 1898.7 1333.62 1897.93C1333.15 1897.16 1332.98 1896.28 1333.11 1895.28C1333.23 1894.36 1333.59 1893.58 1334.19 1892.95C1334.78 1892.31 1335.56 1891.86 1336.52 1891.58C1337.49 1891.3 1338.57 1891.24 1339.76 1891.39C1340.95 1891.54 1341.96 1891.87 1342.8 1892.38C1343.66 1892.88 1344.28 1893.52 1344.68 1894.3C1345.1 1895.06 1345.25 1895.92 1345.13 1896.87C1345 1897.87 1344.6 1898.68 1343.94 1899.31C1343.28 1899.92 1342.42 1900.27 1341.36 1900.38L1341.4 1899.88C1342.17 1900.09 1342.81 1900.45 1343.34 1900.97C1343.87 1901.48 1344.26 1902.07 1344.49 1902.76C1344.74 1903.46 1344.81 1904.21 1344.71 1905.02C1344.58 1906.07 1344.18 1906.95 1343.52 1907.67C1342.88 1908.38 1342.04 1908.89 1340.98 1909.19C1339.94 1909.49 1338.75 1909.55 1337.4 1909.38C1336.07 1909.21 1334.93 1908.84 1333.98 1908.29C1333.05 1907.73 1332.36 1907.03 1331.91 1906.18C1331.47 1905.32 1331.32 1904.36 1331.45 1903.32ZM1334.45 1903.48C1334.38 1904.04 1334.46 1904.54 1334.7 1904.99C1334.94 1905.44 1335.32 1905.81 1335.84 1906.1C1336.36 1906.4 1337.01 1906.59 1337.77 1906.69C1338.5 1906.79 1339.15 1906.76 1339.72 1906.6C1340.3 1906.45 1340.76 1906.2 1341.1 1905.84C1341.45 1905.46 1341.67 1904.99 1341.74 1904.42C1341.85 1903.58 1341.6 1902.87 1341 1902.29C1340.41 1901.72 1339.56 1901.36 1338.45 1901.21C1337.34 1901.07 1336.42 1901.2 1335.69 1901.61C1334.97 1902.02 1334.56 1902.64 1334.45 1903.48ZM1335.84 1895.89C1335.75 1896.61 1335.97 1897.23 1336.5 1897.74C1337.03 1898.25 1337.79 1898.56 1338.77 1898.69C1339.74 1898.81 1340.54 1898.7 1341.16 1898.34C1341.81 1897.99 1342.17 1897.46 1342.26 1896.74C1342.36 1896.01 1342.14 1895.4 1341.6 1894.92C1341.09 1894.41 1340.35 1894.1 1339.38 1893.98C1338.39 1893.85 1337.58 1893.96 1336.94 1894.32C1336.3 1894.65 1335.93 1895.18 1335.84 1895.89ZM1359.61 1894.25L1357.38 1911.65L1354.5 1911.28L1356.73 1893.88L1359.61 1894.25ZM1346.43 1904.18L1355.78 1893.76L1358.99 1894.17L1349.5 1904.76L1346.43 1904.18ZM1359.92 1908.62L1346.09 1906.84L1346.43 1904.18L1360.26 1905.95L1359.92 1908.62Z" fill="#FFFEFE" fill-opacity="0.4"/>
<rect x="795.043" y="711" width="118" height="118" rx="5" transform="rotate(7.32413 795.043 711)" fill="#5900FF" fill-opacity="0.3"/>
<path d="M809.985 739.781L797.914 738.255L798.207 735.97L804.514 731.892C805.164 731.475 805.714 731.086 806.164 730.725C806.63 730.365 807.005 730.018 807.29 729.684C807.575 729.349 807.796 729.007 807.954 728.656C808.112 728.305 808.219 727.916 808.274 727.487C808.4 726.503 808.244 725.709 807.806 725.104C807.367 724.499 806.688 724.138 805.767 724.02C804.815 723.897 804.021 724.118 803.384 724.681C802.747 725.245 802.349 726.081 802.19 727.19L799.167 726.801C799.346 725.534 799.75 724.464 800.378 723.593C801.008 722.706 801.816 722.068 802.801 721.679C803.789 721.273 804.894 721.149 806.116 721.306C807.354 721.465 808.387 721.832 809.217 722.406C810.064 722.966 810.68 723.699 811.064 724.603C811.448 725.507 811.565 726.547 811.414 727.721C811.336 728.324 811.175 728.892 810.929 729.425C810.701 729.944 810.386 730.444 809.986 730.925C809.587 731.39 809.108 731.853 808.549 732.314C807.99 732.774 807.34 733.247 806.6 733.733L801.898 736.807L800.923 735.738L810.349 736.949L809.985 739.781ZM817.636 741.079C816.43 740.924 815.397 740.549 814.538 739.955C813.696 739.347 813.078 738.574 812.682 737.636C812.304 736.684 812.191 735.621 812.342 734.446L815.341 734.831C815.215 735.815 815.394 736.621 815.878 737.248C816.362 737.874 817.088 738.25 818.056 738.374C818.738 738.462 819.343 738.402 819.869 738.196C820.414 737.975 820.855 737.621 821.192 737.132C821.545 736.645 821.766 736.052 821.856 735.354C821.941 734.687 821.882 734.083 821.677 733.54C821.491 732.984 821.17 732.531 820.714 732.182C820.259 731.834 819.682 731.614 818.984 731.525C818.318 731.439 817.679 731.51 817.069 731.738C816.477 731.953 815.993 732.27 815.616 732.689L813 731.772L816.313 722.93L825.383 724.095L825.022 726.904L817.357 725.92L818.503 725.099L816.386 730.465L815.307 730.762C815.782 730.081 816.425 729.599 817.235 729.316C818.064 729.019 818.962 728.933 819.93 729.057C821.089 729.206 822.065 729.581 822.859 730.183C823.668 730.787 824.255 731.557 824.619 732.49C825.001 733.411 825.118 734.442 824.972 735.585C824.811 736.838 824.391 737.906 823.713 738.786C823.051 739.669 822.194 740.317 821.141 740.73C820.105 741.13 818.937 741.246 817.636 741.079Z" fill="#FFFEFE" fill-opacity="0.4"/>
<path d="M808.906 797.207L801.034 796.196L806.999 749.794L814.87 750.805L825.102 789.675L844.831 754.656L852.83 755.684L846.865 802.086L838.994 801.075L840.83 786.792C841.129 784.465 841.379 782.518 841.58 780.952C841.787 779.344 841.982 777.993 842.166 776.898C842.35 775.803 842.517 774.835 842.668 773.994C842.82 773.153 843.013 772.318 843.249 771.488L827.632 799.614L820.141 798.652L812.2 767.562C812.232 768.985 812.13 770.779 811.895 772.943C811.703 775.112 811.419 777.656 811.043 780.576L808.906 797.207ZM863.737 804.255L855.993 803.26L860.023 771.902L867.196 772.824L867.309 776.968C868.483 775.527 870.017 774.477 871.908 773.816C873.842 773.162 875.867 772.97 877.983 773.242C881.919 773.748 884.731 775.292 886.421 777.876C888.153 780.464 888.761 783.769 888.244 787.789L885.764 807.086L878.02 806.091L880.263 788.634C880.601 786.011 880.258 783.988 879.237 782.566C878.22 781.102 876.696 780.239 874.665 779.978C872.253 779.668 870.272 780.188 868.722 781.537C867.172 782.887 866.234 784.831 865.907 787.37L863.737 804.255Z" fill="white" fill-opacity="0.4"/>
<rect x="15.043" y="2007" width="118" height="118" rx="5" transform="rotate(7.32413 15.043 2007)" fill="#5900FF" fill-opacity="0.3"/>
<path d="M29.9854 2035.78L17.9135 2034.25L18.2071 2031.97L24.514 2027.89C25.1644 2027.48 25.7144 2027.09 26.1642 2026.72C26.6298 2026.37 27.0051 2026.02 27.29 2025.68C27.5749 2025.35 27.7964 2025.01 27.9544 2024.66C28.1123 2024.31 28.2188 2023.92 28.2739 2023.49C28.4003 2022.5 28.2442 2021.71 27.8057 2021.1C27.3672 2020.5 26.6877 2020.14 25.7673 2020.02C24.8151 2019.9 24.0205 2020.12 23.3835 2020.68C22.7466 2021.24 22.3488 2022.08 22.1902 2023.19L19.167 2022.8C19.346 2021.53 19.7495 2020.46 20.3776 2019.59C21.0078 2018.71 21.8157 2018.07 22.8014 2017.68C23.7891 2017.27 24.8939 2017.15 26.1159 2017.31C27.3537 2017.46 28.3874 2017.83 29.217 2018.41C30.0645 2018.97 30.6802 2019.7 31.0641 2020.6C31.448 2021.51 31.5645 2022.55 31.4137 2023.72C31.3362 2024.32 31.1745 2024.89 30.9286 2025.43C30.7006 2025.94 30.3863 2026.44 29.9858 2026.93C29.5873 2027.39 29.1084 2027.85 28.5492 2028.31C27.99 2028.77 27.3404 2029.25 26.6005 2029.73L21.8985 2032.81L20.9227 2031.74L30.3493 2032.95L29.9854 2035.78ZM42.7531 2032.24L38.3345 2036.88L34.8591 2036.43L40.6037 2030.52L41.341 2030.8C40.9531 2031.06 40.4851 2031.25 39.9369 2031.37C39.4067 2031.48 38.8956 2031.51 38.4036 2031.44C37.2134 2031.29 36.1986 2030.9 35.3593 2030.28C34.522 2029.64 33.9075 2028.83 33.5159 2027.86C33.1263 2026.88 33.007 2025.8 33.1578 2024.62C33.3168 2023.38 33.7352 2022.33 34.413 2021.44C35.1066 2020.57 35.971 2019.93 37.0064 2019.53C38.0596 2019.11 39.2051 2018.99 40.4429 2019.15C41.6966 2019.31 42.7788 2019.74 43.6893 2020.43C44.6177 2021.12 45.3064 2021.97 45.7554 2023C46.2044 2024.02 46.3525 2025.13 46.1996 2026.32C46.1099 2027.02 45.938 2027.67 45.6839 2028.26C45.4299 2028.86 45.0686 2029.48 44.6 2030.11C44.1335 2030.73 43.5179 2031.44 42.7531 2032.24ZM43.0843 2025.9C43.176 2025.18 43.1137 2024.54 42.8973 2023.96C42.681 2023.39 42.3304 2022.91 41.8454 2022.54C41.3604 2022.18 40.7767 2021.95 40.0944 2021.86C39.4278 2021.77 38.8134 2021.85 38.2509 2022.08C37.7044 2022.32 37.2536 2022.69 36.8986 2023.19C36.5437 2023.69 36.3203 2024.3 36.2286 2025.02C36.1389 2025.72 36.2022 2026.35 36.4186 2026.93C36.6369 2027.49 36.9807 2027.95 37.4498 2028.32C37.9347 2028.69 38.5105 2028.92 39.177 2029C39.8753 2029.09 40.4977 2029.02 41.0442 2028.78C41.6067 2028.55 42.0643 2028.19 42.4173 2027.7C42.7722 2027.2 42.9946 2026.6 43.0843 2025.9Z" fill="#FFFEFE" fill-opacity="0.4"/>
<path d="M44.5511 2096.48C40.023 2095.9 36.2125 2094.42 33.1196 2092.04C30.0744 2089.63 27.8492 2086.52 26.4441 2082.73C25.0867 2078.9 24.7208 2074.55 25.3463 2069.68C25.9664 2064.86 27.4386 2060.77 29.7629 2057.41C32.1296 2054.06 35.1547 2051.61 38.8381 2050.06C42.5216 2048.51 46.6062 2048.03 51.0919 2048.6C54.7737 2049.08 57.9875 2050.18 60.7334 2051.91C63.4793 2053.64 65.6467 2055.85 67.2356 2058.55C68.8299 2061.21 69.6661 2064.24 69.7442 2067.65L61.1747 2066.55C60.7188 2063.73 59.4857 2061.45 57.4755 2059.68C55.5131 2057.88 52.9661 2056.78 49.8345 2056.38C47.0415 2056.02 44.5027 2056.36 42.2181 2057.4C39.9759 2058.44 38.1285 2060.1 36.6758 2062.36C35.2232 2064.63 34.282 2067.43 33.8523 2070.78C33.439 2073.99 33.6458 2076.9 34.473 2079.5C35.3055 2082.06 36.6716 2084.15 38.5711 2085.77C40.5184 2087.36 42.8886 2088.33 45.6816 2088.69C48.8555 2089.1 51.6618 2088.68 54.1005 2087.45C56.5815 2086.22 58.3688 2084.36 59.4623 2081.88L67.9049 2082.96C66.899 2086.1 65.2439 2088.77 62.9394 2090.97C60.6773 2093.17 57.9569 2094.76 54.7782 2095.73C51.6419 2096.7 48.2328 2096.95 44.5511 2096.48ZM97.3536 2070.61L105.098 2071.61L101.067 2102.97L93.8944 2102.05L93.8616 2097.78C92.7402 2099.14 91.1887 2100.17 89.207 2100.86C87.2253 2101.55 85.1765 2101.76 83.0606 2101.49C79.4635 2101.03 76.7962 2099.53 75.0586 2096.98C73.3211 2094.43 72.6971 2091.26 73.1866 2087.45L75.7077 2067.83L83.452 2068.83L81.2817 2085.71C80.901 2088.68 81.1976 2090.89 82.1716 2092.34C83.1456 2093.8 84.7117 2094.67 86.8699 2094.95C89.3244 2095.26 91.2366 2094.78 92.6064 2093.49C93.9817 2092.16 94.8597 2090.02 95.2405 2087.06L97.3536 2070.61Z" fill="white" fill-opacity="0.4"/>
<rect x="621.582" y="2566" width="118" height="118" rx="5" transform="rotate(26.4622 621.582 2566)" fill="#5900FF" fill-opacity="0.3"/>
<path d="M626.263 2598.09L615.359 2592.69L616.385 2590.63L623.68 2588.84C624.431 2588.66 625.078 2588.47 625.622 2588.28C626.18 2588.09 626.648 2587.89 627.027 2587.67C627.406 2587.44 627.727 2587.19 627.991 2586.91C628.256 2586.63 628.484 2586.3 628.676 2585.91C629.118 2585.03 629.231 2584.22 629.015 2583.51C628.799 2582.79 628.276 2582.23 627.445 2581.82C626.586 2581.39 625.763 2581.34 624.976 2581.66C624.19 2581.98 623.54 2582.64 623.027 2583.64L620.298 2582.28C620.882 2581.14 621.614 2580.26 622.493 2579.65C623.379 2579.01 624.352 2578.68 625.411 2578.63C626.477 2578.57 627.561 2578.82 628.664 2579.37C629.782 2579.92 630.638 2580.61 631.233 2581.42C631.85 2582.23 632.192 2583.12 632.258 2584.1C632.324 2585.08 632.094 2586.1 631.566 2587.16C631.295 2587.71 630.956 2588.19 630.549 2588.61C630.163 2589.03 629.703 2589.4 629.167 2589.72C628.638 2590.03 628.033 2590.31 627.354 2590.56C626.675 2590.82 625.906 2591.05 625.048 2591.27L619.598 2592.63L619.027 2591.3L627.535 2595.53L626.263 2598.09ZM630.139 2594.5C630.673 2593.42 631.445 2592.66 632.453 2592.22C633.482 2591.76 634.563 2591.69 635.694 2592.01L635.469 2592.51C634.659 2591.8 634.153 2591.01 633.951 2590.12C633.764 2589.24 633.894 2588.35 634.344 2587.45C634.757 2586.62 635.35 2586 636.122 2585.6C636.894 2585.2 637.777 2585.02 638.772 2585.07C639.781 2585.12 640.823 2585.42 641.897 2585.95C642.971 2586.49 643.82 2587.13 644.444 2587.89C645.09 2588.64 645.474 2589.45 645.597 2590.31C645.742 2591.17 645.6 2592.03 645.173 2592.89C644.724 2593.79 644.084 2594.43 643.255 2594.8C642.433 2595.16 641.503 2595.22 640.465 2594.97L640.668 2594.51C641.32 2594.96 641.811 2595.52 642.141 2596.18C642.479 2596.83 642.645 2597.52 642.639 2598.25C642.647 2598.99 642.47 2599.72 642.106 2600.45C641.636 2601.4 640.972 2602.1 640.114 2602.57C639.278 2603.03 638.312 2603.23 637.217 2603.17C636.137 2603.11 634.988 2602.78 633.77 2602.17C632.567 2601.58 631.61 2600.86 630.9 2600.02C630.205 2599.19 629.781 2598.3 629.629 2597.35C629.498 2596.39 629.668 2595.44 630.139 2594.5ZM632.921 2595.64C632.671 2596.14 632.583 2596.64 632.655 2597.14C632.742 2597.65 632.979 2598.13 633.366 2598.57C633.768 2599.02 634.312 2599.41 635 2599.76C635.659 2600.08 636.282 2600.27 636.868 2600.31C637.47 2600.36 637.988 2600.27 638.424 2600.04C638.882 2599.8 639.239 2599.43 639.495 2598.91C639.873 2598.15 639.872 2597.4 639.491 2596.66C639.125 2595.92 638.44 2595.3 637.438 2594.8C636.435 2594.31 635.522 2594.13 634.7 2594.27C633.891 2594.42 633.298 2594.88 632.921 2595.64ZM636.718 2588.92C636.398 2589.57 636.402 2590.22 636.733 2590.89C637.07 2591.54 637.683 2592.08 638.571 2592.53C639.445 2592.96 640.236 2593.11 640.944 2592.98C641.666 2592.86 642.188 2592.48 642.509 2591.83C642.837 2591.17 642.828 2590.53 642.484 2589.89C642.161 2589.25 641.562 2588.71 640.688 2588.27C639.8 2587.83 638.995 2587.67 638.273 2587.79C637.557 2587.9 637.039 2588.28 636.718 2588.92Z" fill="#FFFEFE" fill-opacity="0.4"/>
<path d="M620.045 2658.85L612.826 2655.26L633.673 2613.38L640.95 2617L646.323 2660.78L644.204 2659.72L660.602 2626.78L667.821 2630.37L646.974 2672.26L639.755 2668.66L634.295 2624.91L636.415 2625.96L620.045 2658.85ZM655.213 2676.36L669.302 2648.05L676.292 2651.53L662.203 2679.84L655.213 2676.36ZM675.563 2644.09C674.379 2643.5 673.566 2642.6 673.125 2641.38C672.741 2640.14 672.844 2638.93 673.433 2637.74C674.023 2636.56 674.918 2635.76 676.12 2635.36C677.359 2634.98 678.571 2635.08 679.755 2635.67C680.939 2636.26 681.733 2637.16 682.136 2638.36C682.577 2639.58 682.502 2640.78 681.913 2641.96C681.324 2643.15 680.4 2643.95 679.141 2644.37C677.94 2644.78 676.747 2644.68 675.563 2644.09Z" fill="white" fill-opacity="0.4"/>
<rect x="1292" y="339.316" width="118" height="118" rx="5" transform="rotate(-12.3885 1292 339.316)" fill="#0080FF" fill-opacity="0.3"/>
<path d="M1304.19 348.803L1300.44 349.627L1299.85 346.932L1306.46 345.479L1310.22 362.614L1307.36 363.243L1304.19 348.803ZM1308.76 344.973L1321.07 342.269L1321.68 345.035L1309.37 347.739L1308.76 344.973ZM1319 344.05L1321.68 345.035L1318.62 360.769L1315.5 361.454L1319 344.05Z" fill="#FFFEFE" fill-opacity="0.4"/>
<path d="M1360.02 411.257C1355.56 412.236 1351.47 412.129 1347.76 410.935C1344.08 409.691 1340.94 407.519 1338.33 404.422C1335.76 401.273 1333.95 397.303 1332.9 392.51C1331.86 387.759 1331.86 383.412 1332.92 379.467C1334.01 375.512 1336.04 372.185 1338.98 369.485C1341.93 366.785 1345.61 364.95 1350.02 363.98C1353.65 363.183 1357.05 363.136 1360.22 363.838C1363.38 364.54 1366.17 365.893 1368.58 367.899C1370.97 369.862 1372.78 372.435 1374.01 375.617L1365.57 377.471C1364.19 374.978 1362.26 373.24 1359.77 372.257C1357.32 371.224 1354.55 371.046 1351.46 371.723C1348.71 372.327 1346.44 373.504 1344.64 375.254C1342.88 376.994 1341.7 379.176 1341.1 381.798C1340.49 384.421 1340.55 387.378 1341.28 390.67C1341.97 393.837 1343.15 396.506 1344.8 398.676C1346.45 400.804 1348.44 402.311 1350.78 403.196C1353.14 404.03 1355.7 404.145 1358.45 403.541C1361.58 402.854 1364.08 401.518 1365.96 399.533C1367.88 397.538 1368.94 395.188 1369.13 392.481L1377.44 390.655C1377.55 393.95 1376.9 397.021 1375.47 399.869C1374.08 402.707 1372.06 405.117 1369.39 407.101C1366.77 409.075 1363.64 410.461 1360.02 411.257ZM1394.23 402.956L1386.66 404.618L1376.45 358.11L1384.01 356.449L1394.23 402.956Z" fill="white" fill-opacity="0.4"/>
<rect x="55" y="964.315" width="118" height="118" rx="5" transform="rotate(-22.0586 55 964.315)" fill="#0080FF" fill-opacity="0.3"/>
<path d="M73.3052 971.241L69.7464 972.684L68.7097 970.126L74.9821 967.584L81.572 983.843L78.8584 984.943L73.3052 971.241Z" fill="#FFFEFE" fill-opacity="0.4"/>
<path d="M131.424 1024.11L123.831 1027.19L106.261 983.83L113.854 980.754L121.136 998.726L140.355 990.939L133.072 972.966L140.664 969.89L158.234 1013.25L150.642 1016.33L143.191 997.938L123.973 1005.73L131.424 1024.11Z" fill="white" fill-opacity="0.4"/>
<rect x="943" y="2655.32" width="118" height="118" rx="5" transform="rotate(-22.0586 943 2655.32)" fill="#0080FF" fill-opacity="0.3"/>
<path d="M961.305 2662.24L957.746 2663.68L956.71 2661.13L962.982 2658.58L969.572 2674.84L966.858 2675.94L961.305 2662.24ZM970.024 2661.3L971.6 2655.09L974.847 2653.77L972.744 2661.75L971.96 2661.86C972.166 2661.43 972.474 2661.04 972.882 2660.68C973.305 2660.32 973.747 2660.05 974.206 2659.86C975.318 2659.41 976.396 2659.26 977.44 2659.41C978.477 2659.54 979.408 2659.94 980.231 2660.6C981.048 2661.26 981.679 2662.13 982.123 2663.23C982.592 2664.39 982.74 2665.52 982.567 2666.62C982.402 2667.71 981.963 2668.69 981.248 2669.57C980.547 2670.44 979.619 2671.11 978.462 2671.58C977.291 2672.05 976.133 2672.22 974.989 2672.08C973.859 2671.93 972.847 2671.52 971.952 2670.85C971.052 2670.16 970.376 2669.26 969.926 2668.15C969.655 2667.48 969.48 2666.84 969.4 2666.21C969.328 2665.57 969.342 2664.85 969.439 2664.07C969.551 2663.28 969.746 2662.36 970.024 2661.3ZM972.848 2666.99C973.119 2667.66 973.49 2668.19 973.961 2668.58C974.447 2668.97 974.984 2669.21 975.573 2669.3C976.177 2669.39 976.797 2669.3 977.435 2669.04C978.058 2668.79 978.549 2668.43 978.909 2667.95C979.27 2667.48 979.481 2666.93 979.544 2666.32C979.621 2665.7 979.525 2665.06 979.254 2664.39C978.99 2663.74 978.618 2663.23 978.137 2662.85C977.666 2662.46 977.136 2662.21 976.548 2662.12C975.959 2662.03 975.353 2662.12 974.73 2662.37C974.093 2662.63 973.586 2663 973.211 2663.48C972.836 2663.96 972.617 2664.5 972.555 2665.11C972.486 2665.71 972.584 2666.34 972.848 2666.99Z" fill="#FFFEFE" fill-opacity="0.4"/>
<path d="M1003.05 2685.9C1002.03 2683.37 1001.77 2680.87 1002.29 2678.41C1002.81 2675.94 1004 2673.71 1005.87 2671.71C1007.75 2669.66 1010.21 2668.02 1013.26 2666.78C1016.19 2665.6 1018.92 2665.08 1021.48 2665.25C1024.07 2665.39 1026.34 2666.18 1028.3 2667.59C1030.29 2668.99 1031.86 2670.98 1032.99 2673.56L1025.4 2676.64C1024.57 2674.81 1023.31 2673.64 1021.63 2673.13C1019.93 2672.57 1018.02 2672.73 1015.88 2673.59C1013.55 2674.54 1011.89 2675.83 1010.89 2677.48C1009.93 2679.07 1009.81 2680.77 1010.55 2682.59C1011.17 2684.13 1012.09 2685.19 1013.29 2685.76C1014.51 2686.28 1016.12 2686.39 1018.11 2686.08L1025.56 2684.86C1029.6 2684.15 1032.92 2684.39 1035.52 2685.59C1038.11 2686.75 1040.06 2688.95 1041.37 2692.2C1042.45 2694.84 1042.74 2697.44 1042.25 2699.99C1041.76 2702.53 1040.54 2704.85 1038.58 2706.93C1036.64 2708.96 1034.06 2710.63 1030.86 2711.92C1027.82 2713.16 1024.94 2713.72 1022.23 2713.63C1019.5 2713.49 1017.1 2712.73 1015.03 2711.36C1012.99 2709.98 1011.42 2708.02 1010.3 2705.48L1017.89 2702.4C1018.66 2704.21 1019.96 2705.36 1021.78 2705.87C1023.62 2706.32 1025.74 2706.06 1028.16 2705.08C1030.69 2704.05 1032.48 2702.73 1033.52 2701.11C1034.59 2699.43 1034.77 2697.72 1034.07 2695.98C1033.46 2694.48 1032.58 2693.45 1031.44 2692.91C1030.28 2692.32 1028.74 2692.2 1026.82 2692.57L1019.31 2693.82C1015.31 2694.51 1011.95 2694.22 1009.22 2692.93C1006.47 2691.61 1004.42 2689.26 1003.05 2685.9Z" fill="white" fill-opacity="0.4"/>
<rect x="22.1328" y="2368" width="118" height="118" rx="5" transform="rotate(21.4402 22.1328 2368)" fill="#0080FF" fill-opacity="0.3"/>
<path d="M27.4744 2381.41L39.2028 2386.02L38.1678 2388.66L26.4394 2384.05L27.4744 2381.41ZM36.4952 2386.35L38.1678 2388.66L26.871 2400.03L23.8999 2398.86L36.4952 2386.35Z" fill="#FFFEFE" fill-opacity="0.4"/>
<path d="M36.289 2463.94L28.783 2460.99L45.884 2417.44L53.4495 2420.41L62.635 2463.56L60.4309 2462.69L73.8824 2428.44L81.3884 2431.38L64.2874 2474.93L56.7814 2471.98L47.513 2428.88L49.7171 2429.74L36.289 2463.94Z" fill="white" fill-opacity="0.4"/>
<rect x="376" y="774.316" width="118" height="118" rx="5" transform="rotate(-12.3885 376 774.316)" fill="#FF0091" fill-opacity="0.3"/>
<path d="M392.882 784.218L389.131 785.042L388.539 782.346L395.149 780.894L398.914 798.029L396.054 798.657L392.882 784.218ZM400.605 792.571C400.347 791.399 400.471 790.323 400.977 789.344C401.495 788.346 402.292 787.613 403.369 787.147L403.511 787.681C402.437 787.639 401.543 787.336 400.829 786.772C400.131 786.204 399.674 785.428 399.458 784.444C399.259 783.538 399.333 782.686 399.682 781.888C400.031 781.091 400.608 780.399 401.413 779.812C402.234 779.222 403.23 778.799 404.402 778.541C405.574 778.284 406.641 778.254 407.602 778.453C408.575 778.632 409.381 779.02 410.02 779.617C410.671 780.194 411.1 780.952 411.306 781.89C411.522 782.874 411.424 783.772 411.013 784.583C410.598 785.379 409.908 786.005 408.944 786.463L408.812 785.976C409.602 785.917 410.334 786.043 411.009 786.353C411.68 786.648 412.242 787.082 412.695 787.654C413.164 788.222 413.486 788.905 413.661 789.702C413.888 790.734 413.813 791.7 413.438 792.602C413.075 793.484 412.448 794.244 411.556 794.883C410.68 795.518 409.577 795.981 408.249 796.273C406.936 796.561 405.741 796.603 404.664 796.397C403.603 796.188 402.714 795.761 401.999 795.115C401.296 794.451 400.831 793.603 400.605 792.571ZM403.488 791.716C403.609 792.263 403.854 792.709 404.224 793.054C404.611 793.395 405.093 793.616 405.673 793.718C406.268 793.817 406.94 793.784 407.691 793.619C408.409 793.461 409.01 793.214 409.494 792.879C409.993 792.54 410.34 792.144 410.535 791.691C410.743 791.22 410.785 790.703 410.661 790.14C410.479 789.312 410.007 788.728 409.244 788.388C408.497 788.044 407.576 787.992 406.482 788.233C405.389 788.473 404.567 788.907 404.017 789.536C403.482 790.161 403.306 790.888 403.488 791.716ZM402.233 784.104C402.388 784.808 402.802 785.314 403.477 785.625C404.148 785.92 404.968 785.961 405.936 785.748C406.89 785.538 407.601 785.161 408.071 784.615C408.557 784.066 408.722 783.44 408.568 782.737C408.41 782.018 407.997 781.519 407.329 781.24C406.674 780.942 405.87 780.897 404.917 781.107C403.948 781.319 403.221 781.7 402.735 782.249C402.246 782.783 402.079 783.401 402.233 784.104Z" fill="#FFFEFE" fill-opacity="0.4"/>
<path d="M426.168 849.512L417.916 851.325L424.382 802.005L432.571 800.207L459.11 842.276L450.671 844.13L444.663 834.376L427.598 838.124L426.168 849.512ZM430.438 814.96L428.428 830.865L440.867 828.133L432.376 814.534C432.072 813.946 431.747 813.362 431.401 812.782C431.056 812.203 430.812 811.689 430.669 811.239C430.678 811.674 430.651 812.248 430.589 812.961C430.559 813.623 430.509 814.289 430.438 814.96ZM476.283 806.004L477.834 813.067L475.021 813.685C472.229 814.298 470.206 815.529 468.952 817.377C467.689 819.184 467.387 821.587 468.046 824.588L471.341 839.59L463.715 841.265L456.946 810.448L464.134 808.869L466.16 815.107L465.41 815.272C465.378 813.139 465.991 811.257 467.25 809.626C468.508 807.995 470.366 806.91 472.825 806.37C473.367 806.251 473.913 806.153 474.464 806.076C475.015 805.998 475.621 805.974 476.283 806.004Z" fill="white" fill-opacity="0.4"/>
<rect x="1244.45" width="118" height="118" rx="5" transform="rotate(19.5321 1244.45 0)" fill="#FF0091" fill-opacity="0.3"/>
<path d="M1250.79 32.3462C1249.65 31.9398 1248.72 31.3552 1248 30.5927C1247.31 29.8203 1246.87 28.9339 1246.68 27.9334C1246.51 26.9231 1246.62 25.8601 1247.02 24.7442L1249.87 25.755C1249.54 26.6899 1249.54 27.5149 1249.88 28.2299C1250.22 28.9448 1250.85 29.4654 1251.77 29.7917C1252.42 30.0217 1253.03 30.0914 1253.58 30.0008C1254.16 29.9005 1254.67 29.647 1255.1 29.2403C1255.55 28.839 1255.89 28.3065 1256.13 27.643C1256.35 27.0097 1256.42 26.4063 1256.34 25.8328C1256.27 25.2496 1256.05 24.7394 1255.68 24.3022C1255.31 23.8649 1254.79 23.5286 1254.13 23.2933C1253.5 23.0687 1252.86 23.0034 1252.21 23.0973C1251.59 23.1816 1251.05 23.3889 1250.59 23.7192L1248.23 22.2698L1253.34 14.3286L1261.95 17.3851L1261.01 20.0542L1253.72 17.471L1255.02 16.9112L1251.81 21.7082L1250.7 21.7704C1251.3 21.2051 1252.03 20.8698 1252.89 20.7646C1253.76 20.6497 1254.66 20.7554 1255.58 21.0816C1256.68 21.472 1257.55 22.0454 1258.2 22.8017C1258.86 23.5633 1259.27 24.439 1259.43 25.4289C1259.61 26.409 1259.51 27.4419 1259.12 28.5276C1258.7 29.7189 1258.06 30.6733 1257.22 31.3909C1256.38 32.1139 1255.41 32.5659 1254.29 32.747C1253.19 32.9184 1252.03 32.7848 1250.79 32.3462ZM1275.4 22.1553L1269.54 38.6902L1266.8 37.7195L1272.67 21.1846L1275.4 22.1553ZM1260.42 29.0657L1271.76 20.8637L1274.82 21.9468L1263.3 30.2895L1260.42 29.0657ZM1272.67 36.2601L1259.53 31.599L1260.42 29.0657L1273.57 33.7267L1272.67 36.2601Z" fill="#FFFEFE" fill-opacity="0.4"/>
<path d="M1262.44 70.9463L1255.62 43.6706L1264.78 46.923L1267.33 56.7893C1267.76 58.3899 1268.11 60.0093 1268.39 61.6475C1268.72 63.2598 1269.05 64.9596 1269.36 66.747L1285.35 54.2196L1294.34 57.4078L1272.11 74.3095L1278.76 101.521L1269.65 98.29L1267.29 89.237C1266.82 87.3926 1266.43 85.624 1266.12 83.9313C1265.82 82.2386 1265.48 80.4441 1265.11 78.5477L1248.72 90.865L1239.67 87.6554L1262.44 70.9463ZM1294.49 107.986C1291.56 106.944 1289.18 105.354 1287.36 103.214C1285.59 101.048 1284.48 98.5703 1284.02 95.7815C1283.57 92.9526 1283.89 90.0101 1284.98 86.954C1286.08 83.8577 1287.67 81.3444 1289.76 79.4142C1291.85 77.4839 1294.25 76.2547 1296.97 75.7266C1299.71 75.1583 1302.53 75.3876 1305.42 76.4147C1308.44 77.4846 1310.8 79.048 1312.52 81.1051C1314.25 83.122 1315.3 85.4632 1315.66 88.1287C1316.07 90.8085 1315.72 93.7166 1314.61 96.8531L1313.81 99.0848L1288.22 90.0726L1290.01 85.4107L1308.16 91.8513C1308.89 89.8005 1308.81 87.9165 1307.93 86.1992C1307.08 84.4962 1305.55 83.2524 1303.34 82.4678C1301.61 81.8544 1300.02 81.6956 1298.55 81.9915C1297.13 82.3016 1295.86 83.0735 1294.74 84.3071C1293.63 85.5408 1292.7 87.2031 1291.96 89.2941C1290.82 92.511 1290.64 95.1863 1291.42 97.3199C1292.24 99.4679 1294.02 101.027 1296.75 101.997C1298.76 102.71 1300.55 102.913 1302.11 102.605C1303.7 102.312 1304.95 101.533 1305.86 100.268L1312.67 102.686C1310.87 105.715 1308.36 107.698 1305.13 108.635C1301.94 109.586 1298.39 109.37 1294.49 107.986Z" fill="white" fill-opacity="0.4"/>
<rect x="75" y="197.517" width="118" height="118" rx="5" transform="rotate(-8.04646 75 197.517)" fill="#FF0004" fill-opacity="0.3"/>
<path d="M95.9527 219.943L83.9079 221.671L83.5853 219.389L88.5859 213.786C89.1026 213.212 89.5298 212.691 89.8676 212.223C90.2213 211.753 90.4911 211.319 90.6772 210.921C90.8633 210.523 90.9861 210.134 91.0454 209.754C91.1048 209.374 91.1042 208.97 91.0437 208.542C90.9048 207.56 90.5438 206.835 89.9607 206.368C89.3775 205.901 88.6265 205.733 87.7077 205.863C86.7571 205.997 86.0494 206.421 85.5846 207.133C85.1197 207.845 84.9578 208.756 85.0988 209.868L82.0808 210.295C81.9174 209.025 82.0231 207.887 82.3979 206.88C82.7704 205.858 83.3802 205.029 84.2274 204.392C85.0723 203.739 86.1047 203.326 87.3245 203.154C88.5602 202.979 89.6542 203.059 90.6063 203.393C91.5721 203.708 92.3599 204.252 92.9697 205.022C93.5796 205.792 93.9674 206.763 94.1332 207.935C94.2184 208.537 94.213 209.128 94.1172 209.707C94.0349 210.268 93.8644 210.834 93.6057 211.404C93.3447 211.958 93.0056 212.531 92.5884 213.123C92.1713 213.715 91.6703 214.344 91.0856 215.008L87.3666 219.218L86.1424 218.446L95.5527 217.115L95.9527 219.943ZM96.6068 211.052C96.3514 209.246 96.4295 207.627 96.841 206.195C97.2684 204.761 97.9749 203.587 98.9605 202.672C99.9597 201.739 101.196 201.168 102.669 200.959C104.158 200.749 105.504 200.954 106.707 201.576C107.924 202.18 108.928 203.112 109.721 204.374C110.529 205.633 111.061 207.165 111.316 208.971C111.57 210.762 111.498 212.371 111.103 213.801C110.707 215.23 110.015 216.395 109.027 217.294C108.04 218.193 106.769 218.753 105.217 218.972C103.696 219.187 102.328 219.001 101.114 218.413C99.9157 217.823 98.9281 216.896 98.1515 215.633C97.3749 214.369 96.86 212.842 96.6068 211.052ZM99.601 210.628C99.7892 211.959 100.125 213.075 100.608 213.976C101.089 214.862 101.688 215.504 102.407 215.903C103.124 216.287 103.934 216.415 104.837 216.287C105.772 216.155 106.522 215.806 107.089 215.241C107.669 214.658 108.067 213.875 108.283 212.891C108.497 211.891 108.51 210.726 108.322 209.395C108.127 208.017 107.789 206.885 107.309 205.999C106.826 205.098 106.225 204.448 105.506 204.049C104.803 203.647 103.984 203.512 103.049 203.645C102.146 203.772 101.404 204.128 100.824 204.711C100.244 205.294 99.8472 206.085 99.6331 207.085C99.4168 208.069 99.4061 209.25 99.601 210.628Z" fill="#FFFEFE" fill-opacity="0.4"/>
<path d="M129.8 278.324C125.28 278.963 121.214 278.546 117.602 277.075C114.026 275.555 111.057 273.152 108.697 269.866C106.373 266.532 104.867 262.436 104.18 257.578C103.499 252.761 103.835 248.427 105.186 244.573C106.579 240.713 108.847 237.549 111.988 235.079C115.129 232.61 118.939 231.059 123.417 230.426C127.092 229.906 130.483 230.116 133.589 231.056C136.695 231.996 139.372 233.556 141.62 235.738C143.861 237.877 145.471 240.58 146.45 243.846L137.895 245.055C136.71 242.465 134.915 240.585 132.509 239.417C130.14 238.201 127.392 237.814 124.265 238.256C121.477 238.65 119.119 239.651 117.192 241.26C115.307 242.862 113.965 244.948 113.164 247.517C112.364 250.086 112.2 253.04 112.672 256.377C113.126 259.588 114.096 262.338 115.583 264.627C117.064 266.874 118.935 268.527 121.197 269.586C123.494 270.597 126.037 270.905 128.825 270.511C131.994 270.063 134.59 268.921 136.614 267.083C138.68 265.24 139.912 262.976 140.308 260.291L148.736 259.1C148.598 262.394 147.71 265.407 146.071 268.138C144.474 270.863 142.271 273.113 139.463 274.889C136.697 276.659 133.476 277.804 129.8 278.324ZM165.868 273.289C162.573 273.755 159.828 273.238 157.634 271.739C155.476 270.191 154.191 267.959 153.779 265.044C153.373 262.172 154.043 259.75 155.79 257.779C157.573 255.761 160.302 254.341 163.978 253.519L173.25 251.433L173.151 250.736C172.948 249.3 172.512 248.198 171.844 247.43C171.211 246.615 170.382 246.086 169.357 245.843C168.325 245.558 167.155 245.508 165.845 245.693C163.564 246.015 161.876 246.728 160.783 247.831C159.683 248.891 159.249 250.245 159.482 251.893L152.892 252.824C152.569 250.543 152.862 248.498 153.77 246.689C154.714 244.832 156.176 243.289 158.157 242.061C160.18 240.827 162.586 240.013 165.374 239.619C168.205 239.219 170.706 239.382 172.877 240.11C175.042 240.795 176.814 242.052 178.193 243.883C179.567 245.671 180.459 248.022 180.871 250.937L183.559 269.948L176.778 270.907L175.554 266.361C175.105 268.062 173.98 269.557 172.18 270.846C170.423 272.128 168.319 272.943 165.868 273.289ZM167.516 267.11C169.924 266.77 171.729 265.825 172.932 264.276C174.177 262.721 174.63 260.739 174.289 258.331L174.057 256.684L167.601 258.113C165.223 258.665 163.584 259.414 162.683 260.36C161.777 261.264 161.413 262.349 161.592 263.617C161.789 265.011 162.403 266.001 163.434 266.588C164.465 267.175 165.826 267.349 167.516 267.11Z" fill="white" fill-opacity="0.4"/>
<rect x="228" y="2614.52" width="118" height="118" rx="5" transform="rotate(-8.04646 228 2614.52)" fill="#FF0004" fill-opacity="0.3"/>
<path d="M238.355 2623.53L234.552 2624.07L234.166 2621.34L240.867 2620.39L243.324 2637.76L240.425 2638.17L238.355 2623.53ZM258.421 2635.6L246.376 2637.33L246.054 2635.05L251.054 2629.45C251.571 2628.87 251.998 2628.35 252.336 2627.88C252.69 2627.41 252.959 2626.98 253.146 2626.58C253.332 2626.18 253.454 2625.79 253.514 2625.41C253.573 2625.03 253.573 2624.63 253.512 2624.2C253.373 2623.22 253.012 2622.5 252.429 2622.03C251.846 2621.56 251.095 2621.39 250.176 2621.52C249.225 2621.66 248.518 2622.08 248.053 2622.79C247.588 2623.51 247.426 2624.42 247.567 2625.53L244.549 2625.96C244.386 2624.69 244.491 2623.55 244.866 2622.54C245.239 2621.52 245.848 2620.69 246.696 2620.05C247.541 2619.4 248.573 2618.99 249.793 2618.81C251.029 2618.64 252.122 2618.72 253.075 2619.05C254.04 2619.37 254.828 2619.91 255.438 2620.68C256.048 2621.45 256.436 2622.42 256.602 2623.6C256.687 2624.2 256.681 2624.79 256.585 2625.37C256.503 2625.93 256.333 2626.49 256.074 2627.06C255.813 2627.62 255.474 2628.19 255.057 2628.78C254.64 2629.38 254.139 2630 253.554 2630.67L249.835 2634.88L248.611 2634.11L258.021 2632.78L258.421 2635.6Z" fill="#FFFEFE" fill-opacity="0.4"/>
<path d="M266.969 2695.04L259.112 2696.15L252.563 2649.83L260.421 2648.72L280.59 2683.48L290.331 2644.49L298.316 2643.36L304.865 2689.68L297.007 2690.79L294.991 2676.54C294.663 2674.21 294.388 2672.27 294.167 2670.71C293.94 2669.1 293.77 2667.75 293.657 2666.64C293.544 2665.54 293.449 2664.56 293.372 2663.71C293.294 2662.86 293.259 2662 293.267 2661.14L285.664 2692.4L278.186 2693.45L262.288 2665.58C262.696 2666.95 263.074 2668.7 263.421 2670.85C263.81 2672.99 264.21 2675.52 264.622 2678.44L266.969 2695.04ZM309.891 2672.3C309.461 2669.25 309.691 2666.46 310.582 2663.93C311.509 2661.34 312.993 2659.19 315.035 2657.48C317.077 2655.77 319.577 2654.7 322.534 2654.29C325.196 2653.91 327.561 2654.18 329.629 2655.09C331.691 2655.96 333.249 2657.38 334.302 2659.34L333.577 2660.16L333.315 2653.73L340.476 2652.72L344.677 2682.44C345.167 2685.9 344.915 2689 343.921 2691.72C342.976 2694.49 341.374 2696.72 339.115 2698.41C336.904 2700.15 334.087 2701.26 330.665 2701.74C326.187 2702.38 322.341 2701.69 319.128 2699.69C315.915 2697.69 313.759 2694.63 312.661 2690.52L320.392 2689.43C320.932 2691.42 322.001 2692.88 323.599 2693.82C325.239 2694.75 327.263 2695.05 329.671 2694.71C332.332 2694.33 334.334 2693.25 335.676 2691.47C337.067 2689.72 337.577 2687.54 337.206 2684.92L336.105 2677.12L337.108 2677.82C336.628 2679.91 335.458 2681.7 333.598 2683.16C331.737 2684.63 329.476 2685.56 326.814 2685.93C323.857 2686.35 321.185 2686.04 318.797 2685C316.409 2683.96 314.435 2682.34 312.875 2680.15C311.316 2677.96 310.321 2675.34 309.891 2672.3ZM317.659 2671C317.909 2672.78 318.471 2674.32 319.344 2675.61C320.254 2676.86 321.399 2677.8 322.78 2678.42C324.16 2679.05 325.696 2679.24 327.386 2679C329.16 2678.75 330.627 2678.16 331.787 2677.22C332.983 2676.23 333.824 2675.01 334.309 2673.56C334.83 2672.07 334.962 2670.41 334.705 2668.59C334.448 2666.78 333.889 2665.26 333.028 2664.05C332.161 2662.79 331.019 2661.88 329.602 2661.3C328.227 2660.72 326.631 2660.56 324.815 2660.81C323.083 2661.06 321.64 2661.67 320.486 2662.65C319.326 2663.59 318.503 2664.79 318.019 2666.23C317.534 2667.68 317.414 2669.27 317.659 2671Z" fill="white" fill-opacity="0.4"/>
<rect x="1323" y="1397.52" width="118" height="118" rx="5" transform="rotate(-8.04646 1323 1397.52)" fill="#FF0004" fill-opacity="0.3"/>
<path d="M1331.12 1416.77C1330.95 1415.58 1331.15 1414.51 1331.73 1413.58C1332.32 1412.62 1333.17 1411.95 1334.28 1411.57L1334.38 1412.11C1333.32 1411.99 1332.45 1411.62 1331.78 1411C1331.13 1410.38 1330.73 1409.57 1330.59 1408.57C1330.46 1407.66 1330.6 1406.81 1331.01 1406.04C1331.41 1405.27 1332.04 1404.63 1332.89 1404.1C1333.75 1403.58 1334.78 1403.23 1335.97 1403.06C1337.15 1402.89 1338.22 1402.95 1339.16 1403.22C1340.12 1403.47 1340.89 1403.92 1341.49 1404.56C1342.09 1405.19 1342.46 1405.97 1342.6 1406.92C1342.74 1407.92 1342.57 1408.81 1342.1 1409.59C1341.63 1410.35 1340.89 1410.92 1339.89 1411.31L1339.8 1410.81C1340.59 1410.81 1341.31 1410.99 1341.96 1411.35C1342.61 1411.7 1343.14 1412.17 1343.54 1412.78C1343.97 1413.38 1344.24 1414.09 1344.35 1414.89C1344.5 1415.94 1344.35 1416.9 1343.91 1417.77C1343.48 1418.62 1342.8 1419.33 1341.86 1419.9C1340.94 1420.47 1339.81 1420.84 1338.46 1421.03C1337.13 1421.22 1335.93 1421.17 1334.87 1420.89C1333.83 1420.6 1332.98 1420.11 1332.31 1419.41C1331.66 1418.69 1331.26 1417.81 1331.12 1416.77ZM1334.06 1416.13C1334.13 1416.69 1334.35 1417.15 1334.69 1417.52C1335.05 1417.89 1335.51 1418.15 1336.08 1418.29C1336.67 1418.44 1337.34 1418.45 1338.1 1418.35C1338.83 1418.24 1339.45 1418.04 1339.96 1417.74C1340.48 1417.44 1340.86 1417.08 1341.08 1416.64C1341.33 1416.19 1341.41 1415.67 1341.33 1415.1C1341.21 1414.26 1340.78 1413.64 1340.05 1413.25C1339.33 1412.85 1338.41 1412.73 1337.31 1412.88C1336.2 1413.04 1335.34 1413.41 1334.75 1414C1334.17 1414.58 1333.94 1415.29 1334.06 1416.13ZM1333.38 1408.45C1333.48 1409.16 1333.86 1409.7 1334.51 1410.06C1335.15 1410.4 1335.97 1410.5 1336.95 1410.37C1337.92 1410.23 1338.65 1409.91 1339.16 1409.4C1339.69 1408.89 1339.9 1408.28 1339.8 1407.56C1339.7 1406.83 1339.32 1406.3 1338.68 1405.98C1338.05 1405.63 1337.25 1405.52 1336.28 1405.66C1335.3 1405.8 1334.55 1406.12 1334.02 1406.63C1333.49 1407.13 1333.28 1407.73 1333.38 1408.45ZM1346.34 1414.61C1346.17 1413.42 1346.38 1412.36 1346.96 1411.42C1347.55 1410.47 1348.4 1409.8 1349.51 1409.41L1349.61 1409.96C1348.54 1409.83 1347.67 1409.46 1347 1408.85C1346.35 1408.23 1345.95 1407.42 1345.81 1406.42C1345.68 1405.5 1345.82 1404.66 1346.23 1403.89C1346.64 1403.12 1347.27 1402.47 1348.11 1401.95C1348.97 1401.43 1350 1401.08 1351.19 1400.91C1352.38 1400.74 1353.44 1400.79 1354.39 1401.06C1355.34 1401.32 1356.12 1401.76 1356.71 1402.41C1357.31 1403.03 1357.68 1403.82 1357.82 1404.77C1357.96 1405.77 1357.79 1406.66 1357.32 1407.44C1356.85 1408.2 1356.11 1408.77 1355.12 1409.15L1355.02 1408.66C1355.82 1408.66 1356.54 1408.84 1357.18 1409.2C1357.83 1409.54 1358.36 1410.02 1358.77 1410.62C1359.19 1411.23 1359.46 1411.93 1359.58 1412.74C1359.72 1413.79 1359.58 1414.74 1359.13 1415.61C1358.71 1416.47 1358.02 1417.18 1357.08 1417.75C1356.16 1418.31 1355.03 1418.69 1353.68 1418.88C1352.35 1419.07 1351.16 1419.02 1350.1 1418.73C1349.06 1418.45 1348.2 1417.95 1347.54 1417.25C1346.89 1416.54 1346.49 1415.66 1346.34 1414.61ZM1349.28 1413.98C1349.36 1414.53 1349.57 1415 1349.91 1415.37C1350.27 1415.74 1350.74 1415.99 1351.31 1416.14C1351.89 1416.28 1352.57 1416.3 1353.33 1416.19C1354.05 1416.09 1354.67 1415.89 1355.18 1415.59C1355.7 1415.29 1356.08 1414.92 1356.31 1414.49C1356.55 1414.03 1356.63 1413.52 1356.55 1412.95C1356.43 1412.11 1356.01 1411.49 1355.27 1411.09C1354.55 1410.7 1353.64 1410.57 1352.53 1410.73C1351.42 1410.89 1350.57 1411.26 1349.97 1411.84C1349.39 1412.43 1349.16 1413.14 1349.28 1413.98ZM1348.61 1406.29C1348.71 1407.01 1349.08 1407.54 1349.73 1407.9C1350.38 1408.25 1351.19 1408.35 1352.17 1408.21C1353.14 1408.08 1353.88 1407.75 1354.39 1407.24C1354.91 1406.73 1355.13 1406.12 1355.02 1405.41C1354.92 1404.68 1354.55 1404.15 1353.9 1403.82C1353.27 1403.48 1352.47 1403.37 1351.51 1403.51C1350.53 1403.65 1349.77 1403.97 1349.25 1404.48C1348.72 1404.98 1348.5 1405.58 1348.61 1406.29Z" fill="#FFFEFE" fill-opacity="0.4"/>
<path d="M1371.22 1476.34L1363.11 1477.49L1356.56 1431.17L1374.24 1428.67C1379.48 1427.93 1383.74 1428.62 1387.01 1430.74C1390.33 1432.86 1392.31 1436.2 1392.95 1440.76C1393.39 1443.84 1393.04 1446.59 1391.92 1448.99C1390.83 1451.34 1388.99 1453.28 1386.41 1454.81L1397.9 1472.57L1389.03 1473.83L1378.73 1457.64L1368.78 1459.04L1371.22 1476.34ZM1365.7 1437.25L1367.76 1451.88L1377.33 1450.53C1379.91 1450.17 1381.83 1449.23 1383.08 1447.72C1384.33 1446.2 1384.79 1444.28 1384.46 1441.96C1384.13 1439.64 1383.16 1437.96 1381.55 1436.94C1379.94 1435.88 1377.84 1435.53 1375.26 1435.89L1365.7 1437.25ZM1412.62 1471.33C1409.32 1471.8 1406.58 1471.28 1404.38 1469.78C1402.23 1468.23 1400.94 1466 1400.53 1463.09C1400.12 1460.22 1400.79 1457.79 1402.54 1455.82C1404.32 1453.8 1407.05 1452.38 1410.73 1451.56L1420 1449.48L1419.9 1448.78C1419.7 1447.34 1419.26 1446.24 1418.59 1445.47C1417.96 1444.66 1417.13 1444.13 1416.11 1443.89C1415.08 1443.6 1413.9 1443.55 1412.59 1443.74C1410.31 1444.06 1408.63 1444.77 1407.53 1445.87C1406.43 1446.93 1406 1448.29 1406.23 1449.94L1399.64 1450.87C1399.32 1448.59 1399.61 1446.54 1400.52 1444.73C1401.46 1442.88 1402.93 1441.33 1404.91 1440.1C1406.93 1438.87 1409.34 1438.06 1412.12 1437.66C1414.95 1437.26 1417.46 1437.43 1419.63 1438.15C1421.79 1438.84 1423.56 1440.1 1424.94 1441.93C1426.32 1443.71 1427.21 1446.07 1427.62 1448.98L1430.31 1467.99L1423.53 1468.95L1422.3 1464.41C1421.85 1466.11 1420.73 1467.6 1418.93 1468.89C1417.17 1470.17 1415.07 1470.99 1412.62 1471.33ZM1414.27 1465.15C1416.67 1464.81 1418.48 1463.87 1419.68 1462.32C1420.93 1460.76 1421.38 1458.78 1421.04 1456.38L1420.81 1454.73L1414.35 1456.16C1411.97 1456.71 1410.33 1457.46 1409.43 1458.4C1408.53 1459.31 1408.16 1460.39 1408.34 1461.66C1408.54 1463.05 1409.15 1464.04 1410.18 1464.63C1411.21 1465.22 1412.58 1465.39 1414.27 1465.15Z" fill="white" fill-opacity="0.4"/>
<rect x="5" y="1566.52" width="118" height="118" rx="5" transform="rotate(-8.04646 5 1566.52)" fill="#06A79A" fill-opacity="0.3"/>
<path d="M22.9507 1589.81L10.906 1591.54L10.5833 1589.26L15.5839 1583.65C16.1006 1583.08 16.5279 1582.56 16.8657 1582.09C17.2193 1581.62 17.4892 1581.19 17.6753 1580.79C17.8614 1580.39 17.9841 1580 18.0435 1579.62C18.1029 1579.24 18.1023 1578.84 18.0418 1578.41C17.9029 1577.43 17.5418 1576.7 16.9587 1576.23C16.3756 1575.77 15.6246 1575.6 14.7057 1575.73C13.7552 1575.86 13.0475 1576.29 12.5826 1577C12.1178 1577.71 11.9558 1578.62 12.0968 1579.73L9.07887 1580.16C8.91547 1578.89 9.02114 1577.75 9.3959 1576.75C9.76842 1575.72 10.3783 1574.89 11.2254 1574.26C12.0703 1573.61 13.1027 1573.19 14.3226 1573.02C15.5583 1572.85 16.6522 1572.92 17.6044 1573.26C18.5701 1573.57 19.3579 1574.12 19.9678 1574.89C20.5776 1575.66 20.9655 1576.63 21.1313 1577.8C21.2164 1578.4 21.2111 1578.99 21.1152 1579.57C21.033 1580.13 20.8625 1580.7 20.6037 1581.27C20.3428 1581.82 20.0037 1582.4 19.5865 1582.99C19.1693 1583.58 18.6684 1584.21 18.0837 1584.87L14.3646 1589.08L13.1404 1588.31L22.5508 1586.98L22.9507 1589.81ZM30.6713 1589.03C29.4673 1589.2 28.3723 1589.12 27.3862 1588.77C26.4137 1588.41 25.6124 1587.82 24.9822 1587.03C24.3656 1586.21 23.9744 1585.21 23.8086 1584.04L26.8028 1583.62C26.9417 1584.6 27.3276 1585.33 27.9605 1585.8C28.5934 1586.28 29.3931 1586.45 30.3595 1586.31C31.0407 1586.22 31.6078 1586 32.0608 1585.66C32.5275 1585.3 32.8585 1584.84 33.0538 1584.28C33.2651 1583.72 33.3214 1583.09 33.2228 1582.39C33.1287 1581.73 32.9111 1581.16 32.5701 1580.69C32.2427 1580.21 31.8133 1579.85 31.2818 1579.64C30.7504 1579.42 30.1361 1579.36 29.4391 1579.46C28.7737 1579.56 28.1771 1579.79 27.6494 1580.18C27.1352 1580.54 26.7522 1580.97 26.5003 1581.48L23.7344 1581.29L24.5859 1571.88L33.6398 1570.6L34.0364 1573.41L26.3845 1574.49L27.2719 1573.39L26.653 1579.13L25.6916 1579.7C25.9688 1578.92 26.4607 1578.28 27.1673 1577.8C27.8876 1577.29 28.7309 1576.97 29.6973 1576.83C30.8538 1576.67 31.8945 1576.77 32.8194 1577.14C33.7602 1577.51 34.5299 1578.1 35.1284 1578.9C35.7405 1579.69 36.1272 1580.65 36.2885 1581.79C36.4655 1583.04 36.344 1584.18 35.924 1585.21C35.5198 1586.24 34.8646 1587.09 33.9586 1587.77C33.0661 1588.43 31.9704 1588.85 30.6713 1589.03Z" fill="#FFFEFE" fill-opacity="0.4"/>
<path d="M92.0007 1594.4L67.2737 1637.58L65.5626 1625.48L82.4318 1595.75L92.0007 1594.4ZM63.6743 1598.4L70.2229 1644.73L62.1116 1645.87L55.563 1599.55L63.6743 1598.4ZM74.7071 1623.41L78.918 1615.7L98.7394 1640.69L89.3607 1642.02L74.7071 1623.41Z" fill="white" fill-opacity="0.4"/>
</svg>
