<svg width="1440" height="1270" viewBox="0 0 1440 1270" fill="none" xmlns="http://www.w3.org/2000/svg">
<rect x="172" y="150.518" width="118" height="118" rx="5" transform="rotate(-8.04646 172 150.518)" fill="#FF0004" fill-opacity="0.3"/>
<path d="M182.354 159.535L178.552 160.073L178.166 157.34L184.867 156.392L187.324 173.763L184.425 174.173L182.354 159.535ZM202.421 171.604L190.376 173.332L190.053 171.05L195.054 165.447C195.571 164.873 195.998 164.352 196.336 163.884C196.689 163.414 196.959 162.98 197.145 162.582C197.331 162.184 197.454 161.795 197.513 161.415C197.573 161.035 197.572 160.631 197.512 160.203C197.373 159.221 197.012 158.496 196.429 158.029C195.846 157.562 195.095 157.394 194.176 157.524C193.225 157.658 192.517 158.081 192.053 158.794C191.588 159.506 191.426 160.417 191.567 161.529L188.549 161.955C188.385 160.686 188.491 159.548 188.866 158.541C189.238 157.519 189.848 156.69 190.695 156.053C191.54 155.4 192.573 154.987 193.793 154.815C195.028 154.64 196.122 154.72 197.074 155.053C198.04 155.369 198.828 155.912 199.438 156.683C200.048 157.453 200.435 158.424 200.601 159.596C200.686 160.198 200.681 160.789 200.585 161.368C200.503 161.929 200.332 162.495 200.074 163.064C199.813 163.618 199.474 164.192 199.056 164.784C198.639 165.376 198.138 166.004 197.554 166.669L193.835 170.879L192.61 170.107L202.021 168.776L202.421 171.604Z" fill="#FFFEFE" fill-opacity="0.4"/>
<path d="M210.969 231.041L203.112 232.152L196.563 185.828L204.421 184.717L224.59 219.485L234.331 180.489L242.316 179.36L248.865 225.684L241.007 226.795L238.991 212.536C238.663 210.213 238.388 208.269 238.167 206.706C237.94 205.101 237.77 203.746 237.657 202.642C237.544 201.537 237.449 200.56 237.372 199.709C237.294 198.858 237.259 198.001 237.267 197.138L229.664 228.398L222.186 229.455L206.288 201.582C206.696 202.946 207.074 204.703 207.421 206.851C207.81 208.994 208.21 211.523 208.622 214.438L210.969 231.041ZM253.891 208.297C253.461 205.255 253.691 202.465 254.582 199.926C255.509 197.339 256.993 195.19 259.035 193.479C261.077 191.768 263.577 190.704 266.534 190.286C269.196 189.91 271.561 190.179 273.629 191.093C275.691 191.965 277.249 193.382 278.302 195.344L277.577 196.158L277.315 189.731L284.476 188.719L288.677 218.44C289.167 221.904 288.915 224.999 287.921 227.725C286.976 230.487 285.374 232.717 283.115 234.415C280.904 236.15 278.087 237.259 274.665 237.743C270.187 238.376 266.341 237.692 263.128 235.69C259.915 233.688 257.759 230.631 256.661 226.521L264.392 225.428C264.932 227.42 266.001 228.884 267.599 229.822C269.239 230.754 271.263 231.049 273.671 230.709C276.332 230.333 278.334 229.252 279.676 227.468C281.067 225.721 281.577 223.537 281.206 220.918L280.105 213.123L281.108 213.822C280.628 215.915 279.458 217.696 277.598 219.166C275.737 220.635 273.476 221.558 270.814 221.934C267.857 222.352 265.185 222.041 262.797 220.999C260.409 219.958 258.435 218.341 256.875 216.148C255.316 213.956 254.321 211.339 253.891 208.297ZM261.659 207.005C261.909 208.779 262.471 210.316 263.344 211.614C264.254 212.865 265.399 213.802 266.78 214.425C268.16 215.049 269.696 215.241 271.386 215.002C273.16 214.751 274.627 214.156 275.787 213.216C276.983 212.229 277.824 211.011 278.309 209.564C278.83 208.068 278.962 206.412 278.705 204.595C278.448 202.778 277.889 201.263 277.028 200.049C276.161 198.793 275.019 197.877 273.602 197.302C272.227 196.72 270.631 196.558 268.815 196.815C267.083 197.06 265.64 197.673 264.486 198.655C263.326 199.595 262.503 200.788 262.019 202.236C261.534 203.683 261.414 205.273 261.659 207.005Z" fill="white" fill-opacity="0.4"/>
<rect x="449.043" y="441" width="118" height="118" rx="5" transform="rotate(7.32413 449.043 441)" fill="#5900FF" fill-opacity="0.3"/>
<path d="M463.985 469.781L451.913 468.255L452.207 465.969L458.514 461.892C459.164 461.475 459.714 461.086 460.164 460.725C460.63 460.365 461.005 460.018 461.29 459.683C461.575 459.349 461.796 459.006 461.954 458.656C462.112 458.305 462.219 457.915 462.274 457.487C462.4 456.503 462.244 455.709 461.806 455.104C461.367 454.499 460.688 454.138 459.767 454.019C458.815 453.897 458.02 454.118 457.384 454.681C456.747 455.244 456.349 456.081 456.19 457.189L453.167 456.801C453.346 455.534 453.75 454.464 454.378 453.593C455.008 452.706 455.816 452.068 456.801 451.678C457.789 451.273 458.894 451.149 460.116 451.306C461.354 451.465 462.387 451.831 463.217 452.406C464.064 452.966 464.68 453.699 465.064 454.603C465.448 455.507 465.564 456.547 465.414 457.721C465.336 458.324 465.174 458.892 464.929 459.425C464.701 459.944 464.386 460.444 463.986 460.925C463.587 461.39 463.108 461.853 462.549 462.313C461.99 462.774 461.34 463.247 460.6 463.733L455.898 466.807L454.923 465.738L464.349 466.948L463.985 469.781ZM476.753 466.243L472.334 470.878L468.859 470.431L474.604 464.515L475.341 464.803C474.953 465.06 474.485 465.25 473.937 465.373C473.407 465.483 472.896 465.506 472.404 465.442C471.213 465.29 470.199 464.901 469.359 464.277C468.522 463.637 467.908 462.832 467.516 461.862C467.126 460.877 467.007 459.797 467.158 458.622C467.317 457.385 467.735 456.325 468.413 455.444C469.107 454.566 469.971 453.927 471.006 453.527C472.06 453.114 473.205 452.987 474.443 453.146C475.697 453.307 476.779 453.736 477.689 454.434C478.618 455.118 479.306 455.973 479.755 456.998C480.204 458.024 480.352 459.132 480.2 460.322C480.11 461.02 479.938 461.668 479.684 462.264C479.43 462.861 479.069 463.476 478.6 464.109C478.134 464.727 477.518 465.438 476.753 466.243ZM477.084 459.898C477.176 459.183 477.114 458.538 476.897 457.962C476.681 457.386 476.33 456.913 475.845 456.544C475.36 456.176 474.777 455.947 474.094 455.86C473.428 455.774 472.813 455.848 472.251 456.083C471.704 456.319 471.254 456.689 470.899 457.191C470.544 457.694 470.32 458.303 470.229 459.017C470.139 459.715 470.202 460.352 470.419 460.929C470.637 461.489 470.981 461.953 471.45 462.319C471.935 462.688 472.51 462.915 473.177 463.001C473.875 463.091 474.498 463.017 475.044 462.781C475.607 462.547 476.064 462.186 476.417 461.699C476.772 461.196 476.995 460.596 477.084 459.898Z" fill="#FFFEFE" fill-opacity="0.4"/>
<path d="M478.551 530.479C474.023 529.897 470.212 528.417 467.119 526.041C464.074 523.628 461.849 520.524 460.444 516.73C459.086 512.899 458.72 508.55 459.346 503.684C459.966 498.859 461.438 494.768 463.763 491.411C466.129 488.058 469.154 485.608 472.838 484.06C476.521 482.511 480.606 482.025 485.092 482.602C488.773 483.075 491.987 484.176 494.733 485.906C497.479 487.635 499.646 489.85 501.235 492.549C502.83 495.206 503.666 498.239 503.744 501.647L495.174 500.546C494.718 497.734 493.485 495.446 491.475 493.682C489.513 491.881 486.966 490.779 483.834 490.377C481.041 490.018 478.502 490.358 476.218 491.398C473.976 492.444 472.128 494.099 470.675 496.364C469.223 498.63 468.282 501.434 467.852 504.777C467.439 507.993 467.645 510.902 468.473 513.503C469.305 516.062 470.671 518.152 472.571 519.773C474.518 521.357 476.888 522.328 479.681 522.687C482.855 523.095 485.661 522.681 488.1 521.446C490.581 520.217 492.368 518.36 493.462 515.876L501.905 516.962C500.899 520.102 499.244 522.771 496.939 524.97C494.677 527.174 491.957 528.76 488.778 529.728C485.642 530.702 482.232 530.952 478.551 530.479ZM531.353 504.615L539.098 505.61L535.067 536.968L527.894 536.046L527.861 531.783C526.74 533.145 525.188 534.172 523.207 534.863C521.225 535.555 519.176 535.765 517.06 535.493C513.463 535.03 510.796 533.526 509.058 530.98C507.321 528.434 506.697 525.256 507.186 521.447L509.707 501.833L517.452 502.828L515.281 519.713C514.901 522.676 515.197 524.886 516.171 526.345C517.145 527.804 518.711 528.672 520.87 528.949C523.324 529.265 525.236 528.779 526.606 527.492C527.981 526.164 528.859 524.018 529.24 521.056L531.353 504.615Z" fill="white" fill-opacity="0.4"/>
<rect x="1039" y="239.518" width="118" height="118" rx="5" transform="rotate(-8.04646 1039 239.518)" fill="#06A79A" fill-opacity="0.3"/>
<path d="M1056.95 262.809L1044.91 264.537L1044.58 262.256L1049.58 256.652C1050.1 256.078 1050.53 255.557 1050.87 255.089C1051.22 254.619 1051.49 254.185 1051.67 253.787C1051.86 253.389 1051.98 253 1052.04 252.62C1052.1 252.24 1052.1 251.836 1052.04 251.408C1051.9 250.426 1051.54 249.701 1050.96 249.235C1050.38 248.768 1049.62 248.599 1048.71 248.729C1047.75 248.863 1047.05 249.287 1046.58 249.999C1046.12 250.711 1045.96 251.623 1046.1 252.734L1043.08 253.161C1042.92 251.891 1043.02 250.753 1043.4 249.747C1043.77 248.724 1044.38 247.895 1045.22 247.258C1046.07 246.605 1047.1 246.193 1048.32 246.02C1049.56 245.845 1050.65 245.925 1051.6 246.259C1052.57 246.575 1053.36 247.118 1053.97 247.888C1054.58 248.658 1054.97 249.629 1055.13 250.802C1055.22 251.404 1055.21 251.994 1055.11 252.573C1055.03 253.134 1054.86 253.7 1054.6 254.27C1054.34 254.824 1054 255.397 1053.59 255.989C1053.17 256.581 1052.67 257.21 1052.08 257.874L1048.36 262.084L1047.14 261.312L1056.55 259.981L1056.95 262.809ZM1064.67 262.032C1063.47 262.203 1062.37 262.115 1061.39 261.77C1060.41 261.406 1059.61 260.825 1058.98 260.025C1058.37 259.208 1057.97 258.213 1057.81 257.04L1060.8 256.617C1060.94 257.599 1061.33 258.328 1061.96 258.804C1062.59 259.28 1063.39 259.45 1064.36 259.313C1065.04 259.217 1065.61 258.999 1066.06 258.661C1066.53 258.304 1066.86 257.845 1067.05 257.284C1067.26 256.721 1067.32 256.091 1067.22 255.394C1067.13 254.728 1066.91 254.161 1066.57 253.692C1066.24 253.205 1065.81 252.854 1065.28 252.638C1064.75 252.423 1064.14 252.364 1063.44 252.463C1062.77 252.557 1062.18 252.795 1061.65 253.176C1061.13 253.54 1060.75 253.974 1060.5 254.478L1057.73 254.287L1058.59 244.884L1067.64 243.603L1068.04 246.407L1060.38 247.489L1061.27 246.394L1060.65 252.129L1059.69 252.702C1059.97 251.919 1060.46 251.284 1061.17 250.796C1061.89 250.29 1062.73 249.969 1063.7 249.833C1064.85 249.669 1065.89 249.772 1066.82 250.142C1067.76 250.51 1068.53 251.096 1069.13 251.9C1069.74 252.686 1070.13 253.65 1070.29 254.79C1070.47 256.042 1070.34 257.182 1069.92 258.211C1069.52 259.238 1068.86 260.09 1067.96 260.768C1067.07 261.427 1065.97 261.849 1064.67 262.032Z" fill="#FFFEFE" fill-opacity="0.4"/>
<path d="M1126 267.398L1101.27 310.58L1099.56 298.477L1116.43 268.751L1126 267.398ZM1097.67 271.402L1104.22 317.726L1096.11 318.872L1089.56 272.549L1097.67 271.402ZM1108.71 296.408L1112.92 288.703L1132.74 313.694L1123.36 315.02L1108.71 296.408Z" fill="white" fill-opacity="0.4"/>
<rect x="1033" y="637.315" width="118" height="118" rx="5" transform="rotate(-12.3885 1033 637.315)" fill="#0080FF" fill-opacity="0.3"/>
<path d="M1045.19 646.803L1041.44 647.627L1040.85 644.931L1047.46 643.479L1051.22 660.614L1048.36 661.242L1045.19 646.803ZM1049.76 642.973L1062.07 640.269L1062.68 643.035L1050.37 645.739L1049.76 642.973ZM1060 642.05L1062.68 643.035L1059.62 658.769L1056.5 659.454L1060 642.05Z" fill="#FFFEFE" fill-opacity="0.4"/>
<path d="M1101.02 709.257C1096.56 710.236 1092.47 710.129 1088.76 708.935C1085.08 707.691 1081.94 705.52 1079.33 702.422C1076.76 699.273 1074.95 695.303 1073.9 690.51C1072.86 685.759 1072.86 681.412 1073.92 677.467C1075.01 673.512 1077.04 670.185 1079.98 667.485C1082.93 664.785 1086.61 662.95 1091.02 661.98C1094.65 661.183 1098.05 661.136 1101.22 661.838C1104.38 662.54 1107.17 663.894 1109.58 665.899C1111.97 667.862 1113.78 670.435 1115.01 673.617L1106.57 675.471C1105.19 672.978 1103.26 671.24 1100.77 670.257C1098.32 669.224 1095.55 669.046 1092.46 669.723C1089.71 670.327 1087.44 671.504 1085.64 673.254C1083.88 674.994 1082.7 677.176 1082.1 679.798C1081.49 682.421 1081.55 685.378 1082.28 688.67C1082.97 691.837 1084.15 694.506 1085.8 696.676C1087.45 698.804 1089.44 700.311 1091.78 701.196C1094.14 702.03 1096.7 702.145 1099.45 701.541C1102.58 700.854 1105.08 699.518 1106.96 697.533C1108.88 695.538 1109.94 693.188 1110.13 690.481L1118.44 688.655C1118.55 691.95 1117.9 695.021 1116.47 697.869C1115.08 700.707 1113.06 703.118 1110.39 705.101C1107.77 707.075 1104.64 708.461 1101.02 709.257ZM1135.23 700.956L1127.66 702.618L1117.45 656.11L1125.01 654.449L1135.23 700.956Z" fill="white" fill-opacity="0.4"/>
<rect x="759.452" y="808" width="118" height="118" rx="5" transform="rotate(19.5321 759.452 808)" fill="#FF0091" fill-opacity="0.3"/>
<path d="M765.791 840.346C764.645 839.94 763.715 839.355 763.001 838.593C762.307 837.82 761.866 836.934 761.677 835.933C761.509 834.923 761.623 833.86 762.019 832.744L764.869 833.755C764.538 834.69 764.542 835.515 764.883 836.23C765.223 836.945 765.854 837.465 766.773 837.792C767.422 838.022 768.025 838.091 768.584 838.001C769.162 837.9 769.668 837.647 770.101 837.24C770.549 836.839 770.891 836.306 771.126 835.643C771.351 835.01 771.42 834.406 771.335 833.833C771.27 833.249 771.052 832.739 770.681 832.302C770.31 831.865 769.793 831.529 769.129 831.293C768.496 831.069 767.857 831.003 767.212 831.097C766.588 831.181 766.048 831.389 765.591 831.719L763.228 830.27L768.336 822.328L776.954 825.385L776.007 828.054L768.724 825.471L770.018 824.911L766.814 829.708L765.697 829.77C766.305 829.205 767.035 828.87 767.887 828.765C768.76 828.65 769.656 828.755 770.576 829.081C771.676 829.472 772.551 830.045 773.2 830.802C773.863 831.563 774.274 832.439 774.432 833.429C774.611 834.409 774.508 835.442 774.123 836.527C773.7 837.719 773.065 838.673 772.216 839.391C771.382 840.114 770.407 840.566 769.29 840.747C768.194 840.918 767.028 840.785 765.791 840.346ZM790.404 830.155L784.539 846.69L781.803 845.719L787.667 829.184L790.404 830.155ZM775.424 837.066L786.762 828.864L789.816 829.947L778.301 838.289L775.424 837.066ZM787.668 844.26L774.526 839.599L775.424 837.066L788.566 841.727L787.668 844.26Z" fill="#FFFEFE" fill-opacity="0.4"/>
<path d="M777.442 878.946L770.616 851.671L779.784 854.923L782.328 864.789C782.756 866.39 783.11 868.009 783.389 869.647C783.722 871.26 784.048 872.96 784.364 874.747L800.353 862.22L809.34 865.408L787.114 882.31L793.759 909.521L784.651 906.29L782.294 897.237C781.816 895.393 781.425 893.624 781.12 891.931C780.815 890.239 780.478 888.444 780.11 886.548L763.721 898.865L754.673 895.655L777.442 878.946ZM809.494 915.986C806.558 914.944 804.18 913.354 802.359 911.214C800.592 909.048 799.479 906.57 799.019 903.782C798.574 900.953 798.894 898.01 799.978 894.954C801.076 891.858 802.669 889.344 804.758 887.414C806.846 885.484 809.251 884.255 811.974 883.727C814.711 883.158 817.527 883.388 820.422 884.415C823.438 885.485 825.803 887.048 827.518 889.105C829.247 891.122 830.296 893.463 830.663 896.129C831.07 898.808 830.718 901.717 829.605 904.853L828.813 907.085L803.218 898.073L805.007 893.411L823.163 899.851C823.89 897.801 823.811 895.917 822.927 894.199C822.082 892.496 820.554 891.252 818.342 890.468C816.613 889.854 815.017 889.696 813.554 889.991C812.131 890.302 810.861 891.073 809.745 892.307C808.628 893.541 807.699 895.203 806.957 897.294C805.816 900.511 805.636 903.186 806.419 905.32C807.241 907.468 809.02 909.027 811.754 909.997C813.765 910.71 815.549 910.913 817.107 910.605C818.705 910.312 819.954 909.533 820.856 908.268L827.672 910.686C825.873 913.715 823.358 915.698 820.129 916.635C816.939 917.586 813.394 917.37 809.494 915.986Z" fill="white" fill-opacity="0.4"/>
<rect x="149" y="919.517" width="118" height="118" rx="5" transform="rotate(-8.04646 149 919.517)" fill="#FF0004" fill-opacity="0.3"/>
<path d="M169.952 941.942L157.908 943.67L157.585 941.389L162.586 935.785C163.102 935.211 163.53 934.69 163.867 934.223C164.221 933.752 164.491 933.318 164.677 932.92C164.863 932.522 164.986 932.133 165.045 931.753C165.105 931.373 165.104 930.969 165.044 930.542C164.905 929.559 164.544 928.835 163.96 928.368C163.377 927.901 162.626 927.732 161.707 927.862C160.757 927.997 160.049 928.42 159.584 929.132C159.119 929.844 158.958 930.756 159.099 931.867L156.081 932.294C155.917 931.024 156.023 929.886 156.398 928.88C156.77 927.858 157.38 927.028 158.227 926.391C159.072 925.738 160.104 925.326 161.324 925.153C162.56 924.979 163.654 925.058 164.606 925.392C165.572 925.708 166.36 926.251 166.97 927.021C167.579 927.791 167.967 928.763 168.133 929.935C168.218 930.537 168.213 931.128 168.117 931.707C168.035 932.268 167.864 932.833 167.605 933.403C167.344 933.957 167.005 934.53 166.588 935.122C166.171 935.715 165.67 936.343 165.085 937.007L161.366 941.218L160.142 940.446L169.552 939.115L169.952 941.942ZM170.607 933.051C170.351 931.245 170.429 929.626 170.841 928.195C171.268 926.761 171.975 925.586 172.96 924.671C173.959 923.738 175.196 923.167 176.669 922.959C178.158 922.748 179.504 922.954 180.707 923.575C181.924 924.179 182.928 925.112 183.721 926.373C184.529 927.632 185.061 929.165 185.316 930.971C185.569 932.761 185.498 934.371 185.102 935.8C184.707 937.23 184.015 938.394 183.027 939.293C182.039 940.193 180.769 940.752 179.217 940.972C177.696 941.187 176.328 941 175.114 940.413C173.915 939.823 172.928 938.896 172.151 937.632C171.375 936.368 170.86 934.841 170.607 933.051ZM173.601 932.628C173.789 933.959 174.125 935.075 174.608 935.976C175.088 936.861 175.688 937.504 176.407 937.903C177.124 938.286 177.934 938.414 178.837 938.286C179.771 938.154 180.522 937.806 181.089 937.241C181.669 936.658 182.067 935.874 182.283 934.89C182.497 933.89 182.51 932.725 182.322 931.394C182.127 930.016 181.789 928.884 181.309 927.999C180.826 927.098 180.225 926.447 179.506 926.048C178.802 925.647 177.983 925.512 177.049 925.644C176.146 925.772 175.404 926.127 174.824 926.71C174.244 927.293 173.847 928.085 173.633 929.084C173.417 930.068 173.406 931.249 173.601 932.628Z" fill="#FFFEFE" fill-opacity="0.4"/>
<path d="M203.8 1000.32C199.28 1000.96 195.214 1000.55 191.602 999.074C188.026 997.555 185.057 995.152 182.697 991.866C180.373 988.532 178.867 984.435 178.18 979.577C177.499 974.761 177.835 970.426 179.186 966.572C180.579 962.713 182.847 959.548 185.988 957.079C189.129 954.609 192.939 953.058 197.417 952.425C201.092 951.906 204.483 952.116 207.589 953.055C210.695 953.995 213.372 955.556 215.62 957.737C217.861 959.877 219.471 962.579 220.45 965.845L211.895 967.055C210.71 964.464 208.915 962.585 206.509 961.417C204.14 960.201 201.392 959.813 198.265 960.255C195.477 960.65 193.119 961.651 191.192 963.259C189.307 964.861 187.965 966.947 187.164 969.516C186.364 972.086 186.2 975.039 186.672 978.377C187.126 981.587 188.096 984.337 189.583 986.626C191.064 988.873 192.935 990.526 195.197 991.585C197.494 992.596 200.037 992.905 202.825 992.511C205.994 992.063 208.59 990.92 210.614 989.083C212.68 987.239 213.912 984.975 214.308 982.291L222.736 981.099C222.598 984.394 221.71 987.406 220.071 990.137C218.474 992.862 216.271 995.113 213.463 996.889C210.697 998.659 207.476 999.804 203.8 1000.32ZM239.868 995.289C236.573 995.755 233.828 995.238 231.634 993.738C229.476 992.19 228.191 989.959 227.779 987.044C227.373 984.171 228.043 981.75 229.79 979.779C231.573 977.76 234.302 976.34 237.978 975.519L247.25 973.433L247.151 972.735C246.948 971.299 246.512 970.197 245.844 969.43C245.211 968.614 244.382 968.085 243.357 967.842C242.325 967.557 241.155 967.507 239.845 967.692C237.564 968.015 235.876 968.728 234.783 969.83C233.683 970.891 233.249 972.245 233.482 973.892L226.892 974.824C226.569 972.543 226.862 970.497 227.77 968.689C228.714 966.831 230.176 965.289 232.157 964.061C234.18 962.827 236.586 962.013 239.374 961.619C242.205 961.218 244.706 961.382 246.877 962.109C249.042 962.794 250.814 964.052 252.193 965.882C253.567 967.67 254.459 970.022 254.871 972.937L257.559 991.948L250.778 992.906L249.554 988.361C249.105 990.062 247.98 991.557 246.18 992.845C244.423 994.128 242.319 994.943 239.868 995.289ZM241.516 989.11C243.924 988.769 245.729 987.824 246.932 986.275C248.177 984.72 248.63 982.739 248.289 980.331L248.057 978.683L241.601 980.113C239.223 980.665 237.584 981.413 236.683 982.359C235.777 983.263 235.413 984.349 235.592 985.616C235.789 987.01 236.403 988.001 237.434 988.588C238.465 989.174 239.826 989.348 241.516 989.11Z" fill="white" fill-opacity="0.4"/>
</svg>
