<svg width="1111" height="1188" viewBox="0 0 1111 1188" fill="none" xmlns="http://www.w3.org/2000/svg">
<g clip-path="url(#clip0_901_1331)">
<path d="M1111 0H0V1188H1111V0Z" fill="white"/>
<g filter="url(#filter0_f_901_1331)">
<path d="M832.016 1158.3C1075.41 1158.3 1272.71 841.828 1272.71 451.44C1272.71 61.0521 1075.41 -255.42 832.016 -255.42C588.625 -255.42 391.319 61.0521 391.319 451.44C391.319 841.828 588.625 1158.3 832.016 1158.3Z" fill="#0055FF"/>
<path d="M933.24 714.78C1176.63 714.78 1373.94 398.308 1373.94 7.92004C1373.94 -382.468 1176.63 -698.94 933.24 -698.94C689.85 -698.94 492.543 -382.468 492.543 7.92004C492.543 398.308 689.85 714.78 933.24 714.78Z" fill="white"/>
<path d="M149.368 1726.56C392.758 1726.56 590.064 1410.09 590.064 1019.7C590.064 629.312 392.758 312.84 149.368 312.84C-94.0222 312.84 -291.329 629.312 -291.329 1019.7C-291.329 1410.09 -94.0222 1726.56 149.368 1726.56Z" fill="#0055FF"/>
<path d="M232.076 1277.1C475.466 1277.1 672.772 960.628 672.772 570.24C672.772 179.852 475.466 -136.62 232.076 -136.62C-11.3145 -136.62 -208.621 179.852 -208.621 570.24C-208.621 960.628 -11.3145 1277.1 232.076 1277.1Z" fill="#0055FF"/>
<path d="M106.162 982.08C349.552 982.08 546.859 665.608 546.859 275.22C546.859 -115.168 349.552 -431.64 106.162 -431.64C-137.228 -431.64 -334.534 -115.168 -334.534 275.22C-334.534 665.608 -137.228 982.08 106.162 982.08Z" fill="white"/>
<path d="M582.658 776.16C826.048 776.16 1023.35 459.688 1023.35 69.2999C1023.35 -321.088 826.048 -637.56 582.658 -637.56C339.268 -637.56 141.961 -321.088 141.961 69.2999C141.961 459.688 339.268 776.16 582.658 776.16Z" fill="#0055FF"/>
</g>
</g>
<rect x="3" width="1108" height="1188" rx="20" fill="white" fill-opacity="0.8"/>
<defs>
<filter id="filter0_f_901_1331" x="-656.534" y="-1020.94" width="2352.47" height="3069.5" filterUnits="userSpaceOnUse" color-interpolation-filters="sRGB">
<feFlood flood-opacity="0" result="BackgroundImageFix"/>
<feBlend mode="normal" in="SourceGraphic" in2="BackgroundImageFix" result="shape"/>
<feGaussianBlur stdDeviation="161" result="effect1_foregroundBlur_901_1331"/>
</filter>
<clipPath id="clip0_901_1331">
<rect width="1111" height="1188" rx="20" fill="white"/>
</clipPath>
</defs>
</svg>
