<svg width="372" height="373" viewBox="0 0 372 373" fill="none" xmlns="http://www.w3.org/2000/svg">
<g opacity="0.2">
<path d="M123.239 295.547C63.2013 260.884 42.631 184.115 77.2935 124.077C111.956 64.0401 188.726 43.4697 248.763 78.1323C308.8 112.795 329.371 189.564 294.708 249.602C259.995 309.573 183.287 330.127 123.239 295.547Z" fill="white"/>
<path d="M243.444 87.3448C298.394 119.07 317.221 189.333 285.496 244.283C253.77 299.233 183.507 318.06 128.558 286.334C73.6078 254.609 54.7809 184.346 86.5061 129.396C118.279 74.5093 188.484 55.6979 243.444 87.3448ZM254.082 68.9198C188.957 31.3197 105.681 53.6333 68.0811 118.759C30.481 183.884 52.7946 267.159 117.92 304.759C183.045 342.359 266.32 320.046 303.921 254.921C341.521 189.795 319.207 106.52 254.082 68.9198Z" fill="#CCCCCC"/>
<path d="M243.599 87.0757C298.697 118.887 317.575 189.34 285.765 244.438C253.954 299.536 183.5 318.414 128.402 286.603C73.3042 254.792 54.4262 184.339 86.2371 129.241C118.09 74.1971 188.492 55.3327 243.599 87.0757ZM246.791 81.5482C188.64 47.975 114.283 67.899 80.7096 126.05C47.1364 184.2 67.0603 258.558 125.211 292.131C183.361 325.704 257.719 305.78 291.292 247.629C324.865 189.479 304.941 115.121 246.791 81.5482Z" fill="#999999"/>
<path d="M241.213 97.5883L235.686 94.397L225.871 111.396L231.399 114.587L241.213 97.5883Z" fill="black"/>
<path d="M146.127 262.283L140.599 259.092L130.785 276.091L136.312 279.282L146.127 262.283Z" fill="black"/>
<path d="M241.213 97.5883L235.686 94.397L225.871 111.396L231.399 114.587L241.213 97.5883Z" fill="black"/>
<path d="M146.127 262.283L140.599 259.092L130.785 276.091L136.312 279.282L146.127 262.283Z" fill="black"/>
<path d="M113.75 141.439L96.7512 131.625L93.5599 137.152L110.559 146.966L113.75 141.439Z" fill="black"/>
<path d="M278.445 236.525L261.446 226.711L258.255 232.238L275.253 242.053L278.445 236.525Z" fill="black"/>
<path d="M220.324 133.77L214.796 130.579L188.893 175.445L194.42 178.637L220.324 133.77Z" fill="black"/>
<path d="M287.038 190.865L183.602 183.695L183.161 190.062L286.596 197.233L287.038 190.865Z" fill="black"/>
<path d="M212.029 170.409L106.4 221.641L109.188 227.387L214.816 176.155L212.029 170.409Z" fill="#CCCCCC"/>
<path d="M178.757 199.383C185.686 203.384 194.546 201.01 198.546 194.081C202.547 187.152 200.173 178.292 193.244 174.291C186.315 170.291 177.455 172.665 173.454 179.594C169.454 186.523 171.828 195.383 178.757 199.383Z" fill="#999999"/>
</g>
</svg>
