<svg width="300" height="300" viewBox="0 0 300 300" fill="none" xmlns="http://www.w3.org/2000/svg">
<path d="M196.474 273.03H179.487V266.371C179.487 263.707 177.564 261.709 175 261.709H166.026L162.821 237.403H169.872C172.436 237.403 174.359 235.405 174.359 232.741C174.359 230.078 172.436 228.08 169.872 228.08H161.538L160.577 221.421H138.462L137.5 228.08H129.167C126.603 228.08 124.679 230.078 124.679 232.741C124.679 235.405 126.603 237.403 129.167 237.403H136.218L133.013 261.709H124.038C121.474 261.709 119.551 263.707 119.551 266.371V273.03H102.564C96.1538 273.03 91.0256 278.357 91.0256 285.017V300H207.692V285.017C208.013 278.357 202.885 273.03 196.474 273.03Z" fill="#DCDCDC"/>
<path d="M200.32 34.9609V54.9387H280.449V104.55C275.961 113.207 253.205 151.165 187.5 142.841L185.256 162.819C192.628 163.818 199.679 164.151 206.41 164.151C276.923 164.151 298.397 113.207 299.359 110.877L300 108.879V34.9609H200.32Z" fill="#DCDCDC"/>
<path d="M114.423 162.486L112.179 142.508C46.4744 151.165 23.3974 112.874 19.2308 104.217V54.9387H99.359V34.9609H0V108.879L0.641025 110.877C1.60256 113.207 23.0769 164.151 93.5897 164.151C100 163.818 107.051 163.485 114.423 162.486Z" fill="#DCDCDC"/>
<path d="M218.269 34.9609V244.728L241.026 224.75L263.782 244.728V34.9609H218.269Z" fill="#FF7A9A"/>
<path d="M35.8975 244.728L58.6539 224.75L81.4103 244.728V34.9609H35.8975V244.728Z" fill="#FF7A9A"/>
<path d="M150 232.075C97.4358 232.075 54.8076 187.791 54.8076 133.185V0H244.872V133.185C244.872 187.791 202.243 232.075 150 232.075Z" fill="#DCDCDC"/>
</svg>
