<svg width="156" height="155" viewBox="0 0 156 155" fill="none" xmlns="http://www.w3.org/2000/svg">
<path d="M107.472 97.8768C105.871 94.9399 107.907 91.9513 111.391 88.251C116.911 82.3772 122.917 68.7536 117.333 54.923C117.372 54.8454 116.232 52.5166 116.27 52.4389L113.978 52.3225C113.248 52.219 88.0311 52.1672 62.7889 52.1672C37.5466 52.1672 12.33 52.219 11.6 52.3225C11.6 52.3225 8.2062 54.8454 8.23182 54.923C2.64804 68.7536 8.65444 82.3643 14.1742 88.2381C17.6448 91.9383 19.6811 94.927 18.0931 97.8639C16.5434 100.723 11.933 101.137 11.933 101.137C11.933 101.137 12.996 104.061 15.5573 105.64C17.9266 107.102 20.8465 107.438 22.8572 107.49C22.8572 107.49 30.7334 118.5 51.3268 118.5H74.251C94.8444 118.5 102.721 107.49 102.721 107.49C104.731 107.438 107.651 107.102 110.02 105.64C112.582 104.061 113.645 101.137 113.645 101.137C113.645 101.137 109.022 100.736 107.472 97.8768Z" fill="#543930"/>
<path d="M62.7632 118.501V106.288L99.3523 103.364L102.682 107.504C102.682 107.504 94.8059 118.514 74.2125 118.514L62.7632 118.501Z" fill="url(#paint0_radial_135_827)"/>
<path d="M102.605 102.16C97.1238 93.7504 109.278 90.6064 109.278 90.6064L109.29 90.6194C107.177 93.2716 106.217 95.5875 107.459 97.8775C109.009 100.737 113.619 101.151 113.619 101.151C113.619 101.151 107.331 106.792 102.605 102.16Z" fill="url(#paint1_radial_135_827)"/>
<path d="M117.358 54.9261C122.801 68.3168 117.077 82.1086 111.711 87.9307C110.981 88.7328 107.856 91.825 107.139 94.2961C107.139 94.2961 94.9209 77.0758 91.2709 66.9583C90.541 64.9142 89.8622 62.8182 89.7725 60.6446C89.7085 59.0145 89.9518 57.0738 90.8867 55.6894C92.0265 53.9946 116.705 53.49 116.705 53.49C116.705 53.5029 117.358 54.9261 117.358 54.9261Z" fill="url(#paint2_radial_135_827)"/>
<path d="M8.21877 54.9239C2.78867 68.3146 8.51332 82.1064 13.8666 87.9155C14.5966 88.7177 17.7214 91.8098 18.4386 94.281C18.4386 94.281 30.6563 77.0606 34.3063 66.9432C35.0491 64.899 35.715 62.8031 35.8047 60.6295C35.8687 58.9993 35.6254 57.0587 34.6905 55.6743C33.5507 53.9794 32.2188 54.4323 30.2849 54.4323C26.5966 54.4323 10.4472 53.4749 9.19209 53.4749C9.20489 53.5007 8.21877 54.9239 8.21877 54.9239Z" fill="url(#paint3_radial_135_827)"/>
<path d="M62.8146 118.501V106.288L26.2255 103.364L22.8958 107.504C22.8958 107.504 30.7719 118.514 51.3653 118.514L62.8146 118.501Z" fill="url(#paint4_radial_135_827)"/>
<path d="M22.9853 102.16C28.4666 93.7504 16.3129 90.6064 16.3129 90.6064L16.3001 90.6194C18.4133 93.2716 19.3738 95.5875 18.1315 97.8775C16.5819 100.737 11.9714 101.151 11.9714 101.151C11.9714 101.151 18.2468 106.792 22.9853 102.16Z" fill="url(#paint5_radial_135_827)"/>
<path d="M62.3662 118.644C32.1165 118.735 0.739746 128.128 0.739746 151.066V155H123.98V151.066C123.993 128.128 92.6159 118.735 62.3662 118.644Z" fill="url(#paint6_radial_135_827)"/>
<path d="M111.173 129.887L103.707 155H123.98V151.067C123.993 141.958 119.036 134.985 111.173 129.887Z" fill="url(#paint7_linear_135_827)"/>
<path d="M62.6349 114.282H51.0063V127.194C51.0063 133.029 55.7449 137.765 61.5848 137.765H63.6979C69.5378 137.765 74.2763 133.029 74.2763 127.194V114.282H62.6349Z" fill="#99674F"/>
<path d="M97.777 60.0884H27.7749C20.2317 60.0884 14.0588 66.7385 14.0588 74.8505C14.0588 82.9626 20.2317 89.6127 27.7749 89.6127H97.7642C105.307 89.6127 111.48 82.9626 111.48 74.8505C111.48 66.7385 105.32 60.0884 97.777 60.0884Z" fill="#99674F"/>
<path d="M62.7759 9.15186C40.492 9.15186 19.8474 33.2293 19.8474 67.8899C19.8474 102.356 41.1195 119.396 62.7759 119.396C84.4322 119.396 105.704 102.356 105.704 67.8899C105.704 33.2293 85.0598 9.15186 62.7759 9.15186Z" fill="#BA8D68"/>
<path d="M67.5785 82.885C67.4376 82.8332 67.3096 82.7944 67.1687 82.7815H58.1015C57.9606 82.7944 57.8197 82.8332 57.6917 82.885C56.872 83.2214 56.4238 84.0753 56.808 84.9939C57.1922 85.9125 58.998 88.4742 62.6351 88.4742C66.2722 88.4742 68.078 85.8995 68.4622 84.9939C68.8464 84.0882 68.3982 83.2214 67.5785 82.885Z" fill="#99674F"/>
<path d="M73.5593 93.3484C69.4739 95.7937 56.1036 95.7937 52.031 93.3484C49.6874 91.9382 47.2925 94.0988 48.2658 96.2465C49.2263 98.3554 56.5134 103.259 62.8272 103.259C69.1409 103.259 76.3384 98.3554 77.2989 96.2465C78.2594 94.0859 75.9029 91.9382 73.5593 93.3484Z" fill="#5D4037"/>
<path d="M52.0953 59.2193C50.9043 57.6279 48.1636 55.325 42.836 55.325C37.5083 55.325 34.7549 57.6408 33.5766 59.2193C33.0516 59.9179 33.1796 60.733 33.551 61.2246C33.884 61.6775 34.8829 62.1044 35.9843 61.7292C37.0857 61.354 39.2373 60.2284 42.836 60.2025C46.4347 60.2284 48.5862 61.354 49.6876 61.7292C50.789 62.1044 51.7879 61.6904 52.1209 61.2246C52.4923 60.7459 52.6204 59.9308 52.0953 59.2193Z" fill="#613E31"/>
<path d="M91.9884 59.2193C90.7973 57.6279 88.0567 55.325 82.729 55.325C77.4014 55.325 74.6479 57.6408 73.4697 59.2193C72.9446 59.9179 73.0727 60.733 73.4441 61.2246C73.7771 61.6775 74.776 62.1044 75.8774 61.7292C76.9788 61.354 79.1303 60.2284 82.729 60.2025C86.3278 60.2284 88.4793 61.354 89.5807 61.7292C90.6821 62.1044 91.681 61.6904 92.014 61.2246C92.3726 60.7459 92.5006 59.9308 91.9884 59.2193Z" fill="#613E31"/>
<path d="M42.8357 77.5287C46.3227 77.5287 49.1495 74.5745 49.1495 70.9304C49.1495 67.2862 46.3227 64.332 42.8357 64.332C39.3487 64.332 36.522 67.2862 36.522 70.9304C36.522 74.5745 39.3487 77.5287 42.8357 77.5287Z" fill="#49362E"/>
<path d="M82.7164 77.5287C86.2033 77.5287 89.0301 74.5745 89.0301 70.9304C89.0301 67.2862 86.2033 64.332 82.7164 64.332C79.2294 64.332 76.4026 67.2862 76.4026 70.9304C76.4026 74.5745 79.2294 77.5287 82.7164 77.5287Z" fill="#49362E"/>
<path d="M76.2743 130.625H49.2007L52.2871 155H73.508L76.2743 130.625Z" fill="url(#paint8_linear_135_827)"/>
<path d="M51.0063 119.057C43.4247 119.613 39.8772 120.273 39.8772 120.273L35.8687 129.718L42.5922 135.398L36.3425 143.354L45.461 154.999H54.9124L51.0063 119.057Z" fill="url(#paint9_linear_135_827)"/>
<path d="M74.2764 119.057C81.8581 119.613 85.4056 120.273 85.4056 120.273L89.4141 129.718L82.6905 135.397L88.9403 143.354L79.8218 154.998H70.3704L74.2764 119.057Z" fill="url(#paint10_linear_135_827)"/>
<path d="M67.6552 82.8198C67.5272 82.7681 67.3863 82.7292 67.2454 82.7163H58.2935C58.1526 82.7292 58.0245 82.7681 57.8836 82.8198C57.0768 83.1562 56.6286 83.9972 57.0128 84.9028C57.397 85.8085 59.1771 88.3443 62.763 88.3443C66.3489 88.3443 68.1291 85.8085 68.5133 84.9028C68.9231 84.0101 68.4749 83.1562 67.6552 82.8198Z" fill="#99674F"/>
<path d="M35.8688 51.8958H90.4899L97.9051 58.4941V77.9397C97.9051 77.9397 92.8592 85.0556 80.6927 82.0669C68.5262 79.0783 70.1527 71.6519 62.9169 71.6519C55.681 71.6519 52.3512 83.516 36.5092 83.1925C36.5092 83.1925 28.3384 82.468 26.8272 77.2928L26.4814 55.803L35.8688 51.8958Z" fill="url(#paint11_linear_135_827)"/>
<path d="M109.098 65.4163C109.111 66.2832 108.855 67.1241 108.368 67.8357L101.363 78.2507C98.7248 81.938 89.4526 83.9822 89.4526 83.9822L99.9286 72.157L97.9308 57.2784L88.4153 49.7744C88.4153 49.7744 92.347 50.1626 95.1261 50.1626C97.9051 50.1626 100.671 51.9609 102.093 52.9571L107.241 56.5409C108.368 57.3301 109.034 58.611 109.047 59.9954L109.098 65.4163Z" fill="url(#paint12_linear_135_827)"/>
<path d="M19.284 70.9279L24.2146 78.2507C26.8528 81.938 36.125 83.9822 36.125 83.9822L25.649 72.157L27.6468 57.2784L37.1623 49.7744C37.1623 49.7744 33.2306 50.1626 30.4515 50.1626C27.6724 50.1626 24.9062 51.9609 23.4846 52.9571L19.8347 55.5059C18.7205 56.2822 18.8101 70.2034 19.284 70.9279Z" fill="url(#paint13_linear_135_827)"/>
<path d="M87.7108 53.606C89.1196 53.606 91.4632 54.0588 93.4483 55.3397C96.1377 57.0733 96.2145 59.0787 96.2401 59.7385C96.2786 60.7348 96.317 61.6922 96.3682 62.6496C96.4963 65.6382 96.6244 68.4587 96.6244 71.2015C96.6244 76.8295 91.6169 80.7497 84.4579 80.7497C79.3992 80.7497 73.6745 76.4414 71.0619 73.5433C69.0128 71.2791 65.9904 69.9724 62.7631 69.9724C59.5358 69.9724 56.5134 71.2791 54.4643 73.5433C51.8517 76.4414 46.1271 80.7497 41.0684 80.7497C33.9093 80.7497 28.9019 76.8295 28.9019 71.2015C28.9019 68.4457 29.03 65.6253 29.158 62.6496C29.1964 61.6922 29.2477 60.7218 29.2861 59.7385C29.3117 59.0787 29.3885 57.0733 32.078 55.3397C34.063 54.0588 36.4067 53.606 37.8154 53.606H87.7108ZM87.7108 49.7246H37.841C33.2562 49.7246 25.7514 52.7003 25.4697 59.5833C25.3032 63.7234 25.0854 67.4754 25.0854 71.2145C25.0854 78.9772 31.7578 84.644 41.094 84.644C47.4974 84.644 54.0929 79.7535 57.3202 76.1697C58.7034 74.643 60.7396 73.8667 62.7759 73.8667C64.8122 73.8667 66.8613 74.643 68.2316 76.1697C71.4718 79.7535 78.0545 84.644 84.4579 84.644C93.794 84.644 100.466 78.9772 100.466 71.2145C100.466 67.4883 100.249 63.7234 100.082 59.5833C99.8132 52.7003 92.3085 49.7246 87.7108 49.7246Z" fill="url(#paint14_radial_135_827)"/>
<path d="M152.526 89.6125C153.986 99.6912 152.385 111.439 152.385 111.439L139.246 110.274C139.246 110.274 138.746 102.628 139.246 102.615L152.526 89.6125Z" fill="#80CBC4"/>
<path d="M139.297 108.164C130.767 107.116 127.015 106.094 127.015 106.094L112.492 154.999H148.594L153.896 108.151C153.896 108.151 149.862 109.457 139.297 108.164Z" fill="url(#paint15_linear_135_827)"/>
<path opacity="0.86" d="M137.376 140.238C134.469 142.05 125.709 140.394 117.205 137.327C110.648 134.96 105.384 131.945 105.333 131.932C104.654 131.609 98.2893 128.115 98.2893 124.506C98.2893 121.504 100.799 119.473 101.414 118.774L101.542 118.645L123.903 95.8743L140.731 54.7317L140.757 54.7188C140.757 54.7188 143.779 53.6708 148.018 55.3528C152.257 57.0347 154.434 59.8293 154.434 59.8293L154.409 59.8422L139.233 102.046C139.233 102.046 139.271 132.294 139.233 134.895C139.181 138.427 138.772 139.359 137.376 140.238Z" fill="url(#paint16_linear_135_827)"/>
<path opacity="0.8" d="M132.765 138.217C125.542 135.371 110.507 129.355 103.271 126.392C101.312 125.577 100.8 123.028 102.285 121.515L111.801 111.824L136.787 110.608V135.436C136.8 137.519 134.712 138.981 132.765 138.217Z" fill="url(#paint17_radial_135_827)"/>
<path d="M119.9 123.603L120.89 121.217L128.922 124.615L127.933 127.002L119.9 123.603Z" fill="white"/>
<path d="M122.493 116.566L123.482 114.179L131.514 117.576L130.525 119.963L122.493 116.566Z" fill="white"/>
<path d="M125.085 109.52L126.074 107.133L134.106 110.531L133.118 112.918L125.085 109.52Z" fill="white"/>
<path d="M127.675 102.487L128.663 100.1L136.696 103.497L135.707 105.884L127.675 102.487Z" fill="white"/>
<path d="M130.267 95.4483L131.255 93.0613L139.288 96.4588L138.299 98.8458L130.267 95.4483Z" fill="white"/>
<path d="M132.842 88.4144L133.831 86.0273L141.865 89.4235L140.875 91.8106L132.842 88.4144Z" fill="white"/>
<path d="M135.433 81.3761L136.423 78.989L144.455 82.3865L143.467 84.7735L135.433 81.3761Z" fill="white"/>
<path d="M138.653 73.1988L139.643 70.8118L147.675 74.2093L146.686 76.5963L138.653 73.1988Z" fill="white"/>
<path d="M141.247 66.1558L142.236 63.77L150.268 67.1662L149.28 69.5533L141.247 66.1558Z" fill="white"/>
<path d="M122.315 97.4896C122.315 97.4896 119.075 94.7209 119.088 92.198C119.1 90.1797 121.508 88.2649 121.508 88.2649C121.508 88.2649 119.203 84.6811 120.048 82.7275C121.252 79.9587 124.415 79.4283 124.415 79.4283C124.415 79.4283 122.981 75.8186 125.248 73.6968C126.861 72.1831 131.523 72.817 131.523 72.817C131.523 72.817 131.984 66.8915 137.696 68.3793C139.924 68.9615 147.826 73.5416 150.772 83.2062C152.616 89.2482 153.333 91.0465 152.744 100.103C152.488 103.946 142.87 103.946 139.246 102.626C130.217 99.3397 127.655 95.329 126.413 95.3548C125.158 95.3807 122.315 97.4896 122.315 97.4896Z" fill="#80CBC4"/>
<path d="M123.429 86.0129C122.507 86.1811 121.79 86.9315 121.585 87.8631L121.495 88.2641L126.849 86.414C125.606 85.8189 124.364 85.8448 123.429 86.0129Z" fill="#26A69A"/>
<path d="M129.948 79.7929C129.218 78.9778 128.373 78.512 127.617 78.2403C126.413 77.8133 125.081 78.3309 124.415 79.4306L129.948 79.7929Z" fill="#26A69A"/>
<path d="M134.161 71.9647C133.226 71.5895 132.112 71.8742 131.549 72.7151C131.536 72.741 131.523 72.7669 131.51 72.7798C133.79 73.0644 137.209 74.5135 137.209 74.5135C136.505 73.1421 135.211 72.3787 134.161 71.9647Z" fill="#26A69A"/>
<path d="M135.977 137.395C136.846 135.168 129.854 130.297 120.359 126.515C110.864 122.733 102.462 121.472 101.593 123.699C100.724 125.926 107.716 130.797 117.211 134.579C126.706 138.361 135.108 139.622 135.977 137.395Z" fill="#8F5D9B"/>
<path d="M154.29 60.4137C155.091 58.3593 152.683 55.4778 148.912 53.9777C145.141 52.4776 141.435 52.927 140.634 54.9814C139.833 57.0358 142.241 59.9172 146.012 61.4174C149.783 62.9175 153.489 62.4681 154.29 60.4137Z" fill="#81D4FA"/>
<path d="M114.093 27.0564C110.968 22.2823 103.963 15.878 97.6747 15.4511C96.663 9.3444 90.1955 4.16924 83.933 2.16387C66.9896 -3.25711 55.9629 2.8237 50.0461 6.08405C48.8167 6.75682 40.8636 11.2204 35.3055 8.02473C31.822 6.01936 31.8861 0.598381 31.8861 0.598381C31.8861 0.598381 20.9746 4.8032 24.7014 16.512C20.949 16.6672 16.0312 18.2715 13.4314 23.589C10.3322 29.9286 11.4336 35.2202 12.33 37.756C9.10273 40.5247 5.04296 46.4115 7.82204 54.0578C9.92236 59.8151 18.2852 62.4674 18.2852 62.4674C17.6961 72.8307 19.6043 79.209 20.6161 81.7837C20.7954 82.2365 21.4229 82.1977 21.5381 81.7319C22.806 76.5956 27.1219 58.7025 26.6993 55.5844C26.6993 55.5844 41.2222 52.6734 55.092 42.3619C57.9095 40.266 60.9704 38.4805 64.2233 37.1738C81.6278 30.1744 85.2649 42.1161 85.2649 42.1161C85.2649 42.1161 97.3289 39.7743 100.966 56.6971C102.336 63.0367 103.258 73.1929 104.04 80.2958C104.091 80.8004 104.77 80.9039 104.962 80.4381C106.178 77.6177 108.612 72.0285 109.188 66.3229C109.393 64.3175 114.746 61.6652 117.051 53.0486C120.138 41.5598 116.36 30.5108 114.093 27.0564Z" fill="#543930"/>
<path d="M109.162 66.374C109.367 64.3686 114.721 61.7164 117.026 53.0997C117.269 52.1811 117.474 51.2496 117.666 50.3181C119.536 39.8513 116.181 30.2385 114.093 27.0557C111.199 22.6439 105 16.8477 99.1219 15.6575C98.6096 15.5928 98.1102 15.5281 97.6363 15.5022C97.6363 15.5022 98.059 18.2838 96.9448 20.4962C95.5104 23.3684 92.5776 24.0541 92.5776 24.0541C107.907 39.5537 106.819 52.5175 109.162 66.374Z" fill="url(#paint18_radial_135_827)"/>
<path d="M53.7472 4.12922C52.3384 4.81492 51.109 5.50063 50.0332 6.08284C48.8037 6.75561 40.8507 11.2192 35.2925 8.02352C31.8731 6.05696 31.8731 0.804177 31.8731 0.623047C30.2979 2.6543 25.5337 17.1577 39.4676 18.128C45.474 18.542 49.1751 13.2504 51.3779 8.77392C52.1719 7.14374 53.4142 4.76317 53.7472 4.12922Z" fill="url(#paint19_radial_135_827)"/>
<path d="M82.1912 1.64671C91.5658 4.20841 96.1378 9.03424 97.6618 15.4644C98.1101 17.3533 98.6479 34.9747 65.3502 14.9469C52.966 7.49463 56.347 2.83699 57.7942 2.30654C63.4548 0.236475 71.6896 -1.22551 82.1912 1.64671Z" fill="url(#paint20_radial_135_827)"/>
<path d="M31.8348 0.625973C31.822 0.638911 31.7964 0.638912 31.758 0.664787C30.5669 1.16937 21.2052 5.55531 24.7014 16.5137L34.6651 18.1309C25.8412 9.10029 31.886 0.600098 31.886 0.600098L31.8348 0.625973Z" fill="url(#paint21_radial_135_827)"/>
<path d="M30.8486 17.5074L24.6886 16.5112C24.4452 16.5112 23.6256 16.5889 23.1774 16.6535C19.7067 17.1452 15.6213 18.9565 13.4058 23.5883C11.0237 28.5823 11.0877 32.8647 11.7409 35.724C11.933 36.6814 12.3172 37.7682 12.3172 37.7682C12.3172 37.7682 15.3652 34.8442 22.6267 34.6502L30.8486 17.5074Z" fill="url(#paint22_radial_135_827)"/>
<path d="M12.0227 38.0145C8.98748 40.7314 4.9021 46.7993 7.91171 54.3292C10.1785 60.0089 18.2724 62.4671 18.2724 62.4671C18.2724 62.493 19.8861 62.9846 20.7185 62.9846L22.6139 34.6506C18.7335 34.6506 15.0067 35.828 12.599 37.5228C12.6374 37.5617 12.0099 37.9757 12.0227 38.0145Z" fill="url(#paint23_radial_135_827)"/>
<defs>
<radialGradient id="paint0_radial_135_827" cx="0" cy="0" r="1" gradientUnits="userSpaceOnUse" gradientTransform="translate(81.4535 100.854) scale(29.9923 14.883)">
<stop offset="0.728" stop-color="#6D4C41" stop-opacity="0"/>
<stop offset="1" stop-color="#6D4C41"/>
</radialGradient>
<radialGradient id="paint1_radial_135_827" cx="0" cy="0" r="1" gradientUnits="userSpaceOnUse" gradientTransform="translate(110.997 96.3431) rotate(154.699) scale(8.87951 6.63025)">
<stop offset="0.663" stop-color="#6D4C41"/>
<stop offset="1" stop-color="#6D4C41" stop-opacity="0"/>
</radialGradient>
<radialGradient id="paint2_radial_135_827" cx="0" cy="0" r="1" gradientUnits="userSpaceOnUse" gradientTransform="translate(88.0255 71.0231) rotate(-94.2351) scale(39.3272 32.4482)">
<stop offset="0.725" stop-color="#6D4C41" stop-opacity="0"/>
<stop offset="1" stop-color="#6D4C41"/>
</radialGradient>
<radialGradient id="paint3_radial_135_827" cx="0" cy="0" r="1" gradientUnits="userSpaceOnUse" gradientTransform="translate(37.5586 71.0194) rotate(-85.7649) scale(39.3272 32.4482)">
<stop offset="0.725" stop-color="#6D4C41" stop-opacity="0"/>
<stop offset="1" stop-color="#6D4C41"/>
</radialGradient>
<radialGradient id="paint4_radial_135_827" cx="0" cy="0" r="1" gradientUnits="userSpaceOnUse" gradientTransform="translate(44.1295 100.854) rotate(180) scale(29.9923 14.883)">
<stop offset="0.728" stop-color="#6D4C41" stop-opacity="0"/>
<stop offset="1" stop-color="#6D4C41"/>
</radialGradient>
<radialGradient id="paint5_radial_135_827" cx="0" cy="0" r="1" gradientUnits="userSpaceOnUse" gradientTransform="translate(14.5905 96.3464) rotate(25.3008) scale(8.87952 6.63025)">
<stop offset="0.663" stop-color="#6D4C41"/>
<stop offset="1" stop-color="#6D4C41" stop-opacity="0"/>
</radialGradient>
<radialGradient id="paint6_radial_135_827" cx="0" cy="0" r="1" gradientUnits="userSpaceOnUse" gradientTransform="translate(64.1681 159.104) scale(87.3669 53.2655)">
<stop offset="0.559" stop-color="#F5F5F5"/>
<stop offset="1" stop-color="#C6C6C6"/>
</radialGradient>
<linearGradient id="paint7_linear_135_827" x1="108.472" y1="142.582" x2="126.995" y2="145.01" gradientUnits="userSpaceOnUse">
<stop stop-color="#9E9E9E" stop-opacity="0"/>
<stop offset="0.788" stop-color="#9E9E9E"/>
</linearGradient>
<linearGradient id="paint8_linear_135_827" x1="62.7362" y1="130.624" x2="62.7362" y2="155.243" gradientUnits="userSpaceOnUse">
<stop offset="0.003" stop-color="#80CBC4"/>
<stop offset="0.333" stop-color="#73C6BE"/>
<stop offset="0.941" stop-color="#51B8AE"/>
<stop offset="1" stop-color="#4DB6AC"/>
</linearGradient>
<linearGradient id="paint9_linear_135_827" x1="45.3892" y1="145.679" x2="45.3892" y2="119.541" gradientUnits="userSpaceOnUse">
<stop offset="0.335" stop-color="#E0E0E0"/>
<stop offset="0.668" stop-color="#D0D0D0"/>
<stop offset="0.987" stop-color="#BDBDBD"/>
</linearGradient>
<linearGradient id="paint10_linear_135_827" x1="79.891" y1="145.679" x2="79.891" y2="119.541" gradientUnits="userSpaceOnUse">
<stop offset="0.335" stop-color="#E0E0E0"/>
<stop offset="0.668" stop-color="#D0D0D0"/>
<stop offset="0.987" stop-color="#BDBDBD"/>
</linearGradient>
<linearGradient id="paint11_linear_135_827" x1="62.192" y1="51.8945" x2="62.192" y2="83.1951" gradientUnits="userSpaceOnUse">
<stop offset="0.203" stop-color="#B3E5FC" stop-opacity="0.5"/>
<stop offset="1" stop-color="#B3E5FC" stop-opacity="0.2"/>
</linearGradient>
<linearGradient id="paint12_linear_135_827" x1="98.7619" y1="66.7373" x2="98.7619" y2="50.3993" gradientUnits="userSpaceOnUse">
<stop stop-color="#BDBDBD"/>
<stop offset="1" stop-color="#E0E0E0"/>
</linearGradient>
<linearGradient id="paint13_linear_135_827" x1="28.0592" y1="66.5212" x2="28.0592" y2="50.8379" gradientUnits="userSpaceOnUse">
<stop stop-color="#BDBDBD"/>
<stop offset="1" stop-color="#E0E0E0"/>
</linearGradient>
<radialGradient id="paint14_radial_135_827" cx="0" cy="0" r="1" gradientUnits="userSpaceOnUse" gradientTransform="translate(62.7781 67.1882) rotate(90) scale(29.6226 41.2978)">
<stop stop-color="#F5F5F5"/>
<stop offset="0.676" stop-color="#EEEEEE"/>
<stop offset="1" stop-color="#E0E0E0"/>
</radialGradient>
<linearGradient id="paint15_linear_135_827" x1="121.344" y1="129.989" x2="154.324" y2="134.314" gradientUnits="userSpaceOnUse">
<stop offset="0.437" stop-color="#F5F5F5"/>
<stop offset="1" stop-color="#C6C6C6"/>
</linearGradient>
<linearGradient id="paint16_linear_135_827" x1="147.719" y1="61.8773" x2="118.434" y2="129.86" gradientUnits="userSpaceOnUse">
<stop stop-color="#B3E5FC" stop-opacity="0.8"/>
<stop offset="0.083" stop-color="#AEE3FC" stop-opacity="0.817"/>
<stop offset="0.674" stop-color="#8DD8FA" stop-opacity="0.935"/>
<stop offset="1" stop-color="#81D4FA"/>
</linearGradient>
<radialGradient id="paint17_radial_135_827" cx="0" cy="0" r="1" gradientUnits="userSpaceOnUse" gradientTransform="translate(137.331 110.189) rotate(13.4393) scale(32.5035 32.8004)">
<stop stop-color="#CE93D8"/>
<stop offset="0.205" stop-color="#CA8AD5"/>
<stop offset="0.537" stop-color="#BF73CC"/>
<stop offset="0.95" stop-color="#AD4CBE"/>
<stop offset="1" stop-color="#AB47BC"/>
</radialGradient>
<radialGradient id="paint18_radial_135_827" cx="0" cy="0" r="1" gradientUnits="userSpaceOnUse" gradientTransform="translate(85.8526 50.2689) rotate(72.2551) scale(46.0569 33.8916)">
<stop offset="0.699" stop-color="#6D4C41" stop-opacity="0"/>
<stop offset="1" stop-color="#6D4C41"/>
</radialGradient>
<radialGradient id="paint19_radial_135_827" cx="0" cy="0" r="1" gradientUnits="userSpaceOnUse" gradientTransform="translate(41.3658 0.00304568) rotate(28.4462) scale(11.9931 14.3002)">
<stop offset="0.58" stop-color="#6D4C41"/>
<stop offset="1" stop-color="#6D4C41" stop-opacity="0"/>
</radialGradient>
<radialGradient id="paint20_radial_135_827" cx="0" cy="0" r="1" gradientUnits="userSpaceOnUse" gradientTransform="translate(68.1067 21.957) rotate(-156.981) scale(37.4788 21.2132)">
<stop offset="0.699" stop-color="#6D4C41" stop-opacity="0"/>
<stop offset="1" stop-color="#6D4C41"/>
</radialGradient>
<radialGradient id="paint21_radial_135_827" cx="0" cy="0" r="1" gradientUnits="userSpaceOnUse" gradientTransform="translate(36.5605 11.0343) scale(10.9818 13.5716)">
<stop offset="0.702" stop-color="#6D4C41" stop-opacity="0"/>
<stop offset="1" stop-color="#6D4C41"/>
</radialGradient>
<radialGradient id="paint22_radial_135_827" cx="0" cy="0" r="1" gradientUnits="userSpaceOnUse" gradientTransform="translate(35.0493 30.6163) rotate(-164.795) scale(20.6123 19.4597)">
<stop offset="0.66" stop-color="#6D4C41" stop-opacity="0"/>
<stop offset="1" stop-color="#6D4C41"/>
</radialGradient>
<radialGradient id="paint23_radial_135_827" cx="0" cy="0" r="1" gradientUnits="userSpaceOnUse" gradientTransform="translate(30.1672 50.7072) rotate(7.91271) scale(21.6304 30.6937)">
<stop offset="0.598" stop-color="#6D4C41" stop-opacity="0"/>
<stop offset="1" stop-color="#6D4C41"/>
</radialGradient>
</defs>
</svg>
