<?xml version="1.0" encoding="UTF-8" standalone="no"?><!DOCTYPE svg PUBLIC "-//W3C//DTD SVG 1.1//EN" "http://www.w3.org/Graphics/SVG/1.1/DTD/svg11.dtd"><svg width="100%" height="100%" viewBox="0 0 6017 920" version="1.1" xmlns="http://www.w3.org/2000/svg" xmlns:xlink="http://www.w3.org/1999/xlink" xml:space="preserve" xmlns:serif="http://www.serif.com/" style="fill-rule:evenodd;clip-rule:evenodd;stroke-linecap:round;stroke-linejoin:round;stroke-miterlimit:1.5;"><g><path d="M2.864,2.858c195.289,108.933 496.458,27.271 866.771,61.934c449.547,29.333 620.334,39.333 971.976,96.96c294.963,43.279 602.112,103.582 996.63,66.524c235.046,-5.447 808.512,-42.449 1063.93,-10.845c252.979,34.179 446.142,35.249 604.713,17.171l269.721,-39.409c139.306,-19.914 353.59,-30.608 549.376,-4.712c257.195,-17.636 496.622,-11.02 687.348,-136.918l0.059,448.873l-6010.53,-10.325l0.006,-489.253Z" style="fill:url(#_Linear1);stroke:#000;stroke-opacity:0;stroke-width:5.72px;"/><rect x="2.861" y="480.194" width="6010.51" height="439.077" style="fill:#fff;"/></g><defs><linearGradient id="_Linear1" x1="0" y1="0" x2="1" y2="0" gradientUnits="userSpaceOnUse" gradientTransform="matrix(3.7444e-14,610.442,-66.9499,4.09236e-15,3230.61,-228.306)"><stop offset="0" style="stop-color:#fff;stop-opacity:0"/><stop offset="0.46" style="stop-color:#fff;stop-opacity:0.32"/><stop offset="1" style="stop-color:#fff;stop-opacity:1"/></linearGradient></defs></svg>